<svg xmlns="http://www.w3.org/2000/svg">
  <symbol id="menu" viewBox="0 0 86 33" fill="none">
    <path d="M0.706543 1H55.1156" stroke="white" stroke-width="2"/>
    <path d="M0 16.5454H84.7934" stroke="white" stroke-width="2"/>
    <path d="M61.4751 31.3843H85.4999" stroke="white" stroke-width="2"/>
  </symbol>

  <symbol id="arrow-down" viewBox="0 0 78 48" fill="none">
    <path d="M1 1L40.5 47L77.5 1" stroke="white"/>
  </symbol>

  <symbol id="nav-arrow" viewBox="0 0 10 12" fill="none">
    <path d="M0 12C1.31322 12 2.61358 11.8448 3.82683 11.5433C5.04009 11.2417 6.14248 10.7998 7.07107 10.2426C7.99965 9.68549 8.73625 9.02405 9.2388 8.2961C9.74134 7.56815 10 6.78793 10 6C10 5.21207 9.74134 4.43185 9.2388 3.7039C8.73625 2.97595 7.99965 2.31451 7.07107 1.75736C6.14248 1.20021 5.04009 0.758251 3.82683 0.456723C2.61358 0.155194 1.31322 -6.88831e-08 -9.53674e-07 0V0.651075C1.17072 0.651075 2.32997 0.789429 3.41157 1.05824C4.49318 1.32705 5.47594 1.72105 6.30377 2.21774C7.13159 2.71443 7.78825 3.30409 8.23627 3.95305C8.68428 4.60202 8.91487 5.29757 8.91487 6C8.91487 6.70243 8.68428 7.39798 8.23627 8.04694C7.78826 8.69591 7.13159 9.28557 6.30377 9.78226C5.47595 10.279 4.49318 10.673 3.41157 10.9418C2.32997 11.2106 1.17072 11.3489 0 11.3489V12Z" fill="#CF4F46"/>
  </symbol>

  <symbol id="running-arrow" viewBox="0 0 865 16" fill="none" preserveAspectRatio="none">
    <path d="M864.707 8.70703C865.098 8.31651 865.098 7.68334 864.707 7.29282L858.343 0.928857C857.953 0.538333 857.319 0.538333 856.929 0.928857C856.538 1.31938 856.538 1.95255 856.929 2.34307L862.586 7.99992L856.929 13.6568C856.538 14.0473 856.538 14.6805 856.929 15.071C857.319 15.4615 857.953 15.4615 858.343 15.071L864.707 8.70703ZM8.74228e-08 9L864 8.99992L864 6.99992L-8.74228e-08 7L8.74228e-08 9Z" fill="#D73B30"/>
  </symbol>

  <symbol id="running-arrow-sm" width="59" height="8" viewBox="0 0 59 8" fill="none">
    <path d="M57.9151 4.39359C58.1103 4.19833 58.1103 3.88175 57.9151 3.68649L54.7331 0.504505C54.5378 0.309243 54.2212 0.309243 54.026 0.504505C53.8307 0.699767 53.8307 1.01635 54.026 1.21161L56.8544 4.04004L54.026 6.86847C53.8307 7.06373 53.8307 7.38031 54.026 7.57557C54.2212 7.77084 54.5378 7.77084 54.7331 7.57557L57.9151 4.39359ZM-28 4.54004H57.5615V3.54004H-28V4.54004Z" fill="#CF4F46"/>
  </symbol>


  <symbol id="star" viewBox="0 0 30 30" fill="none">
    <path d="M15 0L15.4495 9.28817L17.3465 0.184675L16.3375 9.42882L19.6353 0.734152L17.1926 9.70664L21.8099 1.6349L17.9937 10.1148L23.8168 2.86475L18.721 10.6433L25.6066 4.3934L19.3567 11.279L27.1353 6.18322L19.8852 12.0063L28.3651 8.19014L20.2934 12.8074L29.2658 10.3647L20.5712 13.6625L29.8153 12.6535L20.7118 14.5505L30 15L20.7118 15.4495L29.8153 17.3465L20.5712 16.3375L29.2658 19.6353L20.2934 17.1926L28.3651 21.8099L19.8852 17.9937L27.1353 23.8168L19.3567 18.721L25.6066 25.6066L18.721 19.3567L23.8168 27.1353L17.9937 19.8852L21.8099 28.3651L17.1926 20.2934L19.6353 29.2658L16.3375 20.5712L17.3465 29.8153L15.4495 20.7118L15 30L14.5505 20.7118L12.6535 29.8153L13.6625 20.5712L10.3647 29.2658L12.8074 20.2934L8.19014 28.3651L12.0063 19.8852L6.18322 27.1353L11.279 19.3567L4.3934 25.6066L10.6433 18.721L2.86475 23.8168L10.1148 17.9937L1.6349 21.8099L9.70664 17.1926L0.734152 19.6353L9.42882 16.3375L0.184675 17.3465L9.28817 15.4495L0 15L9.28817 14.5505L0.184675 12.6535L9.42882 13.6625L0.734152 10.3647L9.70664 12.8074L1.6349 8.19014L10.1148 12.0063L2.86475 6.18322L10.6433 11.279L4.3934 4.3934L11.279 10.6433L6.18322 2.86475L12.0063 10.1148L8.19014 1.6349L12.8074 9.70664L10.3647 0.734152L13.6625 9.42882L12.6535 0.184675L14.5505 9.28817L15 0Z" fill="white"/>
  </symbol>

  <symbol id="asterisk" viewBox="0 0 19 18" fill="none">
    <path d="M9.95 6.28711L13.45 0.0871083L15.55 1.23711L11.9 7.48711H19V9.78711L11.9 9.73711L15.55 15.9871L13.45 17.1871L9.95 10.9371L6.45 17.1871L4.3 15.9871L8 9.73711L0.899998 9.78711V7.48711L8 7.48711L4.3 1.23711L6.45 0.0871083L9.95 6.28711Z" fill="#D73B30"/>
  </symbol>

  <symbol id="link-arrow" viewBox="0 0 40 7" fill="none">
    <path d="M0 1H37.5L29 6" stroke="white"/>
  </symbol>

  <symbol id="cross" viewBox="0 0 24 24" fill="none">
    <path d="M13.4071 12.0067L23.6948 1.71891C24.0919 1.33543 24.1029 0.702708 23.7194 0.305643C23.336 -0.0914223 22.7032 -0.102432 22.3062 0.281046C22.2979 0.289069 22.2897 0.297268 22.2816 0.305643L11.9937 10.5934L1.70593 0.305584C1.30887 -0.077894 0.676138 -0.0668839 0.29266 0.330181C-0.0814481 0.717524 -0.0814481 1.33157 0.29266 1.71891L10.5805 12.0067L0.29266 22.2945C-0.0975533 22.6848 -0.0975533 23.3175 0.29266 23.7078C0.682931 24.0979 1.31566 24.0979 1.70593 23.7078L11.9937 13.42L22.2815 23.7078C22.6786 24.0912 23.3113 24.0802 23.6948 23.6832C24.0688 23.2958 24.0688 22.6818 23.6948 22.2945L13.4071 12.0067Z" fill="white"/>
  </symbol>

  <symbol id="radio-1" viewBox="0 0 21 20" fill="none">
    <rect x="1" y="0.5" width="19" height="19" stroke="#D73B30"/>
  </symbol>

  <symbol id="radio-2" viewBox="0 0 21 20" fill="none">
    <rect x="5.5" y="5" width="10" height="10" fill="#EE8D03"/>
  </symbol>

  <symbol id="arrow-right-link" viewBox="0 0 45 33" fill="none">
    <path d="M44.7071 17.7071C45.0976 17.3166 45.0976 16.6834 44.7071 16.2929L38.3431 9.92893C37.9526 9.53841 37.3195 9.53841 36.9289 9.92893C36.5384 10.3195 36.5384 10.9526 36.9289 11.3431L42.5858 17L36.9289 22.6569C36.5384 23.0474 36.5384 23.6805 36.9289 24.0711C37.3195 24.4616 37.9526 24.4616 38.3431 24.0711L44.7071 17.7071ZM14 18L44 18L44 16L14 16L14 18Z" fill="white"/>
  </symbol>

  <symbol id="circle-link-yellow" viewBox="0 0 33 33">
    <circle cx="16.5" cy="16.5" r="16.5" fill="#EE8D03"/>
  </symbol>

  <symbol id="circle-link-blue" viewBox="0 0 33 33" fill="none">
    <circle cx="16.5" cy="16.5" r="16.5" fill="#1D2688"/>
  </symbol>

  <symbol id="circle-link-red" viewBox="0 0 33 33" fill="none">
    <circle cx="16.5" cy="16.5" r="16.5" fill="#D73B30"/>
  </symbol>
</svg>
