<svg xmlns="http://www.w3.org/2000/svg">
  <symbol id="figure-0" viewBox="0 0 231 190" fill="none">
    <path d="M51.1144 67.9475L67.2084 126.018L8.87075 110.921L51.1144 67.9475Z" fill="#EE8D03"/>
    <path d="M24.7856 108.353L65.815 66.6153L81.4464 123.017L24.7856 108.353Z" stroke="white"/>
    <path d="M201.992 98.1696C197.63 50.5711 -42.0884 23.5252 49.2386 15.1551C140.566 6.78506 218.137 38.586 222.5 86.1845C226.862 133.783 156.363 179.154 65.0362 187.525C-26.2909 195.895 206.355 145.768 201.992 98.1696Z" fill="#D73B30"/>
    <path d="M35 32V72" stroke="white" stroke-width="2" stroke-dasharray="7 7"/>
    <path d="M42.5542 132.263L53.0665 170.524" stroke="white" stroke-width="2" stroke-dasharray="7 7"/>
  </symbol>

  <symbol id="figure-2" viewBox="0 0 84 70" fill="none">
    <path d="M18.6353 24.7728L24.503 45.9447L3.23373 40.4403L18.6353 24.7728Z" fill="#1D2688"/>
    <path d="M9.65053 39.3346L23.8378 24.9023L29.243 44.405L9.65053 39.3346Z" stroke="white"/>
    <path d="M73.6435 35.7916C72.053 18.4377 -15.3456 8.57711 17.9512 5.52548C51.248 2.47384 79.5297 14.0681 81.1202 31.4219C82.7107 48.7758 57.0076 65.3177 23.7108 68.3693C-9.58595 71.421 75.234 53.1454 73.6435 35.7916Z" fill="#D73B30"/>
    <path d="M12.7891 11.6361V26.1026" stroke="white" stroke-width="2" stroke-dasharray="7 7"/>
    <path d="M15.5156 48.2216L19.3483 62.1711" stroke="white" stroke-width="2" stroke-dasharray="7 7"/>
  </symbol>

  <symbol id="figure-1" viewBox="0 0 281 259" fill="none">
    <path d="M51.842 209.159L80.0849 158.238L39.961 200.437L75.8222 154.56L29.5909 189.963L72.1872 150.261L20.9869 177.996L69.2696 145.446L14.3609 164.83L67.141 140.234L9.87604 150.79L65.854 134.753L7.6428 136.221L65.4402 129.139L7.71612 121.482L65.9099 123.529L10.0942 106.936L67.2513 118.061L14.7185 92.9411L69.4316 112.87L21.4752 79.8419L72.3971 108.085L30.1978 67.961L76.0746 103.822L40.6717 57.5909L80.3737 100.187L52.6388 48.9869L85.1885 97.2696L65.8046 42.3609L90.4004 95.141L79.8448 37.876L95.8812 93.854L94.4137 35.6428L101.496 93.4402L109.153 35.7161L107.106 93.9098L123.699 38.0942L112.574 95.2513L137.693 42.7185L117.764 97.4316L150.793 49.4752L122.55 100.397L162.674 58.1978L126.812 104.075L173.044 68.6716L130.447 108.374L181.648 80.6388L133.365 113.188L188.274 93.8045L135.494 118.4L192.759 107.845L136.781 123.881L194.992 122.414L137.194 129.496L194.919 137.153L136.725 135.106L192.54 151.699L135.383 140.574L187.916 165.693L133.203 145.764L181.159 178.793L130.238 150.55L172.437 190.674L126.56 154.812L161.963 201.044L122.261 158.447L149.996 209.648L117.446 161.365L136.83 216.274L112.234 163.494L122.79 220.759L106.753 164.781L108.221 222.992L101.139 165.194L93.482 222.918L95.5286 164.725L78.936 220.54L90.0609 163.383L64.9411 215.916L84.8704 161.203L51.842 209.159Z" fill="#232323"/>
    <path d="M106.923 153.786L113.166 142.53L104.297 151.858L112.224 141.717L102.005 149.543L111.42 140.767L100.103 146.897L110.775 139.703L98.6384 143.987L110.305 138.551L97.647 140.884L110.02 137.339L97.1534 137.664L109.929 136.098L97.1696 134.406L110.033 134.858L97.6953 131.19L110.329 133.649L98.7174 128.097L110.811 132.502L100.211 125.202L111.467 131.444L102.139 122.575L112.279 130.502L104.454 120.283L113.23 129.699L107.099 118.381L114.294 129.054L110.009 116.917L115.446 128.583L113.113 115.926L116.657 128.299L116.333 115.432L117.899 128.207L119.591 115.448L119.139 128.311L122.806 115.974L120.347 128.608L125.9 116.996L121.494 129.09L128.795 118.489L122.552 129.745L131.421 120.417L123.494 130.558L133.713 122.733L124.298 131.508L135.615 125.378L124.943 132.572L137.08 128.288L125.413 133.725L138.071 131.391L125.698 134.936L138.565 134.612L125.789 136.177L138.549 137.869L125.685 137.417L138.023 141.085L125.389 138.626L137.001 144.178L124.907 139.773L135.507 147.074L124.252 140.831L133.579 149.7L123.439 141.773L131.264 151.992L122.488 142.576L128.619 153.894L121.424 143.221L125.709 155.358L120.272 143.692L122.605 156.35L119.061 143.976L119.385 156.843L117.82 144.068L116.127 156.827L116.58 143.964L112.912 156.301L115.371 143.667L109.819 155.279L114.224 143.186L106.923 153.786Z" fill="white"/>
    <path d="M265.5 108L280.655 173.25H250.345L265.5 108Z" fill="#D73B30"/>
    <path d="M228 136L242.722 202H213.277L228 136Z" fill="#EE8D03"/>
    <path d="M216 108L230.722 173.25H201.277L216 108Z" fill="#1D2688"/>
  </symbol>

  <symbol id="figure-3" viewBox="0 0 84 70" fill="none">
    <path d="M18.6353 24.7728L24.503 45.9447L3.23374 40.4403L18.6353 24.7728Z" fill="#EE8D03"/>
    <path d="M9.65053 39.3346L23.8378 24.9023L29.243 44.405L9.65053 39.3346Z" stroke="#222222"/>
    <path d="M73.6435 35.7916C72.053 18.4377 -15.3456 8.57709 17.9512 5.52546C51.248 2.47383 79.5297 14.0681 81.1202 31.4219C82.7107 48.7758 57.0076 65.3177 23.7108 68.3693C-9.58595 71.421 75.234 53.1454 73.6435 35.7916Z" fill="#1D2688"/>
    <path d="M12.7891 11.6361V26.1025" stroke="white" stroke-width="2" stroke-dasharray="7 7"/>
    <path d="M15.5156 48.2215L19.3483 62.171" stroke="white" stroke-width="2" stroke-dasharray="7 7"/>
  </symbol>

  <symbol id="figure-4" viewBox="0 0 113 62" fill="none">
    <circle cx="47.016" cy="27.5199" r="27.5199" fill="#D73B30"/>
    <path d="M99.3536 17.0635C99.5488 16.8683 99.5488 16.5517 99.3536 16.3564L96.1716 13.1744C95.9763 12.9792 95.6597 12.9792 95.4645 13.1744C95.2692 13.3697 95.2692 13.6863 95.4645 13.8815L98.2929 16.71L95.4645 19.5384C95.2692 19.7337 95.2692 20.0502 95.4645 20.2455C95.6597 20.4408 95.9763 20.4408 96.1716 20.2455L99.3536 17.0635ZM69 17.21H99V16.21H69V17.21Z" fill="white"/>
    <path d="M112.354 26.0635C112.549 25.8683 112.549 25.5517 112.354 25.3564L109.172 22.1744C108.976 21.9792 108.66 21.9792 108.464 22.1744C108.269 22.3697 108.269 22.6863 108.464 22.8815L111.293 25.71L108.464 28.5384C108.269 28.7337 108.269 29.0502 108.464 29.2455C108.66 29.4408 108.976 29.4408 109.172 29.2455L112.354 26.0635ZM82 26.21H112V25.21H82V26.21Z" fill="#EE8D03"/>
    <path d="M24.5348 41.5668L24.5466 41.5906L24.5581 41.6147L24.5695 41.6389L24.5805 41.6634L24.5913 41.6882L24.6019 41.7131L24.6122 41.7383L24.6222 41.7637L24.632 41.7893L24.6415 41.8151L24.6507 41.8411L24.6597 41.8673L24.6684 41.8938L24.6768 41.9204L24.6849 41.9473L24.6927 41.9743L24.7002 42.0015L24.7074 42.0289L24.7143 42.0565L24.721 42.0843L24.7273 42.1123L24.7333 42.1405L24.739 42.1688L24.7444 42.1973L24.7495 42.2259L24.7542 42.2548L24.7587 42.2837L24.7628 42.3129L24.7666 42.3422L24.77 42.3716L24.7731 42.4012L24.7759 42.4309L24.7784 42.4608L24.7805 42.4908L24.7822 42.5209L24.7837 42.5512L24.7847 42.5816L24.7855 42.6121L24.7858 42.6427L24.7858 42.6734L24.7855 42.7043L24.7848 42.7352L24.7837 42.7662L24.7823 42.7974L24.7805 42.8286L24.7784 42.8599L24.7759 42.8913L24.773 42.9228L24.7697 42.9543L24.7661 42.986L24.762 43.0176L24.7577 43.0494L24.7529 43.0812L24.7477 43.113L24.7422 43.145L24.7363 43.1769L24.73 43.2089L24.7233 43.2409L24.7162 43.273L24.7087 43.3051L24.7009 43.3372L24.6926 43.3693L24.684 43.4014L24.6749 43.4335L24.6655 43.4657L24.6557 43.4978L24.6454 43.53L24.6348 43.5621L24.6238 43.5942L24.6124 43.6263L24.6006 43.6584L24.5883 43.6904L24.5757 43.7224L24.5627 43.7544L24.5493 43.7863L24.5354 43.8181L24.5212 43.85L24.5066 43.8817L24.4915 43.9134L24.4761 43.945L24.4602 43.9766L24.444 44.0081L24.4273 44.0395L24.4103 44.0708L24.3928 44.102L24.3749 44.1331L24.3567 44.1641L24.338 44.195L24.3189 44.2258L24.2995 44.2565L24.2796 44.2871L24.2593 44.3175L24.2386 44.3478L24.2175 44.3779L24.1961 44.408L24.1742 44.4378L24.1519 44.4676L24.1292 44.4971L24.1062 44.5265L24.0827 44.5558L24.0589 44.5848L24.0346 44.6137L24.01 44.6424L23.9849 44.671L23.9595 44.6993L23.9337 44.7274L23.9075 44.7554L23.8809 44.7831L23.854 44.8106L23.8266 44.838L23.7989 44.865L23.7708 44.8919L23.7423 44.9186L23.7134 44.945L23.6842 44.9711L23.6546 44.997L23.6246 45.0227L23.5943 45.0481L23.5636 45.0733L23.5325 45.0982L23.5011 45.1228L23.4693 45.1472L23.4372 45.1713L23.4047 45.1951L23.3719 45.2186L23.3387 45.2418L23.3051 45.2647L23.2713 45.2873L23.237 45.3097L23.2025 45.3317L23.1676 45.3534L23.1323 45.3748L23.0968 45.3958L23.0609 45.4166L23.0247 45.437L22.9882 45.4571L22.9513 45.4768L22.9142 45.4962L22.8767 45.5152L22.8389 45.5339L22.8009 45.5522L22.7625 45.5702L22.7238 45.5878L22.6848 45.605L22.6456 45.6219L22.606 45.6384L22.5662 45.6545L22.5261 45.6702L22.4857 45.6856L22.445 45.7005L22.4041 45.715L22.3629 45.7292L22.3215 45.7429L22.2798 45.7563L22.2378 45.7692L22.1956 45.7817L22.1532 45.7938L22.1105 45.8054L22.0676 45.8167L22.0245 45.8275L21.9811 45.8378L21.9375 45.8478L21.8937 45.8573L21.8497 45.8663L21.8054 45.8749L21.761 45.8831L21.7164 45.8908L21.6715 45.898L21.6265 45.9048L21.5813 45.9112L21.5359 45.917L21.4904 45.9224L21.4447 45.9274L21.3988 45.9318L21.3527 45.9358L21.3065 45.9393L21.2602 45.9423L21.2137 45.9448L21.167 45.9469L21.1203 45.9484L21.0734 45.9495L21.0263 45.95L20.9792 45.9501L20.9319 45.9497L20.8846 45.9488L20.8371 45.9473L20.7895 45.9454L20.7419 45.9429L20.6941 45.94L20.6463 45.9365L20.5984 45.9325L20.5504 45.928L20.5024 45.923L20.4543 45.9175L20.4061 45.9114L20.358 45.9049L20.3097 45.8978L20.2614 45.8901L20.2131 45.882L20.1648 45.8733L20.1165 45.8641L20.0681 45.8544L20.0198 45.8441L19.9714 45.8333L19.923 45.822L19.8747 45.8101L19.8264 45.7977L19.7781 45.7847L19.7298 45.7713L19.6815 45.7572L19.6333 45.7427L19.5852 45.7276L19.5371 45.712L19.489 45.6958L19.441 45.6791L19.3931 45.6618L19.3453 45.644L19.2976 45.6257L19.2499 45.6068L19.2023 45.5874L19.1549 45.5674L19.1075 45.5469L19.0603 45.5259L19.0132 45.5043L18.9662 45.4821L18.9193 45.4595L18.8726 45.4363L18.8261 45.4125L18.7796 45.3882L18.7334 45.3634L18.6873 45.338L18.6413 45.3122L18.5956 45.2857L18.55 45.2587L18.5046 45.2312L18.4594 45.2032L18.4145 45.1746L18.3697 45.1455L18.3251 45.1159L18.2808 45.0858L18.2366 45.0551L18.1928 45.0239L18.1491 44.9921L18.1057 44.9599L18.0625 44.9271L18.0196 44.8938L17.977 44.86L17.9346 44.8257L17.8925 44.7909L17.8507 44.7555L17.8092 44.7197L17.768 44.6833L17.7271 44.6465L17.6864 44.6091L17.6461 44.5712L17.6061 44.5329L17.5664 44.494L17.5271 44.4547L17.4881 44.4148L17.4494 44.3745L17.4111 44.3337L17.3731 44.2924L17.3355 44.2506L17.2983 44.2084L17.2614 44.1657L17.2249 44.1225L17.1888 44.0788L17.1531 44.0347L17.1177 43.9902L17.0828 43.9451L17.0483 43.8997L17.0141 43.8537L16.9804 43.8074L16.9472 43.7606L16.9143 43.7133L16.8819 43.6656L16.8499 43.6175L16.8183 43.569L16.7873 43.52L16.7566 43.4707L16.7264 43.4209L16.6967 43.3707L16.6675 43.3201L16.6387 43.2691L16.6104 43.2177L16.5826 43.1659L16.5553 43.1137L16.5285 43.0611L16.5022 43.0082L16.4763 42.9549L16.451 42.9012L16.4263 42.8472L16.402 42.7927L16.3782 42.738L16.355 42.6829L16.3324 42.6274L16.3102 42.5716L16.2886 42.5155L16.2676 42.4591L16.2471 42.4023L16.2271 42.3452L16.2078 42.2878L16.1889 42.2301L16.1707 42.172L16.153 42.1137L16.1359 42.0551L16.1194 41.9962L16.1035 41.9371L16.0882 41.8776L16.0734 41.8179L16.0593 41.758L16.0457 41.6977L16.0328 41.6373L16.0205 41.5765L16.0087 41.5156L15.9976 41.4544L15.9872 41.393L15.9773 41.3313L15.9681 41.2695L15.9595 41.2074L15.9515 41.1452L15.9442 41.0827L15.9375 41.0201L15.9314 40.9573L15.926 40.8943L15.9213 40.8311L15.9172 40.7678L15.9137 40.7043L15.9109 40.6407L15.9088 40.5769L15.9073 40.513L15.9065 40.449L15.9064 40.3849L15.9069 40.3206L15.9081 40.2562L15.91 40.1918L15.9125 40.1272L15.9157 40.0625L15.9196 39.9978L15.9242 39.933L15.9295 39.8681L15.9354 39.8032L15.9421 39.7382L15.9494 39.6732L15.9574 39.6081L15.9661 39.543L15.9755 39.4779L15.9856 39.4128L15.9964 39.3477L16.0079 39.2825L16.0201 39.2174L16.033 39.1523L16.0466 39.0872L16.0609 39.0221L16.0759 38.9571L16.0916 38.8921L16.1079 38.8272L16.125 38.7623L16.1428 38.6975L16.1613 38.6327L16.1806 38.5681L16.2005 38.5035L16.2211 38.439L16.2424 38.3747L16.2644 38.3104L16.2872 38.2463L16.3106 38.1823L16.3348 38.1184L16.3596 38.0546L16.3852 37.9911L16.4114 37.9276L16.4384 37.8644L16.466 37.8013L16.4944 37.7383L16.5234 37.6756L16.5532 37.6131L16.5836 37.5508L16.6148 37.4886L16.6466 37.4267L16.6792 37.3651L16.7124 37.3036L16.7463 37.2424L16.7809 37.1814L16.8162 37.1207L16.8522 37.0603L16.8889 37.0001L16.9263 36.9403L16.9643 36.8807L17.003 36.8213L17.0424 36.7623L17.0825 36.7036L17.1232 36.6453L17.1646 36.5872L17.2067 36.5295L17.2495 36.4721L17.2929 36.415L17.3369 36.3583L17.3817 36.302L17.427 36.2461L17.4731 36.1905L17.5197 36.1353L17.5671 36.0805L17.615 36.026L17.6636 35.972L17.7129 35.9184L17.7627 35.8652L17.8132 35.8125L17.8644 35.7602L17.9161 35.7083L17.9685 35.6569L18.0214 35.6059L18.075 35.5554L18.1292 35.5053L18.184 35.4558L18.2394 35.4067L18.2954 35.3581L18.3519 35.31L18.4091 35.2624L18.4668 35.2153L18.5251 35.1687L18.584 35.1227L18.6434 35.0772L18.7034 35.0322L18.764 34.9877L18.8251 34.9439L18.8868 34.9005L18.949 34.8578L19.0117 34.8156L19.075 34.774L19.1388 34.7329L19.2031 34.6925L19.2679 34.6526L19.3332 34.6134L19.399 34.5747L19.4654 34.5367L19.5322 34.4993L19.5995 34.4625L19.6673 34.4263L19.7356 34.3908L19.8043 34.3559L19.8735 34.3217L19.9431 34.2881L20.0132 34.2552L20.0837 34.2229L20.1547 34.1914L20.2261 34.1605L20.298 34.1302L20.3702 34.1007L20.4428 34.0719L20.5159 34.0437L20.5894 34.0163L20.6632 33.9895L20.7374 33.9635L20.812 33.9382L20.887 33.9136L20.9623 33.8897L21.038 33.8666L21.114 33.8442L21.1904 33.8226L21.2671 33.8017L21.3442 33.7815L21.4215 33.7621L21.4992 33.7435L21.5771 33.7256L21.6554 33.7085L21.7339 33.6922L21.8128 33.6766L21.8919 33.6618L21.9712 33.6478L22.0508 33.6346L22.1307 33.6222L22.2108 33.6105L22.2911 33.5997L22.3717 33.5897L22.4525 33.5804L22.5335 33.572L22.6147 33.5644L22.696 33.5576L22.7776 33.5516L22.8593 33.5465L22.9412 33.5421L23.0233 33.5386L23.1055 33.5359L23.1879 33.5341L23.2703 33.533L23.353 33.5329L23.4357 33.5335L23.5185 33.535L23.6014 33.5373L23.6845 33.5405L23.7676 33.5446L23.8507 33.5494L23.934 33.5552L24.0173 33.5617L24.1006 33.5692L24.184 33.5775L24.2674 33.5866L24.3508 33.5966L24.4342 33.6075L24.5176 33.6192L24.6011 33.6318L24.6845 33.6452L24.7679 33.6596L24.8512 33.6747L24.9345 33.6908L25.0177 33.7077L25.1009 33.7255L25.184 33.7441L25.2671 33.7636L25.35 33.784L25.4328 33.8053L25.5156 33.8274L25.5982 33.8503L25.6807 33.8742L25.763 33.8989L25.8452 33.9245L25.9273 33.951L26.0092 33.9783L26.0909 34.0065L26.1724 34.0355L26.2538 34.0654L26.3349 34.0962L26.4158 34.1278L26.4966 34.1603L26.577 34.1937L26.6573 34.2279L26.7373 34.263L26.817 34.2989L26.8965 34.3357L26.9757 34.3733L27.0546 34.4118L27.1332 34.4511L27.2116 34.4913L27.2896 34.5324L27.3673 34.5742L27.4446 34.6169L27.5216 34.6605L27.5983 34.7049L27.6746 34.7501L27.7506 34.7961L27.8261 34.843L27.9013 34.8907L27.9761 34.9392L28.0505 34.9886L28.1245 35.0387L28.198 35.0897L28.2712 35.1415L28.3439 35.194L28.4161 35.2474L28.4879 35.3016L28.5592 35.3566L28.63 35.4123L28.7004 35.4689L28.7703 35.5262L28.8396 35.5843L28.9085 35.6432L28.9768 35.7029L29.0446 35.7633L29.1119 35.8245L29.1787 35.8864L29.2448 35.9491L29.3105 36.0125L29.3755 36.0767L29.44 36.1416L29.5039 36.2073L29.5672 36.2736L29.6299 36.3407L29.6919 36.4086L29.7534 36.4771L29.8142 36.5463L29.8744 36.6162L29.934 36.6869L29.9929 36.7582L30.0511 36.8302L30.1087 36.9028L30.1656 36.9762L30.2218 37.0502L30.2774 37.1248L30.3322 37.2002L30.3863 37.2761L30.4398 37.3527L30.4925 37.4299L30.5444 37.5078L30.5957 37.5863L30.6462 37.6654L30.6959 37.745L30.7449 37.8253L30.7931 37.9062L30.8405 37.9877L30.8872 38.0697L30.9331 38.1523L30.9782 38.2355L31.0225 38.3192L31.066 38.4035L31.1087 38.4883L31.1505 38.5737L31.1916 38.6595L31.2318 38.7459L31.2712 38.8328L31.3097 38.9202L31.3474 39.0081L31.3842 39.0964L31.4202 39.1853L31.4553 39.2746L31.4895 39.3644L31.5228 39.4546L31.5553 39.5453L31.5869 39.6364L31.6175 39.7279L31.6473 39.8198L31.6762 39.9122L31.7041 40.0049L31.7312 40.098L31.7573 40.1916L31.7825 40.2854L31.8067 40.3797L31.83 40.4743L31.8524 40.5692L31.8739 40.6645L31.8943 40.7601L31.9139 40.8561L31.9325 40.9523L31.9501 41.0488L31.9667 41.1456L31.9824 41.2427L31.9971 41.3401L32.0108 41.4377L32.0235 41.5356L32.0353 41.6337L32.046 41.7321L32.0558 41.8306L32.0645 41.9294L32.0723 42.0284L32.0791 42.1276L32.0848 42.2269L32.0896 42.3264L32.0933 42.4261L32.096 42.5259L32.0977 42.6259L32.0984 42.726L32.0981 42.8262L32.0967 42.9265L32.0943 43.027L32.0909 43.1275L32.0864 43.2281L32.0809 43.3287L32.0744 43.4294L32.0668 43.5302L32.0582 43.631L32.0486 43.7318L32.0379 43.8327L32.0262 43.9335L32.0134 44.0343L31.9996 44.1352L31.9848 44.2359L31.9689 44.3367L31.9519 44.4374L31.9339 44.538L31.9149 44.6386L31.8948 44.7391L31.8736 44.8395L31.8514 44.9398L31.8282 45.04L31.8039 45.14L31.7786 45.24L31.7522 45.3397L31.7248 45.4394L31.6963 45.5388L31.6667 45.6381L31.6362 45.7372L31.6045 45.836L31.5719 45.9347L31.5382 46.0332L31.5034 46.1314L31.4676 46.2293L31.4308 46.3271L31.3929 46.4245L31.354 46.5217L31.3141 46.6186L31.2731 46.7152L31.2311 46.8114L31.1881 46.9074L31.1441 47.003L31.099 47.0983L31.0529 47.1932L31.0058 47.2878L30.9576 47.382L30.9085 47.4758L30.8583 47.5692L30.8072 47.6623L30.755 47.7549L30.7018 47.847L30.6477 47.9388L30.5925 48.03L30.5364 48.1209L30.4793 48.2112L30.4211 48.3011L30.362 48.3905L30.302 48.4794L30.2409 48.5678L30.1789 48.6556L30.116 48.7429L30.0521 48.8297L29.9872 48.9159L29.9214 49.0016L29.8546 49.0867L29.7869 49.1712L29.7183 49.2551L29.6487 49.3384L29.5782 49.4211L29.5068 49.5032L29.4345 49.5846L29.3613 49.6654L29.2872 49.7456L29.2122 49.8251L29.1363 49.9039L29.0595 49.982L28.9818 50.0594L28.9033 50.1362L28.8239 50.2122L28.7437 50.2875L28.6626 50.3621L28.5807 50.4359L28.4979 50.509L28.4143 50.5813L28.3298 50.6529L28.2446 50.7236L28.1586 50.7936L28.0717 50.8628L27.9841 50.9313L27.8956 50.9988L27.8064 51.0656L27.7164 51.1315L27.6257 51.1967L27.5342 51.2609L27.4419 51.3243L27.3489 51.3868L27.2552 51.4485L27.1608 51.5093L27.0656 51.5692L26.9698 51.6282L26.8732 51.6863L26.776 51.7435L26.678 51.7997L26.5794 51.8551L26.4802 51.9095L26.3803 51.9629L26.2797 52.0154L26.1785 52.067L26.0767 52.1176L25.9743 52.1672L25.8712 52.2158L25.7676 52.2634L25.6634 52.3101L25.5585 52.3557L25.4532 52.4004L25.3472 52.444L25.2408 52.4866L25.1337 52.5282L25.0262 52.5687L24.9181 52.6082L24.8095 52.6467L24.7005 52.684L24.5909 52.7204L24.4809 52.7557L24.3704 52.7899L24.2594 52.823L24.148 52.855L24.0362 52.886L23.9239 52.9159L23.8112 52.9446L23.6981 52.9723L23.5847 52.9988L23.4708 53.0243L23.3566 53.0486L23.242 53.0718L23.1271 53.0939L23.0118 53.1148L22.8962 53.1346L22.7804 53.1532L22.6642 53.1708L22.5477 53.1871L22.4309 53.2023L22.3139 53.2164L22.1966 53.2293L22.079 53.241L21.9613 53.2515L21.8433 53.2609L21.7251 53.2691L21.6067 53.2761L21.4882 53.282L21.3694 53.2866L21.2505 53.2901L21.1315 53.2924L21.0123 53.2935L20.893 53.2934L20.7736 53.2921L20.654 53.2896L20.5344 53.2859L20.4148 53.2809L20.295 53.2748L20.1752 53.2675L20.0554 53.259L19.9355 53.2492L19.8157 53.2383L19.6958 53.2261L19.5759 53.2127L19.4561 53.1981L19.3363 53.1823L19.2165 53.1653L19.0969 53.147L18.9773 53.1276L18.8577 53.1069L18.7383 53.085L18.619 53.0618L18.4998 53.0375L18.3808 53.0119L18.2619 52.9852L18.1431 52.9572L18.0246 52.928L17.9062 52.8975L17.788 52.8659L17.6701 52.833L17.5523 52.799L17.4348 52.7637L17.3176 52.7272L17.2006 52.6895L17.0839 52.6505L16.9675 52.6104L16.8514 52.5691L16.7356 52.5266L16.6201 52.4829L16.505 52.4379L16.3902 52.3918L16.2758 52.3445L16.1618 52.296L16.0482 52.2463L15.9349 52.1954L15.8221 52.1434L15.7097 52.0901L15.5977 52.0357L15.4862 51.9801L15.3752 51.9234L15.2646 51.8655L15.1546 51.8064L15.045 51.7461L14.9359 51.6848L14.8274 51.6222L14.7194 51.5585L14.612 51.4937L14.5051 51.4278L14.3988 51.3607L14.2931 51.2925L14.188 51.2231L14.0835 51.1527L13.9796 51.0811L13.8764 51.0085L13.7738 50.9347L13.6718 50.8598L13.5706 50.7839L13.47 50.7069L13.3701 50.6288L13.2709 50.5496L13.1725 50.4694L13.0747 50.3881L12.9777 50.3057L12.8815 50.2223L12.786 50.1379L12.6913 50.0524L12.5974 49.9659L12.5043 49.8784L12.412 49.7899L12.3205 49.7004L12.2298 49.6099L12.14 49.5184L12.051 49.4259L11.9629 49.3325L11.8757 49.2381L11.7894 49.1427L11.7039 49.0464L11.6194 48.9491L11.5357 48.8509L11.453 48.7518L11.3712 48.6518L11.2904 48.5508L11.2106 48.449L11.1316 48.3463L11.0537 48.2427L10.9768 48.1382L10.9008 48.0329L10.8259 47.9267L10.752 47.8197L10.6791 47.7118L10.6072 47.6031L10.5364 47.4936L10.4666 47.3833L10.3979 47.2722L10.3303 47.1604L10.2637 47.0477L10.1982 46.9343L10.1339 46.8202L10.0706 46.7053L10.0084 46.5896L9.94741 46.4733L9.88751 46.3562L9.82875 46.2384L9.77113 46.12L9.71467 46.0008L9.65937 45.881L9.60525 45.7606L9.5523 45.6395L9.50054 45.5178L9.44997 45.3954L9.4006 45.2725L9.35244 45.1489L9.30549 45.0248L9.25977 44.9L9.21527 44.7748L9.17201 44.6489L9.13 44.5226L9.08923 44.3957L9.04972 44.2683L9.01147 44.1404L8.97448 44.0119L8.93877 43.8831L8.90434 43.7537L8.8712 43.6239L8.83934 43.4937L8.80878 43.363L8.77953 43.232L8.75158 43.1005L8.72495 42.9686L8.69963 42.8364L8.67563 42.7038L8.65296 42.5708L8.63163 42.4375L8.61163 42.3039L8.59297 42.17L8.57566 42.0358L8.55969 41.9013L8.54508 41.7665L8.53182 41.6314L8.51993 41.4962L8.5094 41.3607L8.50024 41.2249L8.49244 41.089L8.48603 40.9529L8.48099 40.8166L8.47733 40.6802L8.47505 40.5436L8.47416 40.4068L8.47465 40.27L8.47654 40.133L8.47982 39.996L8.48449 39.8589L8.49056 39.7217L8.49803 39.5844L8.50689 39.4472L8.51716 39.3099L8.52883 39.1725L8.5419 39.0352L8.55638 38.898L8.57227 38.7607L8.58956 38.6235L8.60826 38.4864L8.62836 38.3493L8.64987 38.2124L8.67279 38.0755L8.69712 37.9388L8.72286 37.8022L8.75 37.6657L8.77855 37.5294L8.80851 37.3933L8.83988 37.2574L8.87264 37.1217L8.90681 36.9862L8.94239 36.8509L8.97937 36.7159L9.01774 36.5811L9.05752 36.4466L9.09869 36.3125L9.14125 36.1786L9.18521 36.045L9.23056 35.9118L9.2773 35.7789L9.32542 35.6464L9.37493 35.5143L9.42581 35.3825L9.47808 35.2512L9.53171 35.1203L9.58672 34.9898L9.6431 34.8598L9.70084 34.7302L9.75994 34.6011L9.82039 34.4725L9.8822 34.3444L9.94536 34.2168L10.0099 34.0898L10.0757 33.9633L10.1429 33.8373L10.2114 33.712L10.2812 33.5872L10.3524 33.463L10.4248 33.3394L10.4986 33.2165L10.5737 33.0942L10.6501 32.9726L10.7278 32.8516L10.8067 32.7313L10.887 32.6118L10.9685 32.4929L11.0513 32.3747L11.1353 32.2573L11.2206 32.1407L11.3072 32.0248L11.395 31.9096L11.484 31.7953L11.5743 31.6818L11.6658 31.5691L11.7585 31.4572L11.8524 31.3462L11.9475 31.236L12.0438 31.1267L12.1412 31.0182L12.2399 30.9107L12.3397 30.804L12.4407 30.6983L12.5428 30.5935L12.6461 30.4897L12.7505 30.3868L12.856 30.2849L12.9626 30.1839L13.0704 30.0839L13.1792 29.985L13.2891 29.887L13.4001 29.7901L13.5122 29.6942L13.6253 29.5994L13.7395 29.5056L13.8547 29.4129L13.9709 29.3213L14.0881 29.2308L14.2064 29.1413L14.3256 29.053L14.4459 28.9659L14.5671 28.8798L14.6893 28.7949L14.8124 28.7112L14.9365 28.6286L15.0614 28.5472L15.1874 28.467L15.3142 28.388L15.4419 28.3102L15.5705 28.2337L15.7 28.1583L15.8303 28.0842L15.9615 28.0114L16.0935 27.9398L16.2263 27.8694L16.36 27.8004L16.4945 27.7326L16.6297 27.6661L16.7657 27.601L16.9025 27.5371L17.04 27.4746L17.1783 27.4134L17.3172 27.3535L17.4569 27.295L17.5973 27.2378L17.7384 27.182L17.8801 27.1275L18.0225 27.0745L18.1655 27.0228L18.3092 26.9725L18.4535 26.9236L18.5984 26.8761L18.7438 26.8301L18.8899 26.7854L19.0365 26.7422L19.1836 26.7004L19.3313 26.6601L19.4795 26.6212L19.6282 26.5837L19.7773 26.5478L19.927 26.5132L20.0771 26.4802L20.2277 26.4486L20.3786 26.4185L20.53 26.3899L20.6818 26.3628L20.834 26.3372L20.9866 26.3131L21.1395 26.2905L21.2927 26.2694L21.4463 26.2498L21.6001 26.2318L21.7543 26.2152L21.9088 26.2003L22.0635 26.1868L22.2184 26.1749L22.3736 26.1645L22.529 26.1556L22.6846 26.1483L22.8404 26.1426L22.9964 26.1384L23.1525 26.1357L23.3087 26.1347L23.4651 26.1351L23.6216 26.1372L23.7781 26.1408L23.9348 26.146L24.0915 26.1527L24.2482 26.161L24.405 26.1709L24.5618 26.1824L24.7185 26.1954L24.8753 26.21L25.032 26.2262L25.1887 26.244L25.3453 26.2633L25.5018 26.2843L25.6582 26.3068L25.8145 26.3308L25.9706 26.3565L26.1266 26.3837L26.2824 26.4126L26.4381 26.4429L26.5935 26.4749L26.7488 26.5085L26.9038 26.5436L27.0585 26.5803L27.213 26.6185L27.3672 26.6584L27.5211 26.6998L27.6747 26.7427L27.828 26.7873L27.981 26.8334L28.1335 26.881L28.2857 26.9302L28.4375 26.981L28.5889 27.0333L28.7399 27.0872L28.8904 27.1426L29.0404 27.1996L29.19 27.2581L29.3391 27.3181L29.4877 27.3797L29.6358 27.4428L29.7833 27.5074L29.9303 27.5735L30.0767 27.6411L30.2225 27.7103L30.3678 27.7809L30.5124 27.8531L30.6563 27.9267L30.7997 28.0019L30.9423 28.0785L31.0843 28.1566L31.2256 28.2362L31.3662 28.3172L31.506 28.3997L31.6452 28.4837L31.7835 28.5691L31.9211 28.6559L32.0579 28.7442L32.1939 28.8339L32.3291 28.925L32.4634 29.0175L32.5969 29.1114L32.7296 29.2068L32.8614 29.3035L32.9922 29.4016L33.1222 29.501L33.2513 29.6019L33.3794 29.7041L33.5065 29.8076L33.6327 29.9125L33.758 30.0187L33.8822 30.1262L34.0054 30.2351L34.1276 30.3453L34.2488 30.4567L34.3689 30.5694L34.488 30.6834L34.606 30.7987L34.7229 30.9152L34.8387 31.033L34.9534 31.152L35.0669 31.2723L35.1793 31.3937L35.2906 31.5164L35.4007 31.6402L35.5096 31.7652L35.6173 31.8914L35.7238 32.0188L35.8291 32.1473L35.9331 32.2769L36.0359 32.4077L36.1375 32.5396L36.2377 32.6725L36.3367 32.8066L36.4344 32.9417L36.5308 33.078L36.6259 33.2152L36.7197 33.3535L36.8121 33.4928L36.9032 33.6332L36.9929 33.7745L37.0812 33.9169L37.1682 34.0602L37.2537 34.2045L37.3379 34.3497L37.4206 34.4958L37.5019 34.6429L37.5818 34.7909L37.6602 34.9398L37.7372 35.0895L37.8127 35.2402L37.8867 35.3916L37.9593 35.544L38.0303 35.6971L38.0998 35.851L38.1679 36.0058L38.2344 36.1613L38.2993 36.3176L38.3628 36.4746L38.4246 36.6324L38.485 36.7909L38.5437 36.9501L38.6009 37.11L38.6565 37.2705L38.7105 37.4318L38.7629 37.5936L38.8137 37.7561L38.8629 37.9192L38.9105 38.0829L38.9564 38.2472L39.0008 38.412L39.0434 38.5774L39.0844 38.7433L39.1238 38.9098L39.1615 39.0767L39.1976 39.2441L39.2319 39.412L39.2646 39.5804L39.2956 39.7491L39.325 39.9183L39.3526 40.0879L39.3785 40.2579L39.4027 40.4282L39.4252 40.5989L39.446 40.7699L39.4651 40.9413L39.4825 41.1129L39.4981 41.2848L39.512 41.457L39.5242 41.6295L39.5346 41.8021L39.5433 41.975L39.5502 42.1481L39.5554 42.3213L39.5588 42.4947L39.5605 42.6683L39.5604 42.842L39.5586 43.0158L39.555 43.1896L39.5497 43.3636L39.5426 43.5376L39.5337 43.7117L39.523 43.8857L39.5106 44.0598L39.4964 44.2339L39.4804 44.4079L39.4627 44.5819L39.4432 44.7558L39.4219 44.9296L39.3989 45.1033L39.374 45.2769L39.3474 45.4504L39.3191 45.6237L39.2889 45.7968L39.257 45.9697L39.2233 46.1424L39.1879 46.3149L39.1507 46.4872L39.1117 46.6592L39.0709 46.8309L39.0284 47.0022L38.9841 47.1733L38.9381 47.3441L38.8903 47.5145L38.8407 47.6845L38.7894 47.8541L38.7364 48.0233L38.6816 48.1921L38.625 48.3605L38.5667 48.5283L38.5067 48.6958L38.445 48.8627L38.3815 49.0291L38.3163 49.1949L38.2494 49.3603L38.1808 49.525L38.1104 49.6892L38.0384 49.8528L37.9646 50.0157L37.8892 50.178L37.8121 50.3397L37.7333 50.5007L37.6528 50.661L37.5706 50.8206L37.4868 50.9794L37.4013 51.1376L37.3142 51.2949L37.2254 51.4516L37.135 51.6074L37.0429 51.7624L36.9492 51.9165L36.8539 52.0699L36.757 52.2224L36.6585 52.374L36.5584 52.5247L36.4567 52.6745L36.3535 52.8234L36.2486 52.9713L36.1423 53.1183L36.0343 53.2643L35.9248 53.4093L35.8138 53.5533L35.7012 53.6963L35.5872 53.8383L35.4716 53.9792L35.3546 54.119L35.236 54.2578L35.116 54.3954L34.9945 54.532L34.8716 54.6674L34.7472 54.8017L34.6214 54.9348L34.4941 55.0667L34.3655 55.1974L34.2354 55.3269L34.104 55.4552L33.9712 55.5823L33.837 55.7081L33.7014 55.8327L33.5646 55.956L33.4264 56.078L33.2868 56.1987L33.146 56.318L33.0039 56.4361L32.8605 56.5527L32.7158 56.6681L32.5699 56.782L32.4228 56.8945L32.2744 57.0057L32.1248 57.1154L31.974 57.2238L31.822 57.3306L31.6689 57.436L31.5146 57.54L31.3592 57.6425L31.2026 57.7435L31.0449 57.8429L30.8861 57.9409L30.7262 58.0373L30.5653 58.1322L30.4033 58.2256L30.2403 58.3174L30.0762 58.4076L29.9111 58.4962L29.7451 58.5833L29.5781 58.6687L29.4101 58.7525L29.2411 58.8347L29.0712 58.9153L28.9004 58.9942L28.7288 59.0714L28.5562 59.147L28.3828 59.2209L28.2085 59.2931L28.0334 59.3636L27.8574 59.4324L27.6807 59.4995L27.5032 59.5649L27.3249 59.6286L27.1459 59.6905L26.9662 59.7506L26.7857 59.809L26.6046 59.8656L26.4227 59.9205L26.2402 59.9735L26.0571 60.0248L25.8734 60.0743L25.689 60.122L25.504 60.1679L25.3185 60.2119L25.1324 60.2541L24.9458 60.2945L24.7587 60.3331L24.5711 60.3698L24.383 60.4046L24.1944 60.4376L24.0054 60.4688L23.816 60.4981L23.6262 60.5255L23.436 60.551L23.2454 60.5746L23.0545 60.5964L22.8632 60.6162L22.6716 60.6342L22.4798 60.6503L22.2877 60.6644L22.0953 60.6767L21.9027 60.687L21.7098 60.6955L21.5168 60.702L21.3236 60.7066L21.1303 60.7092L20.9368 60.71L20.7432 60.7088L20.5495 60.7056L20.3557 60.7006L20.1619 60.6936L19.968 60.6847L19.7741 60.6738L19.5802 60.661L19.3863 60.6462L19.1925 60.6295L18.9987 60.6109L18.805 60.5903L18.6114 60.5678L18.418 60.5434L18.2246 60.517L18.0314 60.4886L17.8384 60.4583L17.6456 60.4261L17.4531 60.3919L17.2607 60.3558L17.0686 60.3178L16.8768 60.2778L16.6853 60.2359L16.4941 60.192L16.3033 60.1462L16.1128 60.0985L15.9227 60.0489L15.7329 59.9973L15.5436 59.9438L15.3548 59.8884L15.1663 59.8311L14.9784 59.7719L14.791 59.7108L14.604 59.6477L14.4176 59.5828L14.2318 59.516L14.0465 59.4472L13.8618 59.3766L13.6778 59.3042L13.4943 59.2298L13.3116 59.1536L13.1294 59.0755L12.948 58.9955L12.7673 58.9137L12.5873 58.8301L12.4081 58.7446L12.2296 58.6573L12.0519 58.5681L11.875 58.4771L11.699 58.3844L11.5238 58.2898L11.3494 58.1934L11.1759 58.0952L11.0034 57.9952L10.8317 57.8935L10.661 57.79L10.4912 57.6847L10.3224 57.5777L10.1546 57.469L9.9878 57.3585L9.82203 57.2463L9.6573 57.1323L9.49363 57.0167L9.33105 56.8994L9.16956 56.7804L9.00919 56.6597L8.84995 56.5373L8.69187 56.4133L8.53495 56.2877L8.37922 56.1604L8.22469 56.0315L8.07138 55.901L7.91931 55.7689L7.76849 55.6352L7.61894 55.5L7.47068 55.3631L7.32373 55.2247L7.17809 55.0848L7.03379 54.9434L6.89085 54.8004L6.74927 54.6559L6.60908 54.51L6.47029 54.3626L6.33292 54.2137L6.19697 54.0633L6.06248 53.9116L5.92945 53.7584L5.79789 53.6037L5.66783 53.4478L5.53928 53.2904L5.41225 53.1316L5.28676 52.9715L5.16282 52.8101L5.04044 52.6473L4.91965 52.4833L4.80045 52.3179L4.68286 52.1513L4.5669 51.9834L4.45256 51.8143L4.33988 51.6439L4.22886 51.4723L4.11952 51.2996L4.01187 51.1256L3.90592 50.9505L3.80168 50.7742L3.69917 50.5968L3.5984 50.4183L3.49938 50.2387L3.40213 50.058L3.30665 49.8762L3.21296 49.6934L3.12107 49.5096L3.03098 49.3247L2.94272 49.1389L2.8563 48.9521L2.77171 48.7643L2.68898 48.5756L2.60812 48.3859L2.52913 48.1954L2.45202 48.0039L2.37681 47.8116L2.30351 47.6185L2.23212 47.4245L2.16266 47.2297L2.09512 47.0341L2.02953 46.8377L1.96589 46.6406L1.90421 46.4427L1.8445 46.2441L1.78677 46.0448L1.73102 45.8449L1.67726 45.6443L1.62551 45.443L1.57576 45.2411L1.52803 45.0386L1.48231 44.8356L1.43863 44.632L1.39699 44.4278L1.35738 44.2231L1.31983 44.0179L1.28433 43.8123L1.25089 43.6062L1.21952 43.3996L1.19022 43.1926L1.16299 42.9852L1.13785 42.7775L1.1148 42.5694L1.09384 42.3609L1.07497 42.1521L1.05821 41.9431L1.04355 41.7337L1.031 41.5241L1.02056 41.3143L1.01224 41.1043L1.00604 40.894L1.00196 40.6837L1 40.4731L1.00017 40.2624L1.00247 40.0517L1.0069 39.8408L1.01347 39.6299L1.02217 39.4189L1.03301 39.2079L1.04599 38.9969L1.06111 38.786L1.07836 38.575L1.09776 38.3642L1.1193 38.1534L1.14298 37.9427L1.1688 37.7322L1.19677 37.5218L1.22687 37.3116L1.25912 37.1016L1.2935 36.8918L1.33002 36.6822L1.36868 36.4729L1.40947 36.2639L1.4524 36.0552L1.49746 35.8468L1.54465 35.6387L1.59396 35.431L1.6454 35.2237L1.69896 35.0168L1.75464 34.8103L1.81244 34.6043L1.87234 34.3987L1.93435 34.1937L1.99847 33.9891L2.06469 33.7851L2.133 33.5817L2.2034 33.3788L2.27589 33.1766L2.35046 32.9749L2.4271 32.7739L2.50582 32.5736L2.58659 32.3739L2.66943 32.175L2.75432 31.9767L2.84125 31.7793L2.93023 31.5825L3.02123 31.3866L3.11427 31.1915L3.20932 30.9972L3.30638 30.8038L3.40544 30.6112L3.5065 30.4196L3.60955 30.2288L3.71457 30.039L3.82157 29.8501L3.93053 29.6622L4.04144 29.4753L4.1543 29.2894L4.26909 29.1045L4.3858 28.9207L4.50443 28.738L4.62497 28.5564L4.7474 28.3758L4.87172 28.1964L4.99791 28.0182L5.12596 27.8411L5.25587 27.6652L5.38762 27.4905L5.5212 27.317L5.65659 27.1448L5.7938 26.9739L5.9328 26.8042L6.07358 26.6358L6.21613 26.4688L6.36044 26.3031L6.5065 26.1387L6.65429 25.9758L6.8038 25.8142L6.95501 25.654L7.10792 25.4953L7.2625 25.338L7.41875 25.1821L7.57665 25.0278L7.73619 24.8749L7.89735 24.7236L8.06012 24.5738L8.22448 24.4255L8.39042 24.2788L8.55792 24.1337L8.72698 23.9902L8.89756 23.8483L9.06966 23.708L9.24326 23.5694L9.41834 23.4324L9.5949 23.2972L9.7729 23.1636L9.95235 23.0317L10.1332 22.9015L10.3155 22.7731L10.4991 22.6465L10.6841 22.5216L10.8705 22.3985L11.0582 22.2771L11.2472 22.1576L11.4376 22.04L11.6292 21.9241L11.822 21.8101L12.0161 21.698L12.2115 21.5878L12.408 21.4794L12.6057 21.373L12.8046 21.2685L13.0047 21.1659L13.2059 21.0652L13.4082 20.9666L13.6115 20.8698L13.816 20.7751L14.0215 20.6823L14.2281 20.5916L14.4357 20.5029L14.6442 20.4162L14.8538 20.3315L15.0643 20.2489L15.2757 20.1683L15.488 20.0898L15.7013 20.0134L15.9154 19.9391L16.1304 19.8668L16.3462 19.7967L16.5628 19.7287L16.7802 19.6628L16.9983 19.599L17.2173 19.5374L17.4369 19.478L17.6572 19.4207L17.8783 19.3656L18.1 19.3126L18.3223 19.2618L18.5452 19.2133L18.7688 19.1669L18.9929 19.1227L19.2176 19.0807L19.4428 19.041L19.6685 19.0035L19.8947 18.9682L20.1213 18.9351L20.3484 18.9043L20.5759 18.8757L20.8038 18.8494L21.0321 18.8254L21.2608 18.8036L21.4897 18.7841L21.719 18.7668L21.9485 18.7518L22.1783 18.7391L22.4084 18.7287L22.6386 18.7206L22.8691 18.7148L23.0997 18.7112L23.3304 18.71L23.5613 18.711L23.7923 18.7144L24.0233 18.72L24.2544 18.728L24.4855 18.7382L24.7166 18.7508L24.9477 18.7657L25.1788 18.7828L25.4098 18.8023L25.6407 18.8241L25.8715 18.8482L26.1021 18.8747L26.3326 18.9034L26.5629 18.9344L26.793 18.9678L27.0229 19.0034L27.2525 19.0414L27.4819 19.0817L27.7109 19.1242L27.9396 19.1691L28.168 19.2163L28.396 19.2657L28.6236 19.3175L28.8508 19.3715L29.0775 19.4279L29.3038 19.4865L29.5296 19.5474L29.7549 19.6106L29.9796 19.676L30.2038 19.7437L30.4274 19.8137L30.6504 19.8859L30.8727 19.9604L31.0945 20.0372L31.3155 20.1162L31.5358 20.1974L31.7555 20.2809L31.9744 20.3665L32.1925 20.4544L32.4098 20.5445L32.6263 20.6369L32.842 20.7314L33.0568 20.8281L33.2708 20.927L33.4838 21.028L33.696 21.1313L33.9071 21.2367L34.1173 21.3442L34.3265 21.4539L34.5348 21.5657L34.7419 21.6797L34.948 21.7957L35.1531 21.9139L35.357 22.0341L35.5598 22.1565L35.7615 22.2809L35.9619 22.4074L36.1613 22.5359L36.3594 22.6665L36.5562 22.7991L36.7518 22.9338L36.9462 23.0704L37.1393 23.209L37.331 23.3497L37.5214 23.4922L37.7105 23.6368L37.8981 23.7833L38.0844 23.9317L38.2693 24.0821L38.4527 24.2344L38.6347 24.3885L38.8152 24.5446L38.9942 24.7025L39.1717 24.8623L39.3476 25.0239L39.522 25.1873L39.6948 25.3525L39.8661 25.5196L40.0357 25.6884L40.2037 25.8589L40.37 26.0313L40.5347 26.2053L40.6977 26.3811L40.859 26.5586L41.0186 26.7377L41.1764 26.9186L41.3325 27.101L41.4868 27.2852L41.6393 27.4709L41.79 27.6582L41.9388 27.8472L42.0859 28.0376L42.231 28.2297L42.3743 28.4232L42.5157 28.6183L42.6552 28.8149L42.7928 29.0129L42.9285 29.2124L43.0621 29.4134L43.1938 29.6158L43.3236 29.8195L43.4513 30.0247L43.577 30.2312L43.7007 30.439L43.8223 30.6482L43.9419 30.8587L44.0594 31.0704L44.1748 31.2834L44.2881 31.4977L44.3993 31.7132L44.5083 31.9299L44.6153 32.1478L44.72 32.3668L44.8226 32.587L44.9231 32.8082L45.0213 33.0306L45.1173 33.2541L45.2111 33.4786L45.3027 33.7041L45.3921 33.9307L45.4792 34.1582L45.564 34.3867L45.6466 34.6162L45.7269 34.8466L45.8049 35.0778L45.8806 35.31L45.954 35.543L46.025 35.7768L46.0938 36.0115L46.1601 36.2469L46.2242 36.4831L46.2859 36.7201L46.3452 36.9577L46.4021 37.1961L46.4567 37.4351L46.5089 37.6747L46.5586 37.915L46.606 38.1559L46.651 38.3974L46.6935 38.6394L46.7336 38.8819L46.7713 39.125L46.8065 39.3685L46.8393 39.6125L46.8697 39.8569L46.8976 40.1017L46.923 40.3469L46.9459 40.5925L46.9664 40.8384L46.9845 41.0846L47 41.3311L24.5348 41.5668Z" stroke="#EE8D03"/>
  </symbol>

</svg>