<svg xmlns="http://www.w3.org/2000/svg">
  <symbol id="star" viewBox="0 0 45 45" fill="none" >
    <path d="M23.5188 0.153198L24.2115 14.5597L27.135 0.43964L25.58 14.7779L30.6621 1.29192L26.8978 15.2088L34.0134 2.68904L28.1323 15.8419L37.1063 4.5966L29.2532 16.6616L39.8646 6.96764L30.2329 17.6476L42.2204 9.74377L31.0473 18.7758L44.1157 12.8566L31.6763 20.0183L45.5038 16.2296L32.1045 21.3446L46.3506 19.7796L32.3213 22.7219L46.6352 23.4192L32.3213 24.1164L46.3506 27.0588L32.1045 25.4937L45.5038 30.6087L31.6763 26.82L44.1157 33.9817L31.0473 28.0625L42.2204 37.0945L30.2329 29.1907L39.8646 39.8707L29.2532 30.1767L37.1063 42.2417L28.1323 30.9964L34.0134 44.1493L26.8978 31.6295L30.6621 45.5464L25.58 32.0604L27.135 46.3987L24.2115 32.2786L23.5188 46.6851L22.826 32.2786L19.9026 46.3987L21.4575 32.0604L16.3754 45.5464L20.1398 31.6295L13.0241 44.1493L18.9053 30.9964L9.93128 42.2417L17.7844 30.1767L7.17299 39.8707L16.8046 29.1907L4.81719 37.0945L15.9902 28.0625L2.92188 33.9817L15.3612 26.82L1.53374 30.6087L14.9331 25.4937L0.686945 27.0588L14.7163 24.1164L0.402344 23.4192L14.7163 22.7219L0.686945 19.7796L14.9331 21.3446L1.53374 16.2296L15.3612 20.0183L2.92188 12.8566L15.9902 18.7758L4.81719 9.74377L16.8046 17.6476L7.17299 6.96764L17.7844 16.6616L9.93128 4.5966L18.9053 15.8419L13.0241 2.68904L20.1398 15.2088L16.3754 1.29192L21.4575 14.7779L19.9026 0.43964L22.826 14.5597L23.5188 0.153198Z" fill="white"/>
  </symbol>

  <symbol id="inner-text" viewBox="0 0 275 275" fill="none">
    <path d="M185.615 218.824L176.967 223.773L176.523 222.988L184.288 218.545L181.805 214.15L177.697 216.5C176.276 217.313 175.032 217.641 173.964 217.483C172.896 217.324 172.043 216.681 171.406 215.553C170.749 214.391 170.64 213.276 171.077 212.21C171.515 211.145 172.479 210.185 173.969 209.332L178.718 206.615L185.615 218.824ZM174.376 210.092C173.163 210.786 172.375 211.545 172.014 212.367C171.66 213.2 171.745 214.082 172.27 215.013C173.302 216.838 175.048 217.047 177.509 215.639L181.391 213.417L178.258 207.871L174.376 210.092Z" fill="white"/>
    <path d="M159.786 216.294L159.452 215.435L168.418 211.9L173.507 224.977L164.82 228.402L164.486 227.543L172.226 224.491L170.219 219.335L163.295 222.065L162.968 221.224L169.892 218.494L167.805 213.132L159.786 216.294Z" fill="white"/>
    <path d="M152.227 216.729C153.56 216.416 154.833 216.432 156.046 216.778C157.246 217.127 158.28 217.756 159.146 218.665C160 219.577 160.579 220.691 160.885 222.006C161.191 223.322 161.162 224.578 160.799 225.776C160.423 226.978 159.774 228.003 158.852 228.852C157.917 229.704 156.783 230.287 155.45 230.6C154.467 230.832 153.523 230.882 152.619 230.752C151.718 230.634 150.904 230.331 150.176 229.843L150.647 229.052C151.986 229.877 153.503 230.09 155.198 229.691C156.337 229.423 157.312 228.919 158.122 228.179C158.933 227.438 159.496 226.543 159.812 225.494C160.131 224.457 160.158 223.372 159.895 222.239C159.632 221.106 159.127 220.14 158.382 219.34C157.639 218.553 156.742 218.009 155.689 217.707C154.636 217.406 153.54 217.389 152.401 217.657C150.719 218.053 149.455 218.927 148.609 220.28L147.838 219.782C148.275 219.02 148.876 218.377 149.642 217.853C150.394 217.333 151.256 216.958 152.227 216.729Z" fill="white"/>
    <path d="M136.401 232.48L135.354 218.474L136.367 218.397L137.346 231.482L146.769 230.769L145.79 217.684L146.804 217.607L147.852 231.612L136.401 232.48Z" fill="white"/>
    <path d="M122.429 231.107L123.589 217.11L124.602 217.195L123.518 230.272L130.71 230.876L131.315 225.752C131.553 223.839 131.847 222.307 132.196 221.155C132.53 220.015 132.959 219.185 133.482 218.666C134.005 218.146 134.657 217.919 135.439 217.984C135.796 218.014 136.124 218.082 136.422 218.187L136.225 219.117C136.004 219.045 135.788 219 135.576 218.982C134.967 218.931 134.458 219.123 134.048 219.559C133.624 220.006 133.271 220.735 132.987 221.745C132.703 222.755 132.458 224.11 132.25 225.81L131.548 231.872L122.429 231.107Z" fill="white"/>
    <path d="M112.555 218.209L120.428 220.099L123.065 216.668L124.131 216.924L114.65 229.087L113.661 228.85L110.655 213.689L111.721 213.945L112.555 218.209ZM112.725 219.137L114.424 227.878L119.841 220.845L112.725 219.137Z" fill="white"/>
    <path d="M98.0117 222.224L102.695 224.054L107.414 211.821L108.362 212.191L103.642 224.424L108.325 226.254L107.993 227.115L97.6798 223.084L98.0117 222.224Z" fill="white"/>
    <path d="M85.2788 215.906L92.14 203.675L93.0252 204.178L89.7613 209.996L97.8852 214.613L101.149 208.794L102.034 209.297L95.1733 221.528L94.288 221.025L97.4442 215.399L89.3202 210.783L86.1641 216.409L85.2788 215.906Z" fill="white"/>
    <path d="M86.6978 198.703C87.7625 199.569 88.5316 200.59 89.0053 201.767C89.4706 202.954 89.613 204.17 89.4324 205.416C89.2416 206.654 88.7285 207.793 87.8931 208.834C87.0577 209.874 86.0588 210.618 84.8963 211.066C83.7235 211.505 82.516 211.615 81.2738 211.396C80.0233 211.187 78.8657 210.65 77.801 209.784C76.7364 208.918 75.9672 207.897 75.4936 206.721C75.0199 205.544 74.8785 204.337 75.0694 203.099C75.2499 201.853 75.762 200.704 76.6058 199.654C77.4495 198.603 78.4578 197.858 79.6306 197.418C80.7931 196.971 81.9954 196.857 83.2376 197.076C84.4798 197.295 85.6332 197.837 86.6978 198.703ZM86.1089 199.437C85.1993 198.697 84.2105 198.237 83.1424 198.056C82.0744 197.875 81.0361 197.977 80.0276 198.36C79.0106 198.755 78.1388 199.404 77.412 200.309C76.6852 201.215 76.2413 202.204 76.0804 203.277C75.911 204.36 76.0262 205.408 76.426 206.421C76.8257 207.434 77.4804 208.311 78.39 209.051C79.2996 209.79 80.2936 210.255 81.3719 210.444C82.44 210.625 83.4824 210.518 84.4994 210.124C85.5079 209.74 86.3756 209.096 87.1024 208.191C87.8291 207.286 88.2772 206.291 88.4465 205.208C88.6075 204.135 88.4881 203.092 88.0884 202.079C87.6783 201.057 87.0185 200.177 86.1089 199.437Z" fill="white"/>
    <path d="M74.131 187.053L74.8104 186.433L81.2776 193.612L70.9389 203.046L64.6725 196.09L65.3519 195.47L70.9354 201.668L75.0118 197.948L70.0175 192.404L70.6821 191.798L75.6765 197.342L79.9153 193.474L74.131 187.053Z" fill="white"/>
    <path d="M56.3859 165.609C56.2551 164.644 56.377 163.806 56.7514 163.095C57.1211 162.37 57.7045 161.858 58.5014 161.559C59.2609 161.274 60.0131 161.255 60.7578 161.504C61.5025 161.752 62.1661 162.202 62.7484 162.855C63.3308 163.507 63.7869 164.278 64.1169 165.167C64.4376 166.032 64.6042 166.94 64.6167 167.892C64.6246 168.831 64.4568 169.737 64.1133 170.608L63.2945 170.466C63.6161 169.689 63.7768 168.879 63.7765 168.036C63.7591 167.186 63.6064 166.373 63.3182 165.596C63.044 164.857 62.6701 164.212 62.1965 163.662C61.7105 163.116 61.1736 162.739 60.5859 162.532C59.9858 162.329 59.3744 162.345 58.7518 162.579C57.9176 162.892 57.3972 163.459 57.1906 164.279C56.9715 165.103 57.0804 166.105 57.5173 167.283L58.5212 169.989L57.6994 170.298L56.7094 167.629C56.3376 166.627 55.8355 165.923 55.203 165.518C54.5581 165.118 53.8558 165.06 53.0963 165.346C52.2495 165.664 51.7158 166.271 51.4951 167.168C51.2573 168.057 51.3336 169.028 51.724 170.08C51.961 170.719 52.2938 171.33 52.7222 171.911C53.146 172.48 53.6601 172.986 54.2646 173.43L53.5939 174.089C52.9538 173.587 52.404 173.023 51.9445 172.396C51.4803 171.757 51.1181 171.086 50.8579 170.384C50.5419 169.532 50.3969 168.701 50.423 167.892C50.4321 167.075 50.6276 166.359 51.0096 165.744C51.3746 165.122 51.9119 164.677 52.6217 164.41C53.3314 164.144 54.0182 164.121 54.6821 164.343C55.3414 164.552 55.9093 164.974 56.3859 165.609Z" fill="white"/>
    <path d="M56.2634 150.596L58.0087 158.55L62.2263 159.441L62.4627 160.519L47.4516 157.239L47.2324 156.24L59.475 146.903L59.7115 147.98L56.2634 150.596ZM55.508 151.154L48.4343 156.507L57.0856 158.344L55.508 151.154Z" fill="white"/>
    <path d="M45.3624 136.514L59.2899 135.634L59.3536 136.655L52.7281 137.074L53.3128 146.446L59.9383 146.027L60.002 147.048L46.0745 147.929L46.0108 146.907L52.4174 146.502L51.8328 137.131L45.4261 137.536L45.3624 136.514Z" fill="white"/>
    <path d="M46.7632 123.341L60.6589 124.63L60.5656 125.649L56.1984 125.244L55.7903 129.7C55.7585 130.046 55.7088 130.37 55.641 130.673L59.7841 134.181L59.6835 135.28L55.3745 131.616C54.9882 132.627 54.3923 133.378 53.5867 133.868C52.7679 134.356 51.7828 134.546 50.6314 134.44C49.0963 134.297 47.9491 133.707 47.19 132.67C46.4321 131.619 46.1288 130.267 46.2801 128.616L46.7632 123.341ZM50.7067 133.399C51.9375 133.513 52.9167 133.241 53.6443 132.583C54.3718 131.925 54.7991 130.904 54.926 129.519L55.3249 125.163L47.583 124.445L47.2005 128.62C47.0712 130.032 47.3086 131.156 47.9128 131.991C48.505 132.812 49.4363 133.281 50.7067 133.399Z" fill="white"/>
    <path d="M50.6861 111.087L49.5498 116.012L62.2494 118.98L62.0194 119.977L49.3198 117.009L48.1835 121.935L47.2903 121.726L49.7929 110.878L50.6861 111.087Z" fill="white"/>
    <path d="M50.9541 108.163L51.3235 107.209L62.7272 111.684L54.7778 98.2918L55.1037 97.4506L68.1047 102.552L67.7354 103.506L56.3502 99.038L64.281 112.423L63.9552 113.264L50.9541 108.163Z" fill="white"/>
    <path d="M73.1678 92.657L73.9624 93.1177L69.1551 101.515L57.0644 94.5038L61.7224 86.3672L62.5169 86.8279L58.3665 94.0779L63.1337 96.8424L66.8462 90.3574L67.6234 90.8081L63.911 97.2931L68.8682 100.168L73.1678 92.657Z" fill="white"/>
    <path d="M91.8069 58.7214L100.54 53.9256L100.97 54.7182L93.1291 59.0238L95.5352 63.4621L99.6829 61.1843C101.118 60.3962 102.368 60.0907 103.433 60.2677C104.498 60.4447 105.339 61.1027 105.957 62.2416C106.593 63.4158 106.683 64.5318 106.227 65.5898C105.771 66.6478 104.791 67.5901 103.286 68.4166L98.4905 71.0499L91.8069 58.7214ZM102.893 67.6497C104.118 66.9769 104.918 66.2327 105.293 65.4171C105.662 64.5897 105.592 63.7063 105.083 62.767C104.084 60.9236 102.342 60.6843 99.8564 62.049L95.9362 64.2018L98.9725 69.8025L102.893 67.6497Z" fill="white"/>
    <path d="M117.589 61.7055L117.908 62.5705L108.883 65.9473L104.021 52.7829L112.766 49.511L113.086 50.3761L105.293 53.2914L107.21 58.4819L114.18 55.8742L114.493 56.7205L107.523 59.3282L109.516 64.7256L117.589 61.7055Z" fill="white"/>
    <path d="M125.153 61.4032C123.815 61.6935 122.542 61.6549 121.335 61.2873C120.141 60.917 119.119 60.2699 118.268 59.346C117.431 58.4194 116.871 57.2957 116.588 55.9751C116.305 54.6545 116.355 53.3983 116.739 52.2067C117.136 51.0123 117.803 49.9988 118.739 49.1662C119.689 48.3308 120.833 47.768 122.171 47.4777C123.158 47.2635 124.103 47.2296 125.004 47.3761C125.903 47.5096 126.712 47.8267 127.431 48.3275L126.946 49.11C125.622 48.2615 124.109 48.0218 122.407 48.391C121.264 48.6391 120.281 49.1261 119.457 49.852C118.634 50.578 118.055 51.4629 117.721 52.5068C117.385 53.5377 117.338 54.6219 117.582 55.7595C117.825 56.8971 118.313 57.8722 119.044 58.6851C119.773 59.4848 120.661 60.0447 121.709 60.3648C122.756 60.6849 123.851 60.7209 124.995 60.4729C126.684 60.1065 127.963 59.2543 128.832 57.9164L129.594 58.4284C129.144 59.1828 128.532 59.8151 127.757 60.3252C126.996 60.8325 126.128 61.1918 125.153 61.4032Z" fill="white"/>
    <path d="M141.259 45.934L142.063 59.9556L141.048 60.0146L140.297 46.9144L130.863 47.4624L131.614 60.5626L130.599 60.6216L129.795 46.6L141.259 45.934Z" fill="white"/>
    <path d="M155.213 47.5524L153.811 61.5265L152.799 61.4236L154.11 48.3678L146.93 47.6379L146.236 52.7502C145.964 54.6586 145.644 56.1856 145.275 57.3312C144.921 58.4649 144.478 59.287 143.946 59.7976C143.414 60.3081 142.758 60.5238 141.978 60.4445C141.62 60.4082 141.294 60.3346 140.998 60.2239L141.211 59.2977C141.43 59.3738 141.646 59.4226 141.858 59.4441C142.466 59.5059 142.978 59.3228 143.395 58.8946C143.827 58.4545 144.193 57.7321 144.494 56.7275C144.796 55.7229 145.065 54.3722 145.302 52.6754L146.109 46.6268L155.213 47.5524Z" fill="white"/>
    <path d="M164.854 60.622L157.015 58.5939L154.319 61.9776L153.257 61.7028L162.948 49.7082L163.933 49.963L166.675 65.1747L165.613 64.8999L164.854 60.622ZM164.7 59.6915L163.153 50.9214L157.614 57.8581L164.7 59.6915Z" fill="white"/>
    <path d="M179.472 56.8639L174.822 54.9517L169.89 67.0997L168.949 66.7127L173.88 54.5647L169.23 52.6525L169.577 51.7981L179.819 56.0095L179.472 56.8639Z" fill="white"/>
    <path d="M192.099 63.4044L185.026 75.5129L184.15 74.9944L187.514 69.2342L179.472 64.4757L176.107 70.2359L175.231 69.7173L182.303 57.6088L183.18 58.1273L179.927 63.6973L187.969 68.4558L191.222 62.8859L192.099 63.4044Z" fill="white"/>
    <path d="M190.369 80.5794C189.319 79.6949 188.568 78.6604 188.115 77.4759C187.67 76.2811 187.549 75.0622 187.751 73.8193C187.964 72.585 188.496 71.455 189.35 70.4294C190.203 69.4038 191.215 68.6774 192.385 68.2503C193.565 67.8318 194.774 67.743 196.012 67.984C197.259 68.2147 198.407 68.7723 199.457 69.6568C200.506 70.5413 201.257 71.5758 201.711 72.7603C202.164 73.9449 202.284 75.1543 202.072 76.3886C201.87 77.6316 201.338 78.7709 200.476 79.8068C199.614 80.8427 198.593 81.5698 197.413 81.9884C196.243 82.4155 195.038 82.5086 193.8 82.2676C192.562 82.0266 191.418 81.4639 190.369 80.5794ZM190.97 79.8564C191.867 80.612 192.848 81.0896 193.912 81.2891C194.977 81.4885 196.017 81.4054 197.032 81.0395C198.056 80.6634 198.939 80.0293 199.681 79.137C200.424 78.2447 200.885 77.2636 201.064 76.1936C201.252 75.1133 201.155 74.0632 200.773 73.0433C200.391 72.0233 199.752 71.1355 198.855 70.3798C197.959 69.6241 196.973 69.1423 195.898 68.9342C194.833 68.7348 193.789 68.8231 192.765 69.1992C191.75 69.565 190.872 70.1941 190.129 71.0863C189.387 71.9786 188.921 72.9649 188.733 74.0451C188.554 75.1151 188.655 76.1601 189.037 77.18C189.429 78.2086 190.074 79.1007 190.97 79.8564Z" fill="white"/>
    <path d="M202.724 92.4491L202.034 93.057L195.692 85.7654L206.193 76.5141L212.338 83.5792L211.648 84.1872L206.173 77.8919L202.032 81.5396L206.93 87.1706L206.254 87.7653L201.357 82.1343L197.052 85.9274L202.724 92.4491Z" fill="white"/>
    <path d="M220.087 114.202C220.201 115.168 220.065 116.004 219.678 116.709C219.296 117.427 218.704 117.929 217.902 118.214C217.138 118.486 216.385 118.491 215.645 118.23C214.905 117.968 214.249 117.506 213.678 116.844C213.107 116.182 212.664 115.403 212.35 114.507C212.044 113.637 211.894 112.726 211.898 111.774C211.906 110.835 212.089 109.933 212.448 109.067L213.264 109.224C212.929 109.996 212.754 110.803 212.74 111.645C212.743 112.495 212.881 113.311 213.156 114.093C213.417 114.837 213.78 115.488 214.244 116.047C214.72 116.601 215.251 116.987 215.835 117.204C216.431 117.418 217.043 117.413 217.669 117.19C218.509 116.891 219.039 116.334 219.26 115.518C219.493 114.697 219.402 113.694 218.985 112.508L218.029 109.784L218.856 109.49L219.799 112.176C220.153 113.185 220.643 113.898 221.269 114.314C221.906 114.725 222.608 114.795 223.372 114.523C224.224 114.22 224.768 113.622 225.005 112.729C225.258 111.844 225.198 110.873 224.826 109.813C224.6 109.17 224.278 108.554 223.86 107.965C223.446 107.389 222.941 106.873 222.344 106.419L223.026 105.772C223.658 106.285 224.198 106.859 224.646 107.494C225.099 108.141 225.449 108.818 225.698 109.524C225.999 110.382 226.129 111.215 226.089 112.024C226.066 112.841 225.858 113.553 225.465 114.161C225.09 114.777 224.545 115.212 223.83 115.466C223.116 115.72 222.429 115.731 221.769 115.497C221.113 115.277 220.553 114.845 220.087 114.202Z" fill="white"/>
    <path d="M219.969 129.215L218.362 121.231L214.16 120.266L213.943 119.184L228.895 122.728L229.096 123.731L216.694 132.851L216.476 131.77L219.969 129.215ZM220.734 128.67L227.899 123.442L219.281 121.453L220.734 128.67Z" fill="white"/>
    <path d="M230.617 143.486L216.677 144.121L216.631 143.099L223.262 142.797L222.841 133.416L216.209 133.718L216.163 132.696L230.104 132.061L230.15 133.083L223.737 133.375L224.159 142.756L230.571 142.464L230.617 143.486Z" fill="white"/>
    <path d="M228.989 156.633L215.117 155.099L215.228 154.082L219.588 154.564L220.073 150.116C220.111 149.77 220.166 149.447 220.239 149.145L216.158 145.565L216.278 144.468L220.522 148.208C220.926 147.203 221.535 146.463 222.349 145.987C223.176 145.514 224.164 145.34 225.314 145.467C226.846 145.637 227.983 146.247 228.724 147.298C229.463 148.362 229.743 149.718 229.563 151.367L228.989 156.633ZM225.22 146.507C223.992 146.371 223.008 146.626 222.269 147.27C221.53 147.915 221.085 148.929 220.934 150.312L220.46 154.66L228.188 155.515L228.643 151.346C228.797 149.937 228.579 148.809 227.989 147.963C227.412 147.133 226.489 146.647 225.22 146.507Z" fill="white"/>
    <path d="M224.865 168.816L226.087 163.911L213.441 160.72L213.688 159.728L226.334 162.919L227.556 158.014L228.446 158.239L225.755 169.04L224.865 168.816Z" fill="white"/>
    <path d="M224.522 171.735L224.136 172.682L212.812 168.007L220.527 181.537L220.187 182.372L207.276 177.043L207.662 176.096L218.968 180.763L211.271 167.241L211.611 166.405L224.522 171.735Z" fill="white"/>
    <path d="M202.059 186.848L201.272 186.373L206.225 178.061L218.192 185.284L213.393 193.338L212.607 192.863L216.883 185.687L212.164 182.839L208.34 189.258L207.57 188.794L211.395 182.375L206.488 179.414L202.059 186.848Z" fill="white"/>
  </symbol>

  <symbol id="outer-text" viewBox="0 0 300 300" fill="none" >
    <path d="M125.541 291.395L110.884 288.352L111.155 287.03L124.314 289.761L125.832 282.355L118.87 280.91C116.462 280.41 114.731 279.54 113.678 278.301C112.626 277.061 112.294 275.491 112.684 273.59C113.085 271.631 114.058 270.27 115.602 269.508C117.147 268.746 119.182 268.627 121.708 269.152L129.757 270.822L125.541 291.395ZM121.42 270.409C119.364 269.982 117.727 270.051 116.509 270.615C115.286 271.199 114.515 272.275 114.194 273.842C113.563 276.918 115.334 278.889 119.505 279.755L126.085 281.121L128 271.775L121.42 270.409Z" fill="white"/>
    <path d="M97.7456 262.585L98.2165 261.288L111.816 266.288L104.651 286.028L91.4733 281.183L91.9442 279.885L103.686 284.203L106.511 276.42L96.0084 272.558L96.469 271.289L106.971 275.151L109.909 267.057L97.7456 262.585Z" fill="white"/>
    <path d="M88.2626 255.32C90.0706 256.308 91.4846 257.604 92.5049 259.209C93.5076 260.805 94.0458 262.546 94.1195 264.433C94.1756 266.309 93.7243 268.136 92.7657 269.914C91.807 271.692 90.5308 273.069 88.937 274.044C87.3256 275.01 85.582 275.505 83.706 275.529C81.8125 275.543 79.9618 275.056 78.1539 274.069C76.8199 273.34 75.7099 272.449 74.8238 271.395C73.9283 270.359 73.3133 269.203 72.9791 267.926L74.2914 267.515C74.978 269.782 76.471 271.543 78.7704 272.799C80.3151 273.642 81.9091 274.057 83.5526 274.043C85.196 274.029 86.7145 273.594 88.1081 272.737C89.4922 271.898 90.5971 270.712 91.4229 269.181C92.2487 267.649 92.6387 266.062 92.593 264.419C92.5377 262.794 92.068 261.284 91.1839 259.89C90.2998 258.495 89.0854 257.376 87.5408 256.532C85.259 255.286 82.9734 254.995 80.6841 255.659L80.3115 254.327C81.5569 253.914 82.8688 253.798 84.247 253.981C85.6076 254.155 86.9462 254.601 88.2626 255.32Z" fill="white"/>
    <path d="M53.8792 256.367L66.6735 239.715L67.8809 240.655L55.9274 256.213L67.1493 264.947L79.1028 249.388L80.3102 250.328L67.516 266.981L53.8792 256.367Z" fill="white"/>
    <path d="M38.5271 239.639L53.9055 225.339L54.9402 226.466L40.5723 239.827L47.9165 247.827L53.7451 242.775C55.9353 240.903 57.8033 239.507 59.3492 238.588C60.8669 237.669 62.1767 237.188 63.2787 237.146C64.3808 237.105 65.3308 237.519 66.1288 238.388C66.494 238.786 66.7881 239.195 67.0113 239.615L65.8571 240.443C65.6857 240.138 65.4918 239.868 65.2754 239.632C64.6533 238.954 63.8966 238.647 63.0052 238.712C62.0858 238.775 60.9607 239.22 59.6301 240.048C58.2994 240.875 56.663 242.124 54.7206 243.794L47.8391 249.783L38.5271 239.639Z" fill="white"/>
    <path d="M39.579 213.998L46.2731 224.174L52.6585 223.127L53.5653 224.506L30.781 228.081L29.9401 226.803L42.1063 207.087L43.0131 208.465L39.579 213.998ZM38.8188 215.19L31.7668 226.523L44.8698 224.388L38.8188 215.19Z" fill="white"/>
    <path d="M18.6046 201.708L21.8129 208.554L39.5369 200.139L40.1862 201.525L22.4622 209.939L25.6705 216.785L24.4238 217.377L17.3579 202.3L18.6046 201.708Z" fill="white"/>
    <path d="M10.8249 180.551L30.9312 174.489L31.3676 175.956L21.8027 178.839L25.8074 192.296L35.3723 189.413L35.8087 190.879L15.7024 196.94L15.266 195.474L24.5149 192.686L20.5102 179.229L11.2613 182.017L10.8249 180.551Z" fill="white"/>
    <path d="M29.802 162C30.0444 164.046 29.8065 165.948 29.0883 167.706C28.3503 169.466 27.2336 170.92 25.7381 172.066C24.2402 173.193 22.4984 173.875 20.5126 174.113C18.5269 174.352 16.6745 174.101 14.9554 173.36C13.234 172.6 11.819 171.45 10.7102 169.911C9.5816 168.375 8.89612 166.584 8.65375 164.538C8.41139 162.492 8.64928 160.591 9.36742 158.832C10.0856 157.074 11.1936 155.632 12.6914 154.506C14.1869 153.359 15.9375 152.666 17.9431 152.425C19.9487 152.184 21.8122 152.444 23.5336 153.204C25.2527 153.945 26.6666 155.084 27.7753 156.623C28.8841 158.162 29.5596 159.954 29.802 162ZM28.402 162.168C28.195 160.42 27.6108 158.889 26.6494 157.574C25.688 156.259 24.4641 155.278 22.9776 154.631C21.4712 153.986 19.8543 153.767 18.1267 153.974C16.399 154.181 14.8885 154.776 13.5949 155.757C12.2815 156.74 11.3112 157.985 10.684 159.49C10.0567 160.996 9.84664 162.622 10.0537 164.37C10.2608 166.118 10.8462 167.659 11.8099 168.994C12.7713 170.309 14.0051 171.289 15.5115 171.934C16.998 172.581 18.605 172.801 20.3326 172.594C22.0602 172.387 23.5807 171.791 24.8942 170.808C26.1877 169.827 27.1481 168.583 27.7753 167.078C28.4002 165.552 28.6091 163.916 28.402 162.168Z" fill="white"/>
    <path d="M28.3155 135.037L29.6945 135.092L29.1255 149.571L8.1421 148.736L8.6934 134.707L10.0723 134.762L9.58108 147.262L17.8545 147.591L18.2939 136.41L19.6429 136.464L19.2035 147.645L27.8066 147.987L28.3155 135.037Z" fill="white"/>
    <path d="M30.4713 94.5593C31.3137 93.374 32.3036 92.5878 33.4409 92.2008C34.586 91.7952 35.7478 91.8421 36.9265 92.3413C38.0499 92.8171 38.8924 93.5758 39.4541 94.6173C40.0158 95.6589 40.2823 96.836 40.2536 98.1488C40.225 99.4616 39.9368 100.773 39.389 102.083C38.8567 103.356 38.111 104.517 37.1521 105.566C36.2009 106.597 35.0919 107.409 33.8252 108.002L33.0737 106.999C34.2205 106.486 35.2241 105.771 36.0845 104.854C36.9341 103.91 37.5981 102.867 38.0765 101.723C38.5317 100.634 38.7811 99.545 38.8246 98.4558C38.8498 97.3587 38.6466 96.393 38.2151 95.5586C37.7651 94.7165 37.0797 94.1004 36.1589 93.7104C34.925 93.1877 33.776 93.2658 32.7118 93.9445C31.6293 94.6154 30.7253 95.8181 30.0001 97.5525L28.3336 101.538L27.1181 101.023L28.7615 97.0931C29.3787 95.6169 29.5478 94.3311 29.2689 93.2355C28.9715 92.1322 28.2611 91.3426 27.1377 90.8668C25.8854 90.3364 24.6803 90.4449 23.5223 91.1925C22.3536 91.9138 21.4452 93.0494 20.7971 94.5994C20.4036 95.5405 20.1444 96.5492 20.0195 97.6257C19.9022 98.6838 19.9477 99.7673 20.156 100.876L18.7483 100.899C18.5602 99.69 18.5348 98.5064 18.6722 97.3483C18.8173 96.1718 19.1059 95.0668 19.5379 94.0335C20.0626 92.7788 20.7527 91.7245 21.6083 90.8705C22.4533 89.9904 23.399 89.4136 24.4455 89.1401C25.4813 88.8403 26.524 88.9127 27.5738 89.3573C28.6235 89.8019 29.3986 90.4886 29.899 91.4173C30.4072 92.3276 30.598 93.3749 30.4713 94.5593Z" fill="white"/>
    <path d="M45.9993 77.2728L39.7122 87.7047L43.3783 93.0711L42.5266 94.4842L29.5891 75.2681L30.3789 73.9577L53.289 76.6267L52.4373 78.0399L45.9993 77.2728ZM44.6041 77.0888L31.4102 75.5012L38.9209 86.5186L44.6041 77.0888Z" fill="white"/>
    <path d="M49.8739 48.9675L65.7681 62.6925L64.7755 63.8569L57.2145 57.3277L48.1062 68.0123L55.6673 74.5415L54.6747 75.7059L38.7806 61.9808L39.7731 60.8165L47.0844 67.13L56.1927 56.4454L48.8814 50.1319L49.8739 48.9675Z" fill="white"/>
    <path d="M66.1661 35.1437L79.6541 51.2395L78.4877 52.2296L74.2486 47.171L69.1484 51.5004C68.7519 51.8369 68.3591 52.131 67.9699 52.3827L68.7218 60.5196L67.4638 61.5873L66.6986 53.1076C65.2267 53.7799 63.8045 53.951 62.4319 53.6208C61.0465 53.2753 59.795 52.4357 58.6774 51.1021C57.1873 49.3239 56.5801 47.4783 56.8557 45.5654C57.1467 43.6395 58.2375 41.874 60.1281 40.2691L66.1661 35.1437ZM59.8474 50.0696C61.0421 51.4952 62.3722 52.2418 63.8378 52.3093C65.3035 52.3769 66.8292 51.7376 68.4149 50.3916L73.4008 46.1592L65.886 37.1916L61.106 41.2492C59.4898 42.6211 58.5671 44.0733 58.3378 45.6058C58.111 47.11 58.6142 48.5979 59.8474 50.0696Z" fill="white"/>
    <path d="M84.1191 25.4507L77.7231 29.4811L88.0867 46.1407L86.7923 46.9564L76.4287 30.2968L70.0327 34.3273L69.3037 33.1555L83.3902 24.2789L84.1191 25.4507Z" fill="white"/>
    <path d="M88.4492 22.0022L89.8511 21.3895L97.148 38.3026L102.964 15.659L104.201 15.1183L112.52 34.4004L111.118 35.0131L103.833 18.1275L98.0051 40.7436L96.768 41.2842L88.4492 22.0022Z" fill="white"/>
    <path d="M129.698 28.8344L130.043 30.1706L116.025 33.8375L110.774 13.5044L124.357 9.95145L124.702 11.2876L112.6 14.4534L114.67 22.4704L125.496 19.6387L125.833 20.9458L115.007 23.7776L117.16 32.1141L129.698 28.8344Z" fill="white"/>
    <path d="M182.174 11.6744L196.635 15.545L196.29 16.8502L183.307 13.3752L181.376 20.6844L188.244 22.5227C190.621 23.1587 192.299 24.1256 193.28 25.4234C194.261 26.7212 194.504 28.3079 194.008 30.1835C193.498 32.1172 192.45 33.4206 190.865 34.0938C189.281 34.767 187.242 34.77 184.75 34.103L176.81 31.9776L182.174 11.6744ZM185.109 32.8635C187.137 33.4065 188.775 33.4308 190.023 32.9366C191.276 32.4231 192.106 31.3928 192.515 29.8459C193.317 26.8101 191.661 24.7415 187.546 23.64L181.054 21.9026L178.617 31.126L185.109 32.8635Z" fill="white"/>
    <path d="M208.314 42.0226L207.771 43.2913L194.477 37.5263L202.741 18.221L215.622 23.8069L215.079 25.0755L203.602 20.0983L200.343 27.7102L210.61 32.1622L210.078 33.4032L199.812 28.9512L196.424 36.8664L208.314 42.0226Z" fill="white"/>
    <path d="M217.37 49.8167C215.621 48.7283 214.283 47.3537 213.355 45.6927C212.444 44.0424 212.005 42.2734 212.038 40.3859C212.088 38.5089 212.641 36.7098 213.699 34.9886C214.756 33.2674 216.108 31.9649 217.754 31.0812C219.417 30.208 221.185 29.8127 223.059 29.8953C224.95 29.9884 226.77 30.5791 228.519 31.6675C229.81 32.4706 230.868 33.4232 231.693 34.5255C232.528 35.6108 233.077 36.8002 233.338 38.0936L232.005 38.43C231.448 36.128 230.057 34.2848 227.832 32.9006C226.338 31.9708 224.77 31.4663 223.129 31.3871C221.487 31.308 219.947 31.6568 218.507 32.4335C217.078 33.1932 215.909 34.3143 214.998 35.7969C214.087 37.2795 213.608 38.8424 213.561 40.4856C213.524 42.1117 213.908 43.646 214.712 45.0885C215.516 46.5309 216.665 47.7171 218.159 48.6469C220.367 50.0206 222.632 50.4408 224.955 49.9074L225.252 51.2582C223.985 51.6007 222.669 51.6415 221.303 51.3807C219.955 51.1305 218.644 50.6092 217.37 49.8167Z" fill="white"/>
    <path d="M251.77 50.7185L238.056 66.6224L236.904 65.6158L249.716 50.7571L239.006 41.4024L226.194 56.2611L225.042 55.2546L238.755 39.3507L251.77 50.7185Z" fill="white"/>
    <path d="M266.156 68.2927L249.993 81.7003L249.024 80.5166L264.124 67.99L257.244 59.5879L251.139 64.3015C248.846 66.0474 246.902 67.3352 245.307 68.1649C243.739 68.9973 242.404 69.4031 241.302 69.3824C240.199 69.3617 239.274 68.8948 238.526 67.9819C238.184 67.5641 237.913 67.1389 237.714 66.7064L238.914 65.9455C239.067 66.2596 239.246 66.5404 239.449 66.788C240.031 67.4998 240.77 67.8489 241.663 67.8352C242.585 67.8242 243.733 67.4432 245.109 66.6921C246.484 65.941 248.188 64.7868 250.222 63.2298L257.431 57.6391L266.156 68.2927Z" fill="white"/>
    <path d="M263.654 93.8346L257.544 83.2979L251.108 83.9815L250.281 82.5541L273.234 80.2746L274.001 81.5981L260.74 100.591L259.912 99.1636L263.654 93.8346ZM264.48 92.6881L272.161 81.7743L258.957 83.1636L264.48 92.6881Z" fill="white"/>
    <path d="M283.919 107.296L281.101 100.281L262.928 107.676L262.358 106.256L280.531 98.8613L277.713 91.8461L278.991 91.326L285.197 106.776L283.919 107.296Z" fill="white"/>
    <path d="M290.5 128.862L270.082 133.771L269.729 132.283L279.442 129.947L276.2 116.287L266.487 118.622L266.133 117.133L286.552 112.225L286.905 113.713L277.512 115.971L280.754 129.632L290.147 127.374L290.5 128.862Z" fill="white"/>
    <path d="M270.504 146.306C270.377 144.25 270.721 142.365 271.537 140.651C272.373 138.935 273.57 137.548 275.127 136.488C276.686 135.449 278.463 134.867 280.46 134.742C282.456 134.617 284.291 134.973 285.966 135.81C287.642 136.667 288.99 137.895 290.011 139.494C291.051 141.092 291.635 142.919 291.762 144.975C291.889 147.031 291.545 148.917 290.729 150.631C289.914 152.345 288.726 153.722 287.167 154.762C285.61 155.821 283.823 156.414 281.807 156.54C279.791 156.666 277.945 156.301 276.269 155.444C274.594 154.607 273.246 153.389 272.226 151.79C271.205 150.19 270.631 148.363 270.504 146.306ZM271.911 146.218C272.02 147.975 272.517 149.537 273.403 150.904C274.289 152.272 275.456 153.321 276.904 154.052C278.372 154.781 279.974 155.092 281.711 154.983C283.447 154.874 284.989 154.367 286.336 153.461C287.702 152.554 288.741 151.367 289.452 149.899C290.163 148.432 290.464 146.82 290.355 145.063C290.247 143.307 289.749 141.735 288.861 140.348C287.975 138.98 286.798 137.932 285.331 137.202C283.883 136.471 282.29 136.16 280.554 136.269C278.817 136.378 277.266 136.885 275.899 137.793C274.552 138.699 273.524 139.885 272.813 141.352C272.103 142.84 271.803 144.462 271.911 146.218Z" fill="white"/>
    <path d="M270.475 173.312L269.101 173.179L270.482 158.755L291.384 160.783L290.046 174.759L288.672 174.625L289.865 162.172L281.623 161.373L280.557 172.512L279.213 172.382L280.28 161.243L271.71 160.411L270.475 173.312Z" fill="white"/>
    <path d="M266.048 213.607C265.14 214.743 264.108 215.472 262.951 215.794C261.785 216.134 260.628 216.021 259.479 215.456C258.385 214.917 257.587 214.112 257.085 213.04C256.583 211.968 256.383 210.778 256.485 209.468C256.588 208.159 256.95 206.866 257.57 205.589C258.173 204.347 258.983 203.23 260 202.237C261.007 201.262 262.16 200.514 263.458 199.994L264.151 201.037C262.978 201.485 261.936 202.142 261.025 203.009C260.124 203.903 259.402 204.908 258.86 206.023C258.344 207.084 258.034 208.158 257.929 209.243C257.842 210.337 257.991 211.313 258.374 212.17C258.776 213.037 259.426 213.691 260.323 214.133C261.525 214.724 262.676 214.712 263.777 214.094C264.895 213.486 265.865 212.336 266.687 210.645L268.575 206.759L269.76 207.342L267.898 211.174C267.198 212.613 266.957 213.887 267.174 214.997C267.408 216.116 268.073 216.945 269.168 217.483C270.388 218.084 271.597 218.044 272.795 217.363C274.002 216.709 274.973 215.626 275.707 214.115C276.153 213.198 276.469 212.205 276.654 211.137C276.831 210.088 276.846 209.003 276.701 207.884L278.108 207.941C278.227 209.159 278.186 210.342 277.983 211.491C277.772 212.657 277.422 213.745 276.932 214.752C276.338 215.975 275.59 216.989 274.687 217.793C273.794 218.624 272.818 219.146 271.758 219.36C270.707 219.601 269.67 219.469 268.647 218.966C267.625 218.462 266.89 217.733 266.442 216.777C265.986 215.839 265.855 214.783 266.048 213.607Z" fill="white"/>
    <path d="M249.568 229.986L256.433 219.925L253.077 214.359L254.007 212.997L265.837 232.917L264.974 234.18L242.255 230.219L243.185 228.856L249.568 229.986ZM250.951 230.249L264.032 232.581L257.156 221.154L250.951 230.249Z" fill="white"/>
    <path d="M244.126 258.025L229.033 243.424L230.09 242.317L237.27 249.263L246.967 239.11L239.787 232.164L240.844 231.058L255.937 245.659L254.88 246.766L247.937 240.049L238.24 250.202L245.183 256.919L244.126 258.025Z" fill="white"/>
    <path d="M227.06 270.898L214.502 254.067L215.723 253.144L219.669 258.434L225.006 254.4C225.421 254.087 225.83 253.815 226.233 253.586L225.942 245.42L227.258 244.425L227.543 252.934C229.051 252.346 230.481 252.256 231.833 252.663C233.196 253.086 234.399 253.995 235.439 255.39C236.826 257.249 237.328 259.126 236.945 261.02C236.546 262.926 235.357 264.627 233.378 266.123L227.06 270.898ZM234.212 256.354C233.1 254.864 231.814 254.043 230.355 253.893C228.895 253.743 227.336 254.294 225.676 255.549L220.459 259.492L227.455 268.869L232.457 265.089C234.149 263.811 235.152 262.413 235.468 260.896C235.779 259.407 235.361 257.893 234.212 256.354Z" fill="white"/>
    <path d="M208.602 279.554L215.216 275.892L205.808 258.675L207.146 257.934L216.555 275.151L223.169 271.49L223.831 272.701L209.264 280.765L208.602 279.554Z" fill="white"/>
    <path d="M204.096 282.747L202.661 283.279L196.327 265.982L189.245 288.256L187.979 288.725L180.758 269.006L182.192 268.474L188.516 285.742L195.609 263.497L196.875 263.028L204.096 282.747Z" fill="white"/>
    <path d="M163.28 273.582L163.011 272.229L177.215 269.365L181.315 289.961L167.552 292.736L167.282 291.382L179.546 288.91L177.929 280.789L166.96 283.001L166.696 281.677L177.666 279.465L175.985 271.021L163.28 273.582Z" fill="white"/>
 </symbol>

  
</svg>
