<svg xmlns="http://www.w3.org/2000/svg">
  <symbol id="star" viewBox="0 0 103 103">
    <path d="M51.5 0L53.0434 31.8894L59.5564 0.634052L56.0922 32.3723L67.4144 2.52059L59.0279 33.3261L74.8805 5.61316L61.7782 34.7275L81.7709 9.83562L64.2755 36.5419L87.916 15.084L66.4581 38.7245L93.1644 21.2291L68.2725 41.2218L97.3868 28.1195L69.6739 43.9721L100.479 35.5856L70.6277 46.9078L102.366 43.4436L71.1106 49.9566L103 51.5L71.1106 53.0434L102.366 59.5564L70.6277 56.0922L100.479 67.4144L69.6739 59.0279L97.3868 74.8805L68.2725 61.7782L93.1644 81.7709L66.4581 64.2755L87.916 87.916L64.2755 66.4581L81.7709 93.1644L61.7782 68.2725L74.8805 97.3868L59.0279 69.6739L67.4144 100.479L56.0922 70.6277L59.5564 102.366L53.0434 71.1106L51.5 103L49.9566 71.1106L43.4436 102.366L46.9078 70.6277L35.5856 100.479L43.9721 69.6739L28.1195 97.3868L41.2218 68.2725L21.2291 93.1644L38.7245 66.4581L15.084 87.916L36.5419 64.2755L9.83562 81.7709L34.7275 61.7782L5.61316 74.8805L33.3261 59.0279L2.52059 67.4144L32.3723 56.0922L0.634052 59.5564L31.8894 53.0434L0 51.5L31.8894 49.9566L0.634052 43.4436L32.3723 46.9078L2.52059 35.5856L33.3261 43.9721L5.61316 28.1195L34.7275 41.2218L9.83562 21.2291L36.5419 38.7245L15.084 15.084L38.7245 36.5419L21.2291 9.83562L41.2218 34.7275L28.1195 5.61316L43.9721 33.3261L35.5856 2.52059L46.9078 32.3723L43.4436 0.634052L49.9566 31.8894L51.5 0Z" fill="#D73B30"/>
  </symbol>

  <symbol id="dtext" viewBox="0 0 462 460" fill="none">
      <path d="M193.757 396.982C190.333 395.786 187.925 394.027 186.533 391.705C185.141 389.383 184.946 386.786 185.948 383.916C186.95 381.046 188.719 379.136 191.254 378.185C193.79 377.235 196.769 377.357 200.193 378.553L206.726 380.835L209.522 372.829L213.298 374.147L204.067 400.582L193.757 396.982ZM199.159 381.878C196.767 381.043 194.766 380.909 193.156 381.476C191.536 382.069 190.393 383.322 189.724 385.235C189.056 387.149 189.176 388.829 190.083 390.275C190.981 391.747 192.626 392.9 195.018 393.736L201.438 395.978L205.579 384.12L199.159 381.878Z" fill="#D73B30"/>
      <path d="M171.032 387.139L167.677 385.035L179.152 366.736L153.647 376.238L150.529 374.282L165.405 350.561L168.726 352.644L157.272 370.909L182.79 361.463L185.907 363.418L171.032 387.139Z" fill="#D73B30"/>
      <path d="M127.239 332.217C129.929 329.667 132.929 328.606 136.237 329.035C139.545 329.463 142.881 331.335 146.244 334.651L148.392 332.615L150.951 335.315L148.803 337.351C151.914 340.906 153.604 344.356 153.872 347.702C154.123 351.028 152.912 353.957 150.241 356.489C147.551 359.038 144.551 360.099 141.243 359.671C137.916 359.223 134.562 357.35 131.179 354.053L129.118 356.006L126.559 353.306L128.621 351.353C125.528 347.818 123.866 344.378 123.635 341.033C123.366 337.687 124.568 334.748 127.239 332.217ZM143.979 336.797C141.366 334.35 138.866 332.972 136.479 332.663C134.054 332.353 131.845 333.142 129.851 335.031C127.896 336.884 127.027 339.03 127.245 341.469C127.425 343.907 128.648 346.477 130.914 349.179L143.979 336.797ZM147.572 353.672C149.546 351.801 150.444 349.647 150.264 347.209C150.047 344.77 148.805 342.199 146.538 339.497L133.473 351.879C136.086 354.326 138.595 355.714 141.001 356.042C143.388 356.352 145.578 355.562 147.572 353.672Z" fill="#D73B30"/>
      <path d="M112.197 314.562C110.644 311.612 110.118 309.011 110.62 306.758C111.109 304.481 112.639 302.666 115.211 301.312C117.925 299.883 120.436 299.645 122.747 300.599C125.045 301.529 127.02 303.563 128.672 306.701L134.057 316.93L109.281 329.975L107.436 326.471L116.073 321.924L112.197 314.562ZM125.95 308.315C124.869 306.262 123.583 304.935 122.091 304.334C120.564 303.722 118.915 303.882 117.145 304.814C113.747 306.603 113.167 309.621 115.403 313.868L118.869 320.451L129.416 314.898L125.95 308.315ZM96.6843 306.048L94.8394 302.544L119.615 289.5L121.46 293.004L96.6843 306.048Z" fill="#D73B30"/>
      <path d="M87.7745 219.751L87.3169 229.34L111.809 230.509L111.622 234.424L87.13 233.255L86.6744 242.805L83.1983 242.639L84.2984 219.585L87.7745 219.751Z" fill="#D73B30"/>
      <path d="M111.289 194.96L107.562 209.366L113.568 214.1L112.536 218.089L88.6039 198.801L89.5956 194.967L119.889 189.665L118.837 193.731L111.289 194.96ZM107.84 195.514L93.0447 197.925L104.815 207.209L107.84 195.514Z" fill="#D73B30"/>
      <path d="M102.662 161.997C104.307 158.765 106.374 156.616 108.863 155.549C111.351 154.482 113.95 154.639 116.659 156.018C119.368 157.398 121.023 159.408 121.624 162.048C122.224 164.688 121.702 167.624 120.056 170.855L116.916 177.022L124.472 180.87L122.657 184.435L97.706 171.728L102.662 161.997ZM116.9 169.383C118.05 167.126 118.452 165.161 118.107 163.489C117.737 161.804 116.65 160.502 114.844 159.583C113.038 158.663 111.357 158.555 109.802 159.259C108.222 159.951 106.858 161.426 105.708 163.683L102.622 169.743L113.814 175.443L116.9 169.383Z" fill="#D73B30"/>
      <path d="M115.473 140.803L118.009 137.762L134.597 151.597L128.616 125.045L130.973 122.219L152.476 140.153L149.965 143.164L133.408 129.354L139.333 155.912L136.976 158.738L115.473 140.803Z" fill="#D73B30"/>
      <path d="M175.792 104.804C177.956 107.813 178.603 110.928 177.733 114.148C176.863 117.369 174.559 120.422 170.821 123.308L172.549 125.711L169.529 127.883L167.801 125.48C163.86 128.084 160.213 129.294 156.862 129.11C153.532 128.91 150.792 127.316 148.644 124.329C146.48 121.319 145.832 118.204 146.702 114.984C147.594 111.748 149.901 108.676 153.624 105.768L151.966 103.463L154.986 101.291L156.644 103.596C160.563 101.008 164.196 99.824 167.541 100.046C170.893 100.23 173.643 101.816 175.792 104.804ZM168.999 120.775C171.775 118.515 173.478 116.224 174.106 113.9C174.74 111.539 174.255 109.243 172.651 107.013C171.078 104.827 169.069 103.677 166.623 103.564C164.183 103.414 161.471 104.28 158.489 106.162L168.999 120.775ZM151.794 122.063C153.382 124.271 155.396 125.45 157.836 125.601C160.282 125.714 162.997 124.829 165.979 122.947L155.469 108.334C152.693 110.593 150.98 112.893 150.33 115.232C149.702 117.556 150.19 119.833 151.794 122.063Z" fill="#D73B30"/>
      <path d="M195.312 92.2761C198.443 91.1345 201.092 90.9638 203.257 91.764C205.447 92.5551 207.04 94.3161 208.035 97.047C209.085 99.9282 208.983 102.449 207.727 104.61C206.496 106.762 204.214 108.445 200.882 109.66L190.021 113.619L180.432 87.3122L184.152 85.9559L187.495 95.1256L195.312 92.2761ZM199.65 106.745C201.829 105.951 203.317 104.855 204.114 103.458C204.926 102.026 204.989 100.371 204.304 98.4921C202.989 94.8843 200.077 93.9024 195.567 95.5464L188.577 98.0945L192.66 109.294L199.65 106.745ZM205.836 78.0512L209.557 76.6949L219.147 103.002L215.426 104.358L205.836 78.0512Z" fill="#D73B30"/>
      <path d="M292.548 80.8406L283.108 79.0962L278.652 103.208L274.797 102.496L279.253 78.3838L269.852 76.6466L270.485 73.2246L293.18 77.4186L292.548 80.8406Z" fill="#D73B30"/>
      <path d="M313.947 107.479L300.174 101.847L294.673 107.161L290.86 105.601L313.195 84.4837L316.86 85.9826L318.036 116.714L314.148 115.124L313.947 107.479ZM313.862 103.987L313.464 89.0021L302.681 99.4151L313.862 103.987Z" fill="#D73B30"/>
      <path d="M347.771 103.368C350.752 105.434 352.603 107.771 353.325 110.381C354.047 112.99 353.542 115.544 351.811 118.043C350.079 120.541 347.865 121.911 345.168 122.15C342.471 122.39 339.632 121.477 336.651 119.411L330.964 115.469L326.133 122.439L322.846 120.16L338.796 97.1472L347.771 103.368ZM338.535 116.483C340.617 117.926 342.51 118.589 344.213 118.471C345.932 118.332 347.369 117.43 348.523 115.764C349.678 114.099 350.011 112.448 349.523 110.811C349.05 109.153 347.772 107.603 345.69 106.16L340.101 102.286L332.946 112.609L338.535 116.483Z" fill="#D73B30"/>
      <path d="M367.047 118.917L369.719 121.839L353.776 136.413L380.892 134.062L383.375 136.778L362.709 155.67L360.064 152.777L375.977 138.23L348.864 140.525L346.381 137.809L367.047 118.917Z" fill="#D73B30"/>
      <path d="M394.597 183.533C391.324 185.273 388.15 185.494 385.076 184.199C382.002 182.903 379.287 180.209 376.931 176.116L374.317 177.505L372.571 174.22L375.185 172.831C373.135 168.575 372.427 164.799 373.061 161.503C373.707 158.23 375.655 155.731 378.905 154.004C382.178 152.264 385.352 152.042 388.426 153.338C391.513 154.657 394.246 157.357 396.626 161.437L399.134 160.105L400.879 163.39L398.371 164.722C400.409 168.954 401.093 172.713 400.423 175.998C399.789 179.295 397.847 181.806 394.597 183.533ZM379.686 174.652C381.551 177.707 383.593 179.702 385.811 180.638C388.065 181.584 390.405 181.412 392.83 180.123C395.209 178.86 396.619 177.023 397.06 174.615C397.537 172.217 397.044 169.414 395.581 166.205L379.686 174.652ZM380.726 157.43C378.324 158.706 376.884 160.543 376.407 162.941C375.966 165.35 376.477 168.158 377.94 171.367L393.835 162.92C391.97 159.865 389.922 157.858 387.691 156.899C385.473 155.964 383.151 156.141 380.726 157.43Z" fill="#D73B30"/>
      <path d="M404.383 204.562C405.092 207.819 404.905 210.466 403.82 212.504C402.742 214.567 400.782 215.909 397.942 216.527C394.946 217.18 392.462 216.739 390.49 215.203C388.523 213.694 387.162 211.207 386.407 207.741L383.947 196.446L411.305 190.486L412.148 194.355L402.612 196.433L404.383 204.562ZM389.461 206.912C389.955 209.179 390.84 210.801 392.118 211.778C393.427 212.776 395.058 213.062 397.013 212.636C400.765 211.819 402.13 209.065 401.108 204.375L399.524 197.105L387.877 199.643L389.461 206.912ZM417.061 216.906L417.904 220.775L390.546 226.736L389.703 222.867L417.061 216.906Z" fill="#D73B30"/>
  </symbol>


  <symbol id="text" viewBox="0 0 439 435" fill="none" >
    <path d="M46.0462 164.058L44.2074 173.48L68.2734 178.177L67.5226 182.025L43.4566 177.328L41.6255 186.711L38.2099 186.044L42.6307 163.392L46.0462 164.058Z" fill="#D73B30"/>
    <path d="M72.8969 142.926L67.1273 156.642L72.3854 162.195L70.7879 165.993L49.895 143.448L51.4304 139.798L82.172 138.93L80.5435 142.801L72.8969 142.926ZM69.4044 142.976L54.4157 143.223L64.7204 154.111L69.4044 142.976Z" fill="#D73B30"/>
    <path d="M69.1249 109.063C71.2206 106.103 73.5767 104.275 76.1932 103.579C78.8098 102.883 81.3586 103.413 83.8397 105.17C86.3208 106.926 87.6677 109.154 87.8805 111.854C88.0932 114.553 87.1518 117.382 85.0562 120.342L81.0575 125.99L87.9785 130.89L85.6671 134.155L62.8149 117.975L69.1249 109.063ZM82.1466 118.429C83.6105 116.362 84.2924 114.476 84.1923 112.771C84.0704 111.051 83.1824 109.606 81.5284 108.434C79.8743 107.263 78.2268 106.914 76.5857 107.386C74.923 107.842 73.3596 109.104 71.8958 111.172L67.9665 116.721L78.2173 123.979L82.1466 118.429Z" fill="#D73B30"/>
    <path d="M84.865 89.9433L87.8143 87.3007L102.228 103.388L100.148 76.2501L102.889 73.7944L121.573 94.6482L118.654 97.2641L104.267 81.2066L106.29 108.341L103.55 110.797L84.865 89.9433Z" fill="#D73B30"/>
    <path d="M149.754 63.04C151.461 66.3305 151.651 69.5062 150.324 72.5672C148.998 75.6283 146.277 78.3163 142.161 80.6315L143.523 83.2591L140.221 84.9718L138.858 82.3442C134.582 84.3516 130.799 85.0218 127.51 84.3549C124.244 83.6757 121.763 81.7027 120.069 78.4359C118.362 75.1455 118.172 71.9698 119.499 68.9087C120.849 65.8354 123.576 63.1294 127.68 60.7906L126.372 58.2695L129.674 56.5568L130.982 59.0779C135.234 57.0828 139 56.4366 142.278 57.1395C145.568 57.8064 148.06 59.7733 149.754 63.04ZM140.724 77.8618C143.798 76.0273 145.813 74.0056 146.771 71.7969C147.739 69.5522 147.591 67.2107 146.327 64.7725C145.087 62.3816 143.265 60.9535 140.86 60.4881C138.468 59.9868 135.66 60.4518 132.437 61.883L140.724 77.8618ZM123.513 76.6496C124.766 79.0641 126.588 80.5221 128.981 81.0234C131.385 81.4887 134.199 81.0058 137.422 79.5745L129.135 63.5957C126.061 65.4303 124.033 67.4581 123.052 69.6791C122.095 71.8878 122.249 74.2113 123.513 76.6496Z" fill="#D73B30"/>
    <path d="M170.88 53.4659C174.143 52.7889 176.789 53.0028 178.815 54.1076C180.868 55.2069 182.19 57.1796 182.78 60.0257C183.403 63.0285 182.937 65.5081 181.382 67.4647C179.853 69.4159 177.352 70.7517 173.879 71.472L162.56 73.8198L156.873 46.4033L160.751 45.5991L162.733 55.1556L170.88 53.4659ZM173.081 68.4103C175.352 67.9391 176.983 67.0698 177.973 65.8024C178.983 64.5034 179.286 62.8747 178.879 60.9164C178.1 57.1565 175.36 55.7639 170.66 56.7388L163.375 58.2498L165.796 69.9214L173.081 68.4103ZM183.35 40.9116L187.227 40.1073L192.914 67.5238L189.036 68.3281L183.35 40.9116Z" fill="#D73B30"/>
    <path d="M172.126 388.574L181.654 389.751L184.66 365.416L188.551 365.896L185.544 390.231L195.032 391.403L194.606 394.857L171.7 392.027L172.126 388.574Z" fill="#D73B30"/>
    <path d="M149.173 363.262L163.258 368.061L168.431 362.428L172.331 363.757L151.298 386.172L147.55 384.895L144.539 354.289L148.515 355.643L149.173 363.262ZM149.466 366.743L150.759 381.678L160.901 370.639L149.466 366.743Z" fill="#D73B30"/>
    <path d="M115.655 369.387C112.556 367.503 110.568 365.281 109.691 362.719C108.814 360.157 109.166 357.578 110.745 354.98C112.324 352.382 114.453 350.883 117.13 350.483C119.808 350.082 122.697 350.824 125.795 352.708L131.708 356.303L136.114 349.057L139.532 351.135L124.986 375.06L115.655 369.387ZM124.09 355.744C121.925 354.428 119.996 353.879 118.303 354.098C116.596 354.34 115.216 355.326 114.163 357.058C113.11 358.79 112.876 360.458 113.461 362.062C114.033 363.689 115.401 365.16 117.565 366.476L123.376 370.009L129.901 359.277L124.09 355.744Z" fill="#D73B30"/>
    <path d="M95.4838 355.019L92.642 352.262L107.685 336.761L80.7579 340.729L78.117 338.166L97.6167 318.072L100.43 320.802L85.4151 336.274L112.343 332.363L114.984 334.925L95.4838 355.019Z" fill="#D73B30"/>
    <path d="M64.1199 292.165C67.2833 290.233 70.438 289.822 73.5841 290.931C76.7302 292.041 79.6016 294.568 82.1982 298.513L84.7243 296.97L86.6632 300.145L84.1371 301.687C86.4379 305.813 87.3703 309.54 86.9345 312.868C86.4848 316.174 84.6897 318.786 81.549 320.704C78.3856 322.635 75.2309 323.047 72.0848 321.937C68.9248 320.805 66.0352 318.273 63.4158 314.342L60.992 315.823L59.0531 312.648L61.4769 311.168C59.19 307.065 58.2828 303.354 58.7553 300.034C59.1911 296.706 60.9793 294.083 64.1199 292.165ZM79.5355 300.139C77.491 297.2 75.3337 295.331 73.0635 294.53C70.7567 293.72 68.4313 294.031 66.0872 295.463C63.7886 296.867 62.4911 298.784 62.1946 301.215C61.8614 303.637 62.5211 306.405 64.1737 309.521L79.5355 300.139ZM79.5267 317.392C81.8481 315.975 83.1753 314.055 83.5085 311.633C83.805 309.202 83.1269 306.429 81.4744 303.314L66.1126 312.695C68.1571 315.634 70.3214 317.515 72.6054 318.338C74.8755 319.139 77.1827 318.824 79.5267 317.392Z" fill="#D73B30"/>
    <path d="M53.095 271.759C52.192 268.55 52.2208 265.896 53.1815 263.798C54.135 261.673 56.0108 260.217 58.8087 259.43C61.7607 258.599 64.2669 258.891 66.3272 260.306C68.3803 261.695 69.8872 264.096 70.848 267.51L73.9797 278.638L47.0267 286.223L45.9539 282.412L55.3489 279.768L53.095 271.759ZM67.8495 268.521C67.221 266.287 66.2401 264.721 64.9066 263.822C63.5403 262.905 61.8946 262.717 59.9694 263.259C56.2729 264.299 55.0749 267.129 56.3752 271.75L58.3908 278.911L69.865 275.682L67.8495 268.521ZM39.7014 260.195L38.6287 256.383L65.5816 248.797L66.6544 252.609L39.7014 260.195Z" fill="#D73B30"/>
    <path d="M272.687 46.0625L263.234 44.3885L258.958 68.5328L255.098 67.8492L259.374 43.7049L249.961 42.0378L250.567 38.6111L273.294 42.6359L272.687 46.0625Z" fill="#D73B30"/>
    <path d="M294.284 72.5406L280.469 67.0112L275.009 72.3655L271.184 70.8345L293.361 49.5513L297.037 51.0228L298.442 81.7445L294.542 80.1838L294.284 72.5406ZM294.173 69.0495L293.664 54.0674L282.958 64.5606L294.173 69.0495Z" fill="#D73B30"/>
    <path d="M328.076 68.1781C331.072 70.2218 332.941 72.5456 333.683 75.1496C334.424 77.7536 333.938 80.3113 332.225 82.8227C330.512 85.3341 328.308 86.7197 325.613 86.9795C322.918 87.2393 320.073 86.3474 317.077 84.3038L311.36 80.4043L306.581 87.4097L303.277 85.1557L319.055 62.0246L328.076 68.1781ZM318.938 81.3613C321.031 82.7888 322.929 83.4377 324.631 83.3079C326.349 83.156 327.779 82.2429 328.921 80.5687C330.063 78.8944 330.384 77.241 329.883 75.6085C329.398 73.954 328.109 72.4129 326.016 70.9853L320.399 67.1535L313.321 77.5294L318.938 81.3613Z" fill="#D73B30"/>
    <path d="M347.468 83.582L350.162 86.4848L334.328 101.177L361.426 98.6236L363.929 101.321L343.404 120.367L340.738 117.493L356.542 102.828L329.446 105.325L326.943 102.628L347.468 83.582Z" fill="#D73B30"/>
    <path d="M375.499 147.991C372.239 149.755 369.067 150 365.983 148.728C362.899 147.455 360.164 144.781 357.778 140.706L355.174 142.114L353.404 138.842L356.008 137.434C353.926 133.194 353.19 129.423 353.799 126.122C354.421 122.845 356.351 120.33 359.587 118.579C362.847 116.816 366.019 116.57 369.103 117.843C372.199 119.139 374.953 121.818 377.363 125.881L379.861 124.53L381.631 127.801L379.133 129.153C381.202 133.37 381.914 137.123 381.268 140.413C380.659 143.714 378.736 146.24 375.499 147.991ZM360.522 139.221C362.41 142.263 364.466 144.243 366.691 145.161C368.953 146.09 371.291 145.902 373.707 144.595C376.076 143.313 377.472 141.466 377.895 139.054C378.355 136.653 377.841 133.854 376.353 130.656L360.522 139.221ZM361.433 121.992C359.041 123.286 357.615 125.134 357.156 127.535C356.732 129.947 357.264 132.752 358.752 135.949L374.583 127.385C372.695 124.343 370.633 122.351 368.395 121.409C366.17 120.491 363.849 120.685 361.433 121.992Z" fill="#D73B30"/>
    <path d="M385.441 168.947C386.174 172.198 386.007 174.847 384.937 176.892C383.874 178.964 381.925 180.32 379.089 180.96C376.098 181.635 373.611 181.212 371.627 179.691C369.65 178.197 368.27 175.72 367.49 172.26L364.945 160.984L392.258 154.819L393.129 158.682L383.609 160.831L385.441 168.947ZM370.537 171.408C371.048 173.671 371.945 175.287 373.23 176.254C374.546 177.242 376.18 177.516 378.131 177.075C381.877 176.23 383.221 173.466 382.164 168.784L380.526 161.526L368.899 164.151L370.537 171.408ZM398.211 181.196L399.082 185.059L371.769 191.223L370.898 187.36L398.211 181.196Z" fill="#D73B30"/>
    <path d="M392.692 268.66L394.201 259.18L369.986 255.326L370.602 251.454L394.817 255.308L396.32 245.867L399.757 246.414L396.129 269.207L392.692 268.66Z" fill="#D73B30"/>
    <path d="M366.595 290.716L371.883 276.807L366.434 271.441L367.898 267.59L389.565 289.391L388.158 293.093L357.465 295.033L358.958 291.108L366.595 290.716ZM370.084 290.544L385.055 289.774L374.377 279.253L370.084 290.544Z" fill="#D73B30"/>
    <path d="M371.547 324.427C369.556 327.458 367.265 329.367 364.674 330.154C362.084 330.941 359.518 330.5 356.977 328.831C354.436 327.162 353.012 324.983 352.706 322.293C352.399 319.602 353.241 316.742 355.232 313.71L359.031 307.927L351.943 303.271L354.139 299.928L377.542 315.3L371.547 324.427ZM358.206 315.521C356.816 317.638 356.2 319.547 356.359 321.247C356.541 322.962 357.479 324.375 359.173 325.488C360.867 326.601 362.526 326.892 364.149 326.364C365.795 325.849 367.313 324.534 368.704 322.416L372.438 316.733L361.94 309.837L358.206 315.521Z" fill="#D73B30"/>
    <path d="M356.483 344.085L353.628 346.829L338.662 331.254L341.688 358.303L339.034 360.853L319.633 340.664L322.46 337.948L337.399 353.493L334.429 326.446L337.082 323.896L356.483 344.085Z" fill="#D73B30"/>
    <path d="M292.573 373.235C290.753 370.006 290.452 366.839 291.671 363.734C292.889 360.628 295.515 357.847 299.548 355.389L298.095 352.811L301.335 350.984L302.789 353.563C306.992 351.407 310.749 350.605 314.06 351.157C317.348 351.722 319.896 353.607 321.703 356.813C323.523 360.042 323.824 363.209 322.605 366.314C321.364 369.433 318.733 372.232 314.713 374.713L316.107 377.187L312.867 379.014L311.472 376.54C307.292 378.682 303.552 379.459 300.251 378.871C296.94 378.32 294.381 376.441 292.573 373.235ZM301.08 358.107C298.072 360.048 296.129 362.139 295.249 364.38C294.359 366.657 294.589 368.992 295.938 371.384C297.261 373.73 299.131 375.094 301.55 375.475C303.959 375.893 306.749 375.33 309.92 373.787L301.08 358.107ZM318.323 358.718C316.987 356.349 315.115 354.955 312.706 354.538C310.287 354.157 307.492 354.738 304.321 356.28L313.161 371.96C316.169 370.02 318.124 367.922 319.027 365.668C319.907 363.428 319.672 361.111 318.323 358.718Z" fill="#D73B30"/>
    <path d="M271.795 383.541C268.557 384.332 265.906 384.21 263.842 383.177C261.752 382.15 260.362 380.225 259.673 377.401C258.946 374.422 259.325 371.927 260.811 369.918C262.271 367.914 264.723 366.492 268.169 365.651L279.399 362.91L286.039 390.111L282.192 391.05L279.878 381.568L271.795 383.541ZM269.074 368.683C266.82 369.233 265.22 370.159 264.275 371.46C263.311 372.793 263.066 374.432 263.54 376.375C264.45 380.105 267.237 381.401 271.9 380.263L279.128 378.499L276.301 366.919L269.074 368.683ZM259.77 396.523L255.923 397.462L249.283 370.261L253.13 369.322L259.77 396.523Z" fill="#D73B30"/>
  </symbol>

</svg>