<svg xmlns="http://www.w3.org/2000/svg">
  <defs>
    <filter id="filter-3" width="110%" height="110%" filterUnits="userSpaceOnUse" color-interpolation-filters="sRGB">
      <feFlood flood-opacity="0" result="BackgroundImageFix"/>
      <feColorMatrix in="SourceAlpha" type="matrix" values="0 0 0 0 0 0 0 0 0 0 0 0 0 0 0 0 0 0 127 0"/>
      <feOffset dy="4"/>
      <feGaussianBlur stdDeviation="10"/>
      <feColorMatrix type="matrix" values="0 0 0 0 0.844931 0 0 0 0 0.231532 0 0 0 0 0.188403 0 0 0 1 0"/>
      <feBlend mode="normal" in2="BackgroundImageFix" result="effect1_dropShadow"/>
      <feBlend mode="normal" in="SourceGraphic" in2="effect1_dropShadow" result="shape"/>
    </filter>

    <filter id="filter-7" width="110%" height="110%" filterUnits="userSpaceOnUse" color-interpolation-filters="sRGB">
      <feFlood flood-opacity="0" result="BackgroundImageFix"/>
      <feColorMatrix in="SourceAlpha" type="matrix" values="0 0 0 0 0 0 0 0 0 0 0 0 0 0 0 0 0 0 127 0"/>
      <feOffset dy="4"/>
      <feGaussianBlur stdDeviation="2"/>
      <feColorMatrix type="matrix" values="0 0 0 0 0.933333 0 0 0 0 0.552941 0 0 0 0 0.0117647 0 0 0 1 0"/>
      <feBlend mode="normal" in2="BackgroundImageFix" result="effect1_dropShadow"/>
      <feBlend mode="normal" in="SourceGraphic" in2="effect1_dropShadow" result="shape"/>
    </filter>

    <clipPath id="clip-6">
      <rect x="31.5" y="26.5" width="71" height="69"/>
    </clipPath>
  </defs>


  <symbol id="figure-1" viewBox="0 0 231 132" fill="none">
    <path d="M2 62L2.33333 63.7997L2.66667 65.5978L3 67.3927L3.33333 69.1827L3.66667 70.9662L4 72.7417L4.33333 74.5075L4.66667 76.2621L5 78.0038L5.33333 79.7312L5.66667 81.4425L6 83.1364L6.33333 84.8113L6.66667 86.4656L7 88.0979L7.33333 89.7067L7.66667 91.2906L8 92.8481L8.33333 94.3779L8.66667 95.8785L9 97.3486L9.33333 98.787L9.66667 100.192L10 101.563L10.3333 102.898L10.6667 104.197L11 105.457L11.3333 106.679L11.6667 107.86L12 109L12.3333 110.097L12.6667 111.151L13 112.162L13.3333 113.126L13.6667 114.045L14 114.917L14.3333 115.742L14.6667 116.518L15 117.245L15.3333 117.922L15.6667 118.549L16 119.125L16.3333 119.65L16.6667 120.123L17 120.543L17.3333 120.911L17.6667 121.226L18 121.487L18.3333 121.695L18.6667 121.85L19 121.95L19.3333 121.996L19.6667 121.989L20 121.927L20.3333 121.812L20.6667 121.643L21 121.42L21.3333 121.143L21.6667 120.813L22 120.431L22.3333 119.996L22.6667 119.508L23 118.969L23.3333 118.379L23.6667 117.738L24 117.046L24.3333 116.305L24.6667 115.516L25 114.678L25.3333 113.793L25.6667 112.861L26 111.883L26.3333 110.86L26.6667 109.794L27 108.684L27.3333 107.533L27.6667 106.34L28 105.108L28.3333 103.837L28.6667 102.528L29 101.182L29.3333 99.8018L29.6667 98.3872L30 96.9398L30.3333 95.461L30.6667 93.952L31 92.4144L31.3333 90.8493L31.6667 89.2583L32 87.6427L32.3333 86.0041L32.6667 84.3439L33 82.6636L33.3333 80.9646L33.6667 79.2486L34 77.5171L34.3333 75.7716L34.6667 74.0138L35 72.2451L35.3333 70.4672L35.6667 68.6816L36 66.8901L36.3333 65.0941L36.6667 63.2954L37 61.4955L37.3333 59.6961L37.6667 57.8987L38 56.105L38.3333 54.3167L38.6667 52.5352L39 50.7623L39.3333 48.9995L39.6667 47.2483L40 45.5105L40.3333 43.7875L40.6667 42.0808L41 40.3921L41.3333 38.7229L41.6667 37.0746L42 35.4487L42.3333 33.8468L42.6667 32.2701L43 30.7202L43.3333 29.1985L43.6667 27.7063L44 26.2449L44.3333 24.8157L44.6667 23.42L45 22.059L45.3333 20.734L45.6667 19.4461L46 18.1965L46.3333 16.9863L46.6667 15.8166L47 14.6884L47.3333 13.6029L47.6667 12.5609L48 11.5634L48.3333 10.6113L48.6667 9.70541L49 8.8466L49.3333 8.03563L49.6667 7.27322L50 6.56006L50.3333 5.8968L50.6667 5.28402L51 4.72229L51.3333 4.2121L51.6667 3.75391L52 3.34815L52.3333 2.99516L52.6667 2.69528L53 2.44877L53.3333 2.25584L53.6667 2.11669L54 2.03142L54.3333 2.00013L54.6667 2.02282L55 2.0995L55.3333 2.23008L55.6667 2.41445L56 2.65244L56.3333 2.94384L56.6667 3.28839L57 3.68577L57.3333 4.13563L57.6667 4.63757L58 5.19113L58.3333 5.79581L58.6667 6.45107L59 7.15633L59.3333 7.91093L59.6667 8.71422L60 9.56546L60.3333 10.4639L60.6667 11.4087L61 12.399L61.3333 13.434L61.6667 14.5127L62 15.6341L62.3333 16.7972L62.6667 18.001L63 19.2445L63.3333 20.5263L63.6667 21.8456L64 23.2009L64.3333 24.5912L64.6667 26.0151L65 27.4714L65.3333 28.9588L65.6667 30.4759L66 32.0214L66.3333 33.5939L66.6667 35.192L67 36.8141L67.3333 38.4589L67.6667 40.125L68 41.8107L68.3333 43.5145L68.6667 45.235L69 46.9706L69.3333 48.7197L69.6667 50.4808L70 52.2522L70.3333 54.0324L70.6667 55.8198L71 57.6128L71.3333 59.4096L71.6667 61.2089L72 63.0088L72.3333 64.8078L72.6667 66.6043L73 68.3967L73.3333 70.1833L73.6667 71.9625L74 73.7327L74.3333 75.4924L74.6667 77.24L75 78.9739L75.3333 80.6924L75.6667 82.3942L76 84.0776L76.3333 85.7411L76.6667 87.3833L77 89.0026L77.3333 90.5976L77.6667 92.1669L78 93.709L78.3333 95.2226L78.6667 96.7063L79 98.1588L79.3333 99.5787L79.6667 100.965L80 102.316L80.3333 103.631L80.6667 104.908L81 106.147L81.3333 107.346L81.6667 108.504L82 109.62L82.3333 110.693L82.6667 111.723L83 112.708L83.3333 113.647L83.6667 114.54L84 115.385L84.3333 116.183L84.6667 116.932L85 117.631L85.3333 118.28L85.6667 118.878L86 119.426L86.3333 119.921L86.6667 120.365L87 120.756L87.3333 121.094L87.6667 121.379L88 121.611L88.3333 121.788L88.6667 121.913L89 121.983L89.3333 121.999L89.6667 121.961L90 121.869L90.3333 121.724L90.6667 121.524L91 121.271L91.3333 120.965L91.6667 120.605L92 120.193L92.3333 119.729L92.6667 119.212L93 118.644L93.3333 118.026L93.6667 117.356L94 116.637L94.3333 115.869L94.6667 115.052L95 114.187L95.3333 113.276L95.6667 112.318L96 111.315L96.3333 110.268L96.6667 109.177L97 108.044L97.3333 106.869L97.6667 105.654L98 104.4L98.3333 103.108L98.6667 101.778L99 100.413L99.3333 99.013L99.6667 97.5799L100 96.1147L100.333 94.6189L100.667 93.0936L101 91.5405L101.333 89.9607L101.667 88.3557L102 86.7271L102.333 85.0761L102.667 83.4045L103 81.7135L103.333 80.0048L103.667 78.2799L104 76.5404L104.333 74.7878L104.667 73.0237L105 71.2496L105.333 69.4672L105.667 67.6781L106 65.8839L106.333 64.0862L106.667 62.2866L107 60.4868L107.333 58.6883L107.667 56.8928L108 55.1019L108.333 53.3172L108.667 51.5403L109 49.7729L109.333 48.0164L109.667 46.2725L110 44.5428L110.333 42.8288L110.667 41.132L111 39.4541L111.333 37.7964L111.667 36.1605L112 34.5478L112.333 32.9598L112.667 31.398L113 29.8638L113.333 28.3584L113.667 26.8833L114 25.4398L114.333 24.0293L114.667 22.6529L115 21.3119L115.333 20.0075L115.667 18.7409L116 17.5132L116.333 16.3256L116.667 15.1791L117 14.0747L117.333 13.0134L117.667 11.9963L118 11.0241L118.333 10.0978L118.667 9.21821L119 8.38612L119.333 7.60228L119.667 6.8674L120 6.18213L120.333 5.54709L120.667 4.96286L121 4.42995L121.333 3.94886L121.667 3.52L122 3.14378L122.333 2.82052L122.667 2.55052L123 2.33402L123.333 2.17122L123.667 2.06225L124 2.00723L124.333 2.0062L124.667 2.05915L125 2.16605L125.333 2.3268L125.667 2.54125L126 2.8092L126.333 3.13043L126.667 3.50463L127 3.93147L127.333 4.41058L127.667 4.94151L128 5.52378L128.333 6.15689L128.667 6.84024L129 7.57324L129.333 8.35522L129.667 9.18547L130 10.0633L130.333 10.9878L130.667 11.9582L131 12.9737L131.333 14.0333L131.667 15.136L132 16.2809L132.333 17.467L132.667 18.6932L133 19.9583L133.333 21.2612L133.667 22.6008L134 23.9759L134.333 25.3852L134.667 26.8275L135 28.3014L135.333 29.8056L135.667 31.3388L136 32.8996L136.333 34.4865L136.667 36.0983L137 37.7333L137.333 39.3902L137.667 41.0674L138 42.7635L138.333 44.4769L138.667 46.206L139 47.9494L139.333 49.7054L139.667 51.4725L140 53.249L140.333 55.0335L140.667 56.8242L141 58.6195L141.333 60.4179L141.667 62.2177L142 64.0173L142.333 65.8151L142.667 67.6095L143 69.3988L143.333 71.1815L143.667 72.9559L144 74.7204L144.333 76.4735L144.667 78.2136L145 79.9391L145.333 81.6484L145.667 83.3401L146 85.0125L146.333 86.6643L146.667 88.2938L147 89.8997L147.333 91.4804L147.667 93.0347L148 94.561L148.333 96.058L148.667 97.5244L149 98.9588L149.333 100.36L149.667 101.726L150 103.057L150.333 104.351L150.667 105.607L151 106.824L151.333 108L151.667 109.135L152 110.227L152.333 111.276L152.667 112.281L153 113.24L153.333 114.153L153.667 115.02L154 115.838L154.333 116.609L154.667 117.33L155 118.001L155.333 118.622L155.667 119.192L156 119.71L156.333 120.177L156.667 120.591L157 120.952L157.333 121.26L157.667 121.515L158 121.717L158.333 121.865L158.667 121.959L159 121.998L159.333 121.984L159.667 121.916L160 121.794L160.333 121.618L160.667 121.389L161 121.106L161.333 120.77L161.667 120.381L162 119.939L162.333 119.446L162.667 118.9L163 118.304L163.333 117.657L163.667 116.959L164 116.212L164.333 115.417L164.667 114.573L165 113.682L165.333 112.745L165.667 111.762L166 110.734L166.333 109.662L166.667 108.547L167 107.391L167.333 106.193L167.667 104.956L168 103.68L168.333 102.367L168.667 101.017L169 99.6324L169.333 98.2138L169.667 96.7625L170 95.28L170.333 93.7675L170.667 92.2265L171 90.6582L171.333 89.0641L171.667 87.4457L172 85.8044L172.333 84.1416L172.667 82.459L173 80.7579L173.333 79.0399L173.667 77.3067L174 75.5596L174.333 73.8003L174.667 72.0304L175 70.2515L175.333 68.4652L175.667 66.673L176 64.8766L176.333 63.0777L176.667 61.2778L177 59.4785L177.333 57.6815L177.667 55.8884L178 54.1007L178.333 52.3202L178.667 50.5484L179 48.7869L179.333 47.0373L179.667 45.3012L180 43.5801L180.333 41.8756L180.667 40.1891L181 38.5223L181.333 36.8767L181.667 35.2536L182 33.6546L182.333 32.0812L182.667 30.5346L183 29.0164L183.333 27.5278L183.667 26.0703L184 24.6451L184.333 23.2535L184.667 21.8968L185 20.5762L185.333 19.2928L185.667 18.0479L186 16.8426L186.333 15.6779L186.667 14.5548L187 13.4745L187.333 12.4378L187.667 11.4458L188 10.4992L188.333 9.59899L188.667 8.74593L189 7.9408L189.333 7.18431L189.667 6.47716L190 5.81997L190.333 5.21334L190.667 4.65781L191 4.15389L191.333 3.70203L191.667 3.30263L192 2.95605L192.333 2.66261L192.667 2.42257L193 2.23615L193.333 2.1035L193.667 2.02477L194 2L194.333 2.02923L194.667 2.11243L195 2.24952L195.333 2.44039L195.667 2.68486L196 2.9827L196.333 3.33366L196.667 3.73741L197 4.1936L197.333 4.7018L197.667 5.26157L198 5.87241L198.333 6.53375L198.667 7.24501L199 8.00554L199.333 8.81467L199.667 9.67166L200 10.5757L200.333 11.5261L200.667 12.5219L201 13.5622L201.333 14.6461L201.667 15.7726L202 16.9407L202.333 18.1494L202.667 19.3975L203 20.684L203.333 22.0076L203.667 23.3673L204 24.7617L204.333 26.1896L204.667 27.6497L205 29.1408L205.333 30.6614L205.667 32.2103L206 33.7859L206.333 35.3869L206.667 37.0119L207 38.6594L207.333 40.3279L207.667 42.0159L208 43.7218L208.333 45.4442L208.667 47.1815L209 48.9322L209.333 50.6946L209.667 52.4672L210 54.2483L210.333 56.0365L210.667 57.83L211 59.6272L211.333 61.4266L2 62Z" stroke="white" stroke-width="2"/>
    <path d="M206 13L206.509 23.5266L208.659 13.2093L207.516 23.686L211.253 13.832L208.485 24.0009L213.718 14.8529L209.393 24.4634L215.992 16.2467L210.217 25.0624L218.021 17.9792L210.938 25.7829L219.753 20.0077L211.537 26.6072L221.147 22.2822L211.999 27.5151L222.168 24.7467L212.314 28.4841L222.791 27.3406L212.473 29.4905L223 30L212.473 30.5095L222.791 32.6594L212.314 31.5159L222.168 35.2533L211.999 32.4849L221.147 37.7178L211.537 33.3928L219.753 39.9923L210.938 34.2171L218.021 42.0208L210.217 34.9376L215.992 43.7533L209.393 35.5366L213.718 45.1471L208.485 35.9991L211.253 46.168L207.516 36.314L208.659 46.7907L206.509 36.4734L206 47L205.491 36.4734L203.341 46.7907L204.484 36.314L200.747 46.168L203.515 35.9991L198.282 45.1471L202.607 35.5366L196.008 43.7533L201.783 34.9376L193.979 42.0208L201.062 34.2171L192.247 39.9923L200.463 33.3928L190.853 37.7178L200.001 32.4849L189.832 35.2533L199.686 31.5159L189.209 32.6594L199.527 30.5095L189 30L199.527 29.4905L189.209 27.3406L199.686 28.4841L189.832 24.7467L200.001 27.5151L190.853 22.2822L200.463 26.6072L192.247 20.0077L201.062 25.7829L193.979 17.9792L201.783 25.0624L196.008 16.2467L202.607 24.4634L198.282 14.8529L203.515 24.0009L200.747 13.832L204.484 23.686L203.341 13.2093L205.491 23.5266L206 13Z" fill="#D73B30"/>
  </symbol>

  <symbol id="figure-2" viewBox="0 0 202 196" fill="none">
    <path d="M168.5 4L169.504 24.7436L173.741 4.41244L171.487 25.0577L178.852 5.63961L173.397 25.6782L183.709 7.65128L175.186 26.5897L188.191 10.3979L176.81 27.77L192.188 13.8119L178.23 29.1898L195.602 17.8092L179.41 30.8142L198.349 22.2913L180.322 32.6032L200.36 27.1479L180.942 34.5129L201.588 32.2594L181.256 36.496L202 37.5L181.256 38.504L201.588 42.7406L180.942 40.4871L200.36 47.8521L180.322 42.3968L198.349 52.7087L179.41 44.1858L195.602 57.1908L178.23 45.8102L192.188 61.1881L176.81 47.23L188.191 64.6021L175.186 48.4103L183.709 67.3487L173.397 49.3218L178.852 69.3604L171.487 49.9423L173.741 70.5876L169.504 50.2564L168.5 71L167.496 50.2564L163.259 70.5876L165.513 49.9423L158.148 69.3604L163.603 49.3218L153.291 67.3487L161.814 48.4103L148.809 64.6021L160.19 47.23L144.812 61.1881L158.77 45.8102L141.398 57.1908L157.59 44.1858L138.651 52.7087L156.678 42.3968L136.64 47.8521L156.058 40.4871L135.412 42.7406L155.744 38.504L135 37.5L155.744 36.496L135.412 32.2594L156.058 34.5129L136.64 27.1479L156.678 32.6032L138.651 22.2913L157.59 30.8142L141.398 17.8092L158.77 29.1898L144.812 13.8119L160.19 27.77L148.809 10.3979L161.814 26.5897L153.291 7.65128L163.603 25.6782L158.148 5.63961L165.513 25.0577L163.259 4.41244L167.496 24.7436L168.5 4Z" fill="#EE8D03"/>
    <path d="M18.6613 67.4437L85.755 23.5683L90.2053 103.611L18.6613 67.4437Z" stroke="#EE8D03" stroke-width="2"/>
    <path d="M119.434 138.284L119.434 78.8805L170.879 108.582L119.434 138.284Z" stroke="#EE8D03" stroke-width="2"/>
    <path d="M26.0546 130.682L108.388 39.1002L146.534 156.194L26.0546 130.682Z" stroke="#EE8D03" stroke-width="2"/>
  </symbol>
  

  <symbol id="figure-3" viewBox="0 0 200 169" fill="none" >
    <rect x="45.4141" y="98.5996" width="79.7299" height="79.7299" transform="rotate(-45.8272 45.4141 98.5996)" stroke="#D73B30" stroke-width="2"/>
    <path d="M1 136.5L20.5 96.5L31.5 146L56 52V168L63.5 96.5L67.5 146L81 61.5V131.5L96.5 80.5L108 136.5L132 26" stroke="#1D2688"/>
    <path d="M2 111.5L21.5 71.5L32.5 121L57 27V143L64.5 71.5L68.5 121L82 36.5V106.5L97.5 55.5L109 111.5L133 1" stroke="#1D2688"/>
    <path d="M68 132.5L87.5 92.5L98.5 142L123 48V164L130.5 92.5L134.5 142L148 57.5V127.5L163.5 76.5L175 132.5L199 22" stroke="#1D2688"/>
  </symbol>

  <symbol id="figure-4" viewBox="0 0 231 159" fill="none">
    <rect x="37" y="24" width="111" height="111" stroke="#1D2688" stroke-width="2"/>
    <rect x="95" y="91" width="67" height="67" stroke="#EE8D03" stroke-width="2"/>
    <rect x="125" y="41" width="67" height="67" stroke="#EE8D03" stroke-width="2"/>
    <rect x="176" y="47" width="39" height="39" stroke="#1D2688" stroke-width="2"/>
    <rect x="15" y="8" width="39" height="39" stroke="#D73B30" stroke-width="2"/>
    <rect x="1" y="1" width="21" height="21" stroke="#1D2688" stroke-width="2"/>
    <rect x="203" y="69" width="27" height="27" stroke="#1D2688" stroke-width="2"/>
  </symbol>

  <symbol id="figure-5" viewBox="0 0 177 142" fill="none">
    <circle cx="104.183" cy="78.4186" r="61.7341" transform="rotate(-90 104.183 78.4186)" stroke="#1D2688" stroke-width="2"/>
    <path d="M108.664 34.1687L129.821 33.1448L109.085 28.8237L130.141 31.122L110.336 23.6103L130.774 29.1744L112.388 18.6569L131.704 27.3496L115.19 14.0854L132.908 25.6928L118.672 10.0085L134.356 24.2447L122.748 6.52647L136.013 23.041L127.32 3.72507L137.837 22.1113L132.273 1.6733L139.785 21.4784L137.487 0.421677L141.808 21.1581L142.832 0.00101471L143.856 21.1581L148.177 0.421677L145.878 21.4784L153.39 1.6733L147.826 22.1113L158.344 3.72507L149.651 23.041L162.915 6.52647L151.308 24.2447L166.992 10.0085L152.756 25.6928L170.474 14.0854L153.959 27.3496L173.275 18.6569L154.889 29.1744L175.327 23.6103L155.522 31.122L176.579 28.8237L155.842 33.1448L176.999 34.1687L155.842 35.1927L176.579 39.5137L155.522 37.2154L175.327 44.7271L154.889 39.1631L173.275 49.6805L153.959 40.9878L170.474 54.252L152.756 42.6446L166.992 58.3289L151.308 44.0927L162.915 61.811L149.651 45.2964L158.344 64.6124L147.826 46.2262L153.39 66.6641L145.878 46.859L148.177 67.9158L143.856 47.1794L142.832 68.3364L141.808 47.1794L137.487 67.9158L139.785 46.859L132.273 66.6641L137.837 46.2262L127.32 64.6124L136.013 45.2964L122.748 61.811L134.356 44.0927L118.672 58.3289L132.908 42.6446L115.19 54.252L131.704 40.9878L112.388 49.6805L130.774 39.1631L110.336 44.7271L130.141 37.2154L109.085 39.5137L129.821 35.1927L108.664 34.1687Z" fill="white"/>
    <path d="M102.287 63.1098L94.0205 119.784L49.0719 84.2885L102.287 63.1098Z" stroke="#EE8D03"/>
    <path d="M73.6638 79.5525L33.1648 120.052L18.3411 64.7288L73.6638 79.5525Z" stroke="#EE8D03"/>
    <path d="M91.742 79.5525L51.2429 120.052L36.4193 64.7288L91.742 79.5525Z" stroke="#EE8D03"/>
  </symbol>

  <symbol id="figure-6" viewBox="0 0 159 137" fill="none">
    <path d="M1 35.4999C1 24.3333 9.4 1.89993 43 1.49993C76.6 1.09993 94.5 16.5 84.5 35.4999C74.5 50 46.1 74.4999 56.5 96.4999C66.9 118.5 94.0824 133.93 109 135.5C128 137.5 152.2 115.1 157 93.5C161.8 71.9 139 51.3333 132.5 41.5C129.167 38.3334 128.4 29.1 140 23.5" stroke="#EE8D03" stroke-width="2" stroke-linecap="round" stroke-dasharray="7 7"/>
    <g clip-path="url(#clip-6)">
    <path d="M1 35.4999C1 24.3333 9.4 1.89993 43 1.49993C76.6 1.09993 94.5 16.5 84.5 35.4999C74.5 50 46.1 74.4999 56.5 96.4999C66.9 118.5 94.0824 133.93 109 135.5C128 137.5 166.7 130.1 171.5 108.5C176.3 86.8999 164.5 61.8332 158 51.9999C154.667 48.8332 150.9 41.1 162.5 35.4999" stroke="#1D2688" stroke-width="2" stroke-linecap="round" stroke-dasharray="7 7"/>
    </g>
    <rect x="31.5" y="26.5" width="71" height="69" stroke="#D73B30"/>
  </symbol>

  <symbol id="figure-7" viewBox="0 0 249 194" fill="none" >   
    <path d="M38 132L38.3333 133.8L38.6667 135.598L39 137.393L39.3333 139.183L39.6667 140.966L40 142.742L40.3333 144.508L40.6667 146.262L41 148.004L41.3333 149.731L41.6667 151.443L42 153.136L42.3333 154.811L42.6667 156.466L43 158.098L43.3333 159.707L43.6667 161.291L44 162.848L44.3333 164.378L44.6667 165.879L45 167.349L45.3333 168.787L45.6667 170.192L46 171.563L46.3333 172.898L46.6667 174.197L47 175.457L47.3333 176.679L47.6667 177.86L48 179L48.3333 180.097L48.6667 181.151L49 182.162L49.3333 183.126L49.6667 184.045L50 184.917L50.3333 185.742L50.6667 186.518L51 187.245L51.3333 187.922L51.6667 188.549L52 189.125L52.3333 189.65L52.6667 190.123L53 190.543L53.3333 190.911L53.6667 191.226L54 191.487L54.3333 191.695L54.6667 191.85L55 191.95L55.3333 191.996L55.6667 191.989L56 191.927L56.3333 191.812L56.6667 191.643L57 191.42L57.3333 191.143L57.6667 190.813L58 190.431L58.3333 189.996L58.6667 189.508L59 188.969L59.3333 188.379L59.6667 187.738L60 187.046L60.3333 186.305L60.6667 185.516L61 184.678L61.3333 183.793L61.6667 182.861L62 181.883L62.3333 180.86L62.6667 179.794L63 178.684L63.3333 177.533L63.6667 176.34L64 175.108L64.3333 173.837L64.6667 172.528L65 171.182L65.3333 169.802L65.6667 168.387L66 166.94L66.3333 165.461L66.6667 163.952L67 162.414L67.3333 160.849L67.6667 159.258L68 157.643L68.3333 156.004L68.6667 154.344L69 152.664L69.3333 150.965L69.6667 149.249L70 147.517L70.3333 145.772L70.6667 144.014L71 142.245L71.3333 140.467L71.6667 138.682L72 136.89L72.3333 135.094L72.6667 133.295L73 131.496L73.3333 129.696L73.6667 127.899L74 126.105L74.3333 124.317L74.6667 122.535L75 120.762L75.3333 118.999L75.6667 117.248L76 115.51L76.3333 113.787L76.6667 112.081L77 110.392L77.3333 108.723L77.6667 107.075L78 105.449L78.3333 103.847L78.6667 102.27L79 100.72L79.3333 99.1985L79.6667 97.7063L80 96.2449L80.3333 94.8157L80.6667 93.42L81 92.059L81.3333 90.734L81.6667 89.4461L82 88.1965L82.3333 86.9863L82.6667 85.8166L83 84.6884L83.3333 83.6029L83.6667 82.5609L84 81.5634L84.3333 80.6113L84.6667 79.7054L85 78.8466L85.3333 78.0356L85.6667 77.2732L86 76.5601L86.3333 75.8968L86.6667 75.284L87 74.7223L87.3333 74.2121L87.6667 73.7539L88 73.3481L88.3333 72.9952L88.6667 72.6953L89 72.4488L89.3333 72.2558L89.6667 72.1167L90 72.0314L90.3333 72.0001L90.6667 72.0228L91 72.0995L91.3333 72.2301L91.6667 72.4144L92 72.6524L92.3333 72.9438L92.6667 73.2884L93 73.6858L93.3333 74.1356L93.6667 74.6376L94 75.1911L94.3333 75.7958L94.6667 76.4511L95 77.1563L95.3333 77.9109L95.6667 78.7142L96 79.5655L96.3333 80.4639L96.6667 81.4087L97 82.399L97.3333 83.434L97.6667 84.5127L98 85.6341L98.3333 86.7972L98.6667 88.001L99 89.2445L99.3333 90.5263L99.6667 91.8456L100 93.2009L100.333 94.5912L100.667 96.0151L101 97.4714L101.333 98.9588L101.667 100.476L102 102.021L102.333 103.594L102.667 105.192L103 106.814L103.333 108.459L103.667 110.125L104 111.811L104.333 113.515L104.667 115.235L105 116.971L105.333 118.72L105.667 120.481L106 122.252L106.333 124.032L106.667 125.82L107 127.613L107.333 129.41L107.667 131.209L108 133.009L108.333 134.808L108.667 136.604L109 138.397L109.333 140.183L109.667 141.962L110 143.733L110.333 145.492L110.667 147.24L111 148.974L111.333 150.692L111.667 152.394L112 154.078L112.333 155.741L112.667 157.383L113 159.003L113.333 160.598L113.667 162.167L114 163.709L114.333 165.223L114.667 166.706L115 168.159L115.333 169.579L115.667 170.965L116 172.316L116.333 173.631L116.667 174.908L117 176.147L117.333 177.346L117.667 178.504L118 179.62L118.333 180.693L118.667 181.723L119 182.708L119.333 183.647L119.667 184.54L120 185.385L120.333 186.183L120.667 186.932L121 187.631L121.333 188.28L121.667 188.878L122 189.426L122.333 189.921L122.667 190.365L123 190.756L123.333 191.094L123.667 191.379L124 191.611L124.333 191.788L124.667 191.913L125 191.983L125.333 191.999L125.667 191.961L126 191.869L126.333 191.724L126.667 191.524L127 191.271L127.333 190.965L127.667 190.605L128 190.193L128.333 189.729L128.667 189.212L129 188.644L129.333 188.026L129.667 187.356L130 186.637L130.333 185.869L130.667 185.052L131 184.187L131.333 183.276L131.667 182.318L132 181.315L132.333 180.268L132.667 179.177L133 178.044L133.333 176.869L133.667 175.654L134 174.4L134.333 173.108L134.667 171.778L135 170.413L135.333 169.013L135.667 167.58L136 166.115L136.333 164.619L136.667 163.094L137 161.54L137.333 159.961L137.667 158.356L138 156.727L138.333 155.076L138.667 153.404L139 151.714L139.333 150.005L139.667 148.28L140 146.54L140.333 144.788L140.667 143.024L141 141.25L141.333 139.467L141.667 137.678L142 135.884L142.333 134.086L142.667 132.287L143 130.487L143.333 128.688L143.667 126.893L144 125.102L144.333 123.317L144.667 121.54L145 119.773L145.333 118.016L145.667 116.273L146 114.543L146.333 112.829L146.667 111.132L147 109.454L147.333 107.796L147.667 106.16L148 104.548L148.333 102.96L148.667 101.398L149 99.8638L149.333 98.3584L149.667 96.8833L150 95.4398L150.333 94.0293L150.667 92.6529L151 91.3119L151.333 90.0075L151.667 88.7409L152 87.5132L152.333 86.3256L152.667 85.1791L153 84.0747L153.333 83.0134L153.667 81.9963L154 81.0241L154.333 80.0978L154.667 79.2182L155 78.3861L155.333 77.6023L155.667 76.8674L156 76.1821L156.333 75.5471L156.667 74.9629L157 74.43L157.333 73.9489L157.667 73.52L158 73.1438L158.333 72.8205L158.667 72.5505L159 72.334L159.333 72.1712L159.667 72.0623L160 72.0072L160.333 72.0062L160.667 72.0592L161 72.1661L161.333 72.3268L161.667 72.5412L162 72.8092L162.333 73.1304L162.667 73.5046L163 73.9315L163.333 74.4106L163.667 74.9415L164 75.5238L164.333 76.1569L164.667 76.8402L165 77.5732L165.333 78.3552L165.667 79.1855L166 80.0633L166.333 80.9878L166.667 81.9582L167 82.9737L167.333 84.0333L167.667 85.136L168 86.2809L168.333 87.467L168.667 88.6932L169 89.9583L169.333 91.2612L169.667 92.6008L170 93.9759L170.333 95.3852L170.667 96.8275L171 98.3014L171.333 99.8056L171.667 101.339L172 102.9L172.333 104.487L172.667 106.098L173 107.733L173.333 109.39L173.667 111.067L174 112.764L174.333 114.477L174.667 116.206L175 117.949L175.333 119.705L175.667 121.472L176 123.249L176.333 125.033L176.667 126.824L177 128.62L177.333 130.418L177.667 132.218L178 134.017L178.333 135.815L178.667 137.61L179 139.399L179.333 141.182L179.667 142.956L180 144.72L180.333 146.474L180.667 148.214L181 149.939L181.333 151.648L181.667 153.34L182 155.013L182.333 156.664L182.667 158.294L183 159.9L183.333 161.48L183.667 163.035L184 164.561L184.333 166.058L184.667 167.524L185 168.959L185.333 170.36L185.667 171.726L186 173.057L186.333 174.351L186.667 175.607L187 176.824L187.333 178L187.667 179.135L188 180.227L188.333 181.276L188.667 182.281L189 183.24L189.333 184.153L189.667 185.02L190 185.838L190.333 186.609L190.667 187.33L191 188.001L191.333 188.622L191.667 189.192L192 189.71L192.333 190.177L192.667 190.591L193 190.952L193.333 191.26L193.667 191.515L194 191.717L194.333 191.865L194.667 191.959L195 191.998L195.333 191.984L195.667 191.916L196 191.794L196.333 191.618L196.667 191.389L197 191.106L197.333 190.77L197.667 190.381L198 189.939L198.333 189.446L198.667 188.9L199 188.304L199.333 187.657L199.667 186.959L200 186.212L200.333 185.417L200.667 184.573L201 183.682L201.333 182.745L201.667 181.762L202 180.734L202.333 179.662L202.667 178.547L203 177.391L203.333 176.193L203.667 174.956L204 173.68L204.333 172.367L204.667 171.017L205 169.632L205.333 168.214L205.667 166.763L206 165.28L206.333 163.768L206.667 162.226L207 160.658L207.333 159.064L207.667 157.446L208 155.804L208.333 154.142L208.667 152.459L209 150.758L209.333 149.04L209.667 147.307L210 145.56L210.333 143.8L210.667 142.03L211 140.252L211.333 138.465L211.667 136.673L212 134.877L212.333 133.078L212.667 131.278L213 129.478L213.333 127.681L213.667 125.888L214 124.101L214.333 122.32L214.667 120.548L215 118.787L215.333 117.037L215.667 115.301L216 113.58L216.333 111.876L216.667 110.189L217 108.522L217.333 106.877L217.667 105.254L218 103.655L218.333 102.081L218.667 100.535L219 99.0164L219.333 97.5278L219.667 96.0703L220 94.6451L220.333 93.2535L220.667 91.8968L221 90.5762L221.333 89.2928L221.667 88.0479L222 86.8426L222.333 85.6779L222.667 84.5548L223 83.4745L223.333 82.4378L223.667 81.4458L224 80.4992L224.333 79.599L224.667 78.7459L225 77.9408L225.333 77.1843L225.667 76.4772L226 75.82L226.333 75.2133L226.667 74.6578L227 74.1539L227.333 73.702L227.667 73.3026L228 72.9561L228.333 72.6626L228.667 72.4226L229 72.2361L229.333 72.1035L229.667 72.0248L230 72L230.333 72.0292L230.667 72.1124L231 72.2495L231.333 72.4404L231.667 72.6849L232 72.9827L232.333 73.3337L232.667 73.7374L233 74.1936L233.333 74.7018L233.667 75.2616L234 75.8724L234.333 76.5337L234.667 77.245L235 78.0055L235.333 78.8147L235.667 79.6717L236 80.5757L236.333 81.5261L236.667 82.5219L237 83.5622L237.333 84.6461L237.667 85.7726L238 86.9407L238.333 88.1494L238.667 89.3975L239 90.684L239.333 92.0076L239.667 93.3673L240 94.7617L240.333 96.1896L240.667 97.6497L241 99.1408L241.333 100.661L241.667 102.21L242 103.786L242.333 105.387L242.667 107.012L243 108.659L243.333 110.328L243.667 112.016L244 113.722L244.333 115.444L244.667 117.182L245 118.932L245.333 120.695L245.667 122.467L246 124.248L246.333 126.036L246.667 127.83L247 129.627L247.333 131.427L38 132Z" stroke="#EE8D03" stroke-width="2"/>
    <path d="M5 68L5.33333 69.7997L5.66667 71.5978L6 73.3927L6.33333 75.1827L6.66667 76.9662L7 78.7417L7.33333 80.5075L7.66667 82.2621L8 84.0038L8.33333 85.7312L8.66667 87.4425L9 89.1364L9.33333 90.8113L9.66667 92.4656L10 94.0979L10.3333 95.7067L10.6667 97.2906L11 98.8481L11.3333 100.378L11.6667 101.879L12 103.349L12.3333 104.787L12.6667 106.192L13 107.563L13.3333 108.898L13.6667 110.197L14 111.457L14.3333 112.679L14.6667 113.86L15 115L15.3333 116.097L15.6667 117.151L16 118.162L16.3333 119.126L16.6667 120.045L17 120.917L17.3333 121.742L17.6667 122.518L18 123.245L18.3333 123.922L18.6667 124.549L19 125.125L19.3333 125.65L19.6667 126.123L20 126.543L20.3333 126.911L20.6667 127.226L21 127.487L21.3333 127.695L21.6667 127.85L22 127.95L22.3333 127.996L22.6667 127.989L23 127.927L23.3333 127.812L23.6667 127.643L24 127.42L24.3333 127.143L24.6667 126.813L25 126.431L25.3333 125.996L25.6667 125.508L26 124.969L26.3333 124.379L26.6667 123.738L27 123.046L27.3333 122.305L27.6667 121.516L28 120.678L28.3333 119.793L28.6667 118.861L29 117.883L29.3333 116.86L29.6667 115.794L30 114.684L30.3333 113.533L30.6667 112.34L31 111.108L31.3333 109.837L31.6667 108.528L32 107.182L32.3333 105.802L32.6667 104.387L33 102.94L33.3333 101.461L33.6667 99.952L34 98.4144L34.3333 96.8493L34.6667 95.2583L35 93.6427L35.3333 92.0041L35.6667 90.3439L36 88.6636L36.3333 86.9646L36.6667 85.2486L37 83.5171L37.3333 81.7716L37.6667 80.0138L38 78.2451L38.3333 76.4672L38.6667 74.6816L39 72.8901L39.3333 71.0941L39.6667 69.2954L40 67.4955L40.3333 65.6961L40.6667 63.8987L41 62.105L41.3333 60.3167L41.6667 58.5352L42 56.7623L42.3333 54.9995L42.6667 53.2483L43 51.5105L43.3333 49.7875L43.6667 48.0808L44 46.3921L44.3333 44.7229L44.6667 43.0746L45 41.4487L45.3333 39.8468L45.6667 38.2701L46 36.7202L46.3333 35.1985L46.6667 33.7063L47 32.2449L47.3333 30.8157L47.6667 29.42L48 28.059L48.3333 26.734L48.6667 25.4461L49 24.1965L49.3333 22.9863L49.6667 21.8166L50 20.6884L50.3333 19.6029L50.6667 18.5609L51 17.5634L51.3333 16.6113L51.6667 15.7054L52 14.8466L52.3333 14.0356L52.6667 13.2732L53 12.5601L53.3333 11.8968L53.6667 11.284L54 10.7223L54.3333 10.2121L54.6667 9.75391L55 9.34815L55.3333 8.99516L55.6667 8.69528L56 8.44877L56.3333 8.25584L56.6667 8.11669L57 8.03142L57.3333 8.00013L57.6667 8.02282L58 8.0995L58.3333 8.23008L58.6667 8.41445L59 8.65244L59.3333 8.94384L59.6667 9.28839L60 9.68577L60.3333 10.1356L60.6667 10.6376L61 11.1911L61.3333 11.7958L61.6667 12.4511L62 13.1563L62.3333 13.9109L62.6667 14.7142L63 15.5655L63.3333 16.4639L63.6667 17.4087L64 18.399L64.3333 19.434L64.6667 20.5127L65 21.6341L65.3333 22.7972L65.6667 24.001L66 25.2445L66.3333 26.5263L66.6667 27.8456L67 29.2009L67.3333 30.5912L67.6667 32.0151L68 33.4714L68.3333 34.9588L68.6667 36.4759L69 38.0214L69.3333 39.5939L69.6667 41.192L70 42.8141L70.3333 44.4589L70.6667 46.125L71 47.8107L71.3333 49.5145L71.6667 51.235L72 52.9706L72.3333 54.7197L72.6667 56.4808L73 58.2522L73.3333 60.0324L73.6667 61.8198L74 63.6128L74.3333 65.4096L74.6667 67.2089L75 69.0088L75.3333 70.8078L75.6667 72.6043L76 74.3967L76.3333 76.1833L76.6667 77.9625L77 79.7327L77.3333 81.4924L77.6667 83.24L78 84.9739L78.3333 86.6924L78.6667 88.3942L79 90.0776L79.3333 91.7411L79.6667 93.3833L80 95.0026L80.3333 96.5976L80.6667 98.1669L81 99.709L81.3333 101.223L81.6667 102.706L82 104.159L82.3333 105.579L82.6667 106.965L83 108.316L83.3333 109.631L83.6667 110.908L84 112.147L84.3333 113.346L84.6667 114.504L85 115.62L85.3333 116.693L85.6667 117.723L86 118.708L86.3333 119.647L86.6667 120.54L87 121.385L87.3333 122.183L87.6667 122.932L88 123.631L88.3333 124.28L88.6667 124.878L89 125.426L89.3333 125.921L89.6667 126.365L90 126.756L90.3333 127.094L90.6667 127.379L91 127.611L91.3333 127.788L91.6667 127.913L92 127.983L92.3333 127.999L92.6667 127.961L93 127.869L93.3333 127.724L93.6667 127.524L94 127.271L94.3333 126.965L94.6667 126.605L95 126.193L95.3333 125.729L95.6667 125.212L96 124.644L96.3333 124.026L96.6667 123.356L97 122.637L97.3333 121.869L97.6667 121.052L98 120.187L98.3333 119.276L98.6667 118.318L99 117.315L99.3333 116.268L99.6667 115.177L100 114.044L100.333 112.869L100.667 111.654L101 110.4L101.333 109.108L101.667 107.778L102 106.413L102.333 105.013L102.667 103.58L103 102.115L103.333 100.619L103.667 99.0936L104 97.5405L104.333 95.9607L104.667 94.3557L105 92.7271L105.333 91.0761L105.667 89.4045L106 87.7135L106.333 86.0048L106.667 84.2799L107 82.5404L107.333 80.7878L107.667 79.0237L108 77.2496L108.333 75.4672L108.667 73.6781L109 71.8839L109.333 70.0862L109.667 68.2866L110 66.4868L110.333 64.6883L110.667 62.8928L111 61.1019L111.333 59.3172L111.667 57.5403L112 55.7729L112.333 54.0164L112.667 52.2725L113 50.5428L113.333 48.8288L113.667 47.132L114 45.4541L114.333 43.7964L114.667 42.1605L115 40.5478L115.333 38.9598L115.667 37.398L116 35.8638L116.333 34.3584L116.667 32.8833L117 31.4398L117.333 30.0293L117.667 28.6529L118 27.3119L118.333 26.0075L118.667 24.7409L119 23.5132L119.333 22.3256L119.667 21.1791L120 20.0747L120.333 19.0134L120.667 17.9963L121 17.0241L121.333 16.0978L121.667 15.2182L122 14.3861L122.333 13.6023L122.667 12.8674L123 12.1821L123.333 11.5471L123.667 10.9629L124 10.43L124.333 9.94886L124.667 9.52L125 9.14378L125.333 8.82052L125.667 8.55052L126 8.33402L126.333 8.17122L126.667 8.06225L127 8.00723L127.333 8.0062L127.667 8.05915L128 8.16605L128.333 8.3268L128.667 8.54125L129 8.8092L129.333 9.13043L129.667 9.50463L130 9.93147L130.333 10.4106L130.667 10.9415L131 11.5238L131.333 12.1569L131.667 12.8402L132 13.5732L132.333 14.3552L132.667 15.1855L133 16.0633L133.333 16.9878L133.667 17.9582L134 18.9737L134.333 20.0333L134.667 21.136L135 22.2809L135.333 23.467L135.667 24.6932L136 25.9583L136.333 27.2612L136.667 28.6008L137 29.9759L137.333 31.3852L137.667 32.8275L138 34.3014L138.333 35.8056L138.667 37.3388L139 38.8996L139.333 40.4865L139.667 42.0983L140 43.7333L140.333 45.3902L140.667 47.0674L141 48.7635L141.333 50.4769L141.667 52.206L142 53.9494L142.333 55.7054L142.667 57.4725L143 59.249L143.333 61.0335L143.667 62.8242L144 64.6195L144.333 66.4179L144.667 68.2177L145 70.0173L145.333 71.8151L145.667 73.6095L146 75.3988L146.333 77.1815L146.667 78.9559L147 80.7204L147.333 82.4735L147.667 84.2136L148 85.9391L148.333 87.6484L148.667 89.3401L149 91.0125L149.333 92.6643L149.667 94.2938L150 95.8997L150.333 97.4804L150.667 99.0347L151 100.561L151.333 102.058L151.667 103.524L152 104.959L152.333 106.36L152.667 107.726L153 109.057L153.333 110.351L153.667 111.607L154 112.824L154.333 114L154.667 115.135L155 116.227L155.333 117.276L155.667 118.281L156 119.24L156.333 120.153L156.667 121.02L157 121.838L157.333 122.609L157.667 123.33L158 124.001L158.333 124.622L158.667 125.192L159 125.71L159.333 126.177L159.667 126.591L160 126.952L160.333 127.26L160.667 127.515L161 127.717L161.333 127.865L161.667 127.959L162 127.998L162.333 127.984L162.667 127.916L163 127.794L163.333 127.618L163.667 127.389L164 127.106L164.333 126.77L164.667 126.381L165 125.939L165.333 125.446L165.667 124.9L166 124.304L166.333 123.657L166.667 122.959L167 122.212L167.333 121.417L167.667 120.573L168 119.682L168.333 118.745L168.667 117.762L169 116.734L169.333 115.662L169.667 114.547L170 113.391L170.333 112.193L170.667 110.956L171 109.68L171.333 108.367L171.667 107.017L172 105.632L172.333 104.214L172.667 102.763L173 101.28L173.333 99.7675L173.667 98.2265L174 96.6582L174.333 95.0641L174.667 93.4457L175 91.8044L175.333 90.1416L175.667 88.459L176 86.7579L176.333 85.0399L176.667 83.3067L177 81.5596L177.333 79.8003L177.667 78.0304L178 76.2515L178.333 74.4652L178.667 72.673L179 70.8766L179.333 69.0777L179.667 67.2778L180 65.4785L180.333 63.6815L180.667 61.8884L181 60.1007L181.333 58.3202L181.667 56.5484L182 54.7869L182.333 53.0373L182.667 51.3012L183 49.5801L183.333 47.8756L183.667 46.1891L184 44.5223L184.333 42.8767L184.667 41.2536L185 39.6546L185.333 38.0812L185.667 36.5346L186 35.0164L186.333 33.5278L186.667 32.0703L187 30.6451L187.333 29.2535L187.667 27.8968L188 26.5762L188.333 25.2928L188.667 24.0479L189 22.8426L189.333 21.6779L189.667 20.5548L190 19.4745L190.333 18.4378L190.667 17.4458L191 16.4992L191.333 15.599L191.667 14.7459L192 13.9408L192.333 13.1843L192.667 12.4772L193 11.82L193.333 11.2133L193.667 10.6578L194 10.1539L194.333 9.70203L194.667 9.30263L195 8.95605L195.333 8.66261L195.667 8.42257L196 8.23615L196.333 8.1035L196.667 8.02477L197 8L197.333 8.02923L197.667 8.11243L198 8.24952L198.333 8.44039L198.667 8.68486L199 8.9827L199.333 9.33366L199.667 9.73741L200 10.1936L200.333 10.7018L200.667 11.2616L201 11.8724L201.333 12.5337L201.667 13.245L202 14.0055L202.333 14.8147L202.667 15.6717L203 16.5757L203.333 17.5261L203.667 18.5219L204 19.5622L204.333 20.6461L204.667 21.7726L205 22.9407L205.333 24.1494L205.667 25.3975L206 26.684L206.333 28.0076L206.667 29.3673L207 30.7617L207.333 32.1896L207.667 33.6497L208 35.1408L208.333 36.6614L208.667 38.2103L209 39.7859L209.333 41.3869L209.667 43.0119L210 44.6594L210.333 46.3279L210.667 48.0159L211 49.7218L211.333 51.4442L211.667 53.1815L212 54.9322L212.333 56.6946L212.667 58.4672L213 60.2483L213.333 62.0365L213.667 63.83L214 65.6272L214.333 67.4266L5 68Z" stroke="#EE8D03" stroke-width="2"/>
    <path d="M35 128L35.3333 129.8L35.6667 131.598L36 133.393L36.3333 135.183L36.6667 136.966L37 138.742L37.3333 140.508L37.6667 142.262L38 144.004L38.3333 145.731L38.6667 147.443L39 149.136L39.3333 150.811L39.6667 152.466L40 154.098L40.3333 155.707L40.6667 157.291L41 158.848L41.3333 160.378L41.6667 161.879L42 163.349L42.3333 164.787L42.6667 166.192L43 167.563L43.3333 168.898L43.6667 170.197L44 171.457L44.3333 172.679L44.6667 173.86L45 175L45.3333 176.097L45.6667 177.151L46 178.162L46.3333 179.126L46.6667 180.045L47 180.917L47.3333 181.742L47.6667 182.518L48 183.245L48.3333 183.922L48.6667 184.549L49 185.125L49.3333 185.65L49.6667 186.123L50 186.543L50.3333 186.911L50.6667 187.226L51 187.487L51.3333 187.695L51.6667 187.85L52 187.95L52.3333 187.996L52.6667 187.989L53 187.927L53.3333 187.812L53.6667 187.643L54 187.42L54.3333 187.143L54.6667 186.813L55 186.431L55.3333 185.996L55.6667 185.508L56 184.969L56.3333 184.379L56.6667 183.738L57 183.046L57.3333 182.305L57.6667 181.516L58 180.678L58.3333 179.793L58.6667 178.861L59 177.883L59.3333 176.86L59.6667 175.794L60 174.684L60.3333 173.533L60.6667 172.34L61 171.108L61.3333 169.837L61.6667 168.528L62 167.182L62.3333 165.802L62.6667 164.387L63 162.94L63.3333 161.461L63.6667 159.952L64 158.414L64.3333 156.849L64.6667 155.258L65 153.643L65.3333 152.004L65.6667 150.344L66 148.664L66.3333 146.965L66.6667 145.249L67 143.517L67.3333 141.772L67.6667 140.014L68 138.245L68.3333 136.467L68.6667 134.682L69 132.89L69.3333 131.094L69.6667 129.295L70 127.496L70.3333 125.696L70.6667 123.899L71 122.105L71.3333 120.317L71.6667 118.535L72 116.762L72.3333 114.999L72.6667 113.248L73 111.51L73.3333 109.787L73.6667 108.081L74 106.392L74.3333 104.723L74.6667 103.075L75 101.449L75.3333 99.8468L75.6667 98.2701L76 96.7202L76.3333 95.1985L76.6667 93.7063L77 92.2449L77.3333 90.8157L77.6667 89.42L78 88.059L78.3333 86.734L78.6667 85.4461L79 84.1965L79.3333 82.9863L79.6667 81.8166L80 80.6884L80.3333 79.6029L80.6667 78.5609L81 77.5634L81.3333 76.6113L81.6667 75.7054L82 74.8466L82.3333 74.0356L82.6667 73.2732L83 72.5601L83.3333 71.8968L83.6667 71.284L84 70.7223L84.3333 70.2121L84.6667 69.7539L85 69.3481L85.3333 68.9952L85.6667 68.6953L86 68.4488L86.3333 68.2558L86.6667 68.1167L87 68.0314L87.3333 68.0001L87.6667 68.0228L88 68.0995L88.3333 68.2301L88.6667 68.4144L89 68.6524L89.3333 68.9438L89.6667 69.2884L90 69.6858L90.3333 70.1356L90.6667 70.6376L91 71.1911L91.3333 71.7958L91.6667 72.4511L92 73.1563L92.3333 73.9109L92.6667 74.7142L93 75.5655L93.3333 76.4639L93.6667 77.4087L94 78.399L94.3333 79.434L94.6667 80.5127L95 81.6341L95.3333 82.7972L95.6667 84.001L96 85.2445L96.3333 86.5263L96.6667 87.8456L97 89.2009L97.3333 90.5912L97.6667 92.0151L98 93.4714L98.3333 94.9588L98.6667 96.4759L99 98.0214L99.3333 99.5939L99.6667 101.192L100 102.814L100.333 104.459L100.667 106.125L101 107.811L101.333 109.515L101.667 111.235L102 112.971L102.333 114.72L102.667 116.481L103 118.252L103.333 120.032L103.667 121.82L104 123.613L104.333 125.41L104.667 127.209L105 129.009L105.333 130.808L105.667 132.604L106 134.397L106.333 136.183L106.667 137.962L107 139.733L107.333 141.492L107.667 143.24L108 144.974L108.333 146.692L108.667 148.394L109 150.078L109.333 151.741L109.667 153.383L110 155.003L110.333 156.598L110.667 158.167L111 159.709L111.333 161.223L111.667 162.706L112 164.159L112.333 165.579L112.667 166.965L113 168.316L113.333 169.631L113.667 170.908L114 172.147L114.333 173.346L114.667 174.504L115 175.62L115.333 176.693L115.667 177.723L116 178.708L116.333 179.647L116.667 180.54L117 181.385L117.333 182.183L117.667 182.932L118 183.631L118.333 184.28L118.667 184.878L119 185.426L119.333 185.921L119.667 186.365L120 186.756L120.333 187.094L120.667 187.379L121 187.611L121.333 187.788L121.667 187.913L122 187.983L122.333 187.999L122.667 187.961L123 187.869L123.333 187.724L123.667 187.524L124 187.271L124.333 186.965L124.667 186.605L125 186.193L125.333 185.729L125.667 185.212L126 184.644L126.333 184.026L126.667 183.356L127 182.637L127.333 181.869L127.667 181.052L128 180.187L128.333 179.276L128.667 178.318L129 177.315L129.333 176.268L129.667 175.177L130 174.044L130.333 172.869L130.667 171.654L131 170.4L131.333 169.108L131.667 167.778L132 166.413L132.333 165.013L132.667 163.58L133 162.115L133.333 160.619L133.667 159.094L134 157.54L134.333 155.961L134.667 154.356L135 152.727L135.333 151.076L135.667 149.404L136 147.714L136.333 146.005L136.667 144.28L137 142.54L137.333 140.788L137.667 139.024L138 137.25L138.333 135.467L138.667 133.678L139 131.884L139.333 130.086L139.667 128.287L140 126.487L140.333 124.688L140.667 122.893L141 121.102L141.333 119.317L141.667 117.54L142 115.773L142.333 114.016L142.667 112.273L143 110.543L143.333 108.829L143.667 107.132L144 105.454L144.333 103.796L144.667 102.16L145 100.548L145.333 98.9598L145.667 97.398L146 95.8638L146.333 94.3584L146.667 92.8833L147 91.4398L147.333 90.0293L147.667 88.6529L148 87.3119L148.333 86.0075L148.667 84.7409L149 83.5132L149.333 82.3256L149.667 81.1791L150 80.0747L150.333 79.0134L150.667 77.9963L151 77.0241L151.333 76.0978L151.667 75.2182L152 74.3861L152.333 73.6023L152.667 72.8674L153 72.1821L153.333 71.5471L153.667 70.9629L154 70.43L154.333 69.9489L154.667 69.52L155 69.1438L155.333 68.8205L155.667 68.5505L156 68.334L156.333 68.1712L156.667 68.0623L157 68.0072L157.333 68.0062L157.667 68.0592L158 68.1661L158.333 68.3268L158.667 68.5412L159 68.8092L159.333 69.1304L159.667 69.5046L160 69.9315L160.333 70.4106L160.667 70.9415L161 71.5238L161.333 72.1569L161.667 72.8402L162 73.5732L162.333 74.3552L162.667 75.1855L163 76.0633L163.333 76.9878L163.667 77.9582L164 78.9737L164.333 80.0333L164.667 81.136L165 82.2809L165.333 83.467L165.667 84.6932L166 85.9583L166.333 87.2612L166.667 88.6008L167 89.9759L167.333 91.3852L167.667 92.8275L168 94.3014L168.333 95.8056L168.667 97.3388L169 98.8996L169.333 100.487L169.667 102.098L170 103.733L170.333 105.39L170.667 107.067L171 108.764L171.333 110.477L171.667 112.206L172 113.949L172.333 115.705L172.667 117.472L173 119.249L173.333 121.033L173.667 122.824L174 124.62L174.333 126.418L174.667 128.218L175 130.017L175.333 131.815L175.667 133.61L176 135.399L176.333 137.182L176.667 138.956L177 140.72L177.333 142.474L177.667 144.214L178 145.939L178.333 147.648L178.667 149.34L179 151.013L179.333 152.664L179.667 154.294L180 155.9L180.333 157.48L180.667 159.035L181 160.561L181.333 162.058L181.667 163.524L182 164.959L182.333 166.36L182.667 167.726L183 169.057L183.333 170.351L183.667 171.607L184 172.824L184.333 174L184.667 175.135L185 176.227L185.333 177.276L185.667 178.281L186 179.24L186.333 180.153L186.667 181.02L187 181.838L187.333 182.609L187.667 183.33L188 184.001L188.333 184.622L188.667 185.192L189 185.71L189.333 186.177L189.667 186.591L190 186.952L190.333 187.26L190.667 187.515L191 187.717L191.333 187.865L191.667 187.959L192 187.998L192.333 187.984L192.667 187.916L193 187.794L193.333 187.618L193.667 187.389L194 187.106L194.333 186.77L194.667 186.381L195 185.939L195.333 185.446L195.667 184.9L196 184.304L196.333 183.657L196.667 182.959L197 182.212L197.333 181.417L197.667 180.573L198 179.682L198.333 178.745L198.667 177.762L199 176.734L199.333 175.662L199.667 174.547L200 173.391L200.333 172.193L200.667 170.956L201 169.68L201.333 168.367L201.667 167.017L202 165.632L202.333 164.214L202.667 162.763L203 161.28L203.333 159.768L203.667 158.226L204 156.658L204.333 155.064L204.667 153.446L205 151.804L205.333 150.142L205.667 148.459L206 146.758L206.333 145.04L206.667 143.307L207 141.56L207.333 139.8L207.667 138.03L208 136.252L208.333 134.465L208.667 132.673L209 130.877L209.333 129.078L209.667 127.278L210 125.478L210.333 123.681L210.667 121.888L211 120.101L211.333 118.32L211.667 116.548L212 114.787L212.333 113.037L212.667 111.301L213 109.58L213.333 107.876L213.667 106.189L214 104.522L214.333 102.877L214.667 101.254L215 99.6546L215.333 98.0812L215.667 96.5346L216 95.0164L216.333 93.5278L216.667 92.0703L217 90.6451L217.333 89.2535L217.667 87.8968L218 86.5762L218.333 85.2928L218.667 84.0479L219 82.8426L219.333 81.6779L219.667 80.5548L220 79.4745L220.333 78.4378L220.667 77.4458L221 76.4992L221.333 75.599L221.667 74.7459L222 73.9408L222.333 73.1843L222.667 72.4772L223 71.82L223.333 71.2133L223.667 70.6578L224 70.1539L224.333 69.702L224.667 69.3026L225 68.9561L225.333 68.6626L225.667 68.4226L226 68.2361L226.333 68.1035L226.667 68.0248L227 68L227.333 68.0292L227.667 68.1124L228 68.2495L228.333 68.4404L228.667 68.6849L229 68.9827L229.333 69.3337L229.667 69.7374L230 70.1936L230.333 70.7018L230.667 71.2616L231 71.8724L231.333 72.5337L231.667 73.245L232 74.0055L232.333 74.8147L232.667 75.6717L233 76.5757L233.333 77.5261L233.667 78.5219L234 79.5622L234.333 80.6461L234.667 81.7726L235 82.9407L235.333 84.1494L235.667 85.3975L236 86.684L236.333 88.0076L236.667 89.3673L237 90.7617L237.333 92.1896L237.667 93.6497L238 95.1408L238.333 96.6614L238.667 98.2103L239 99.7859L239.333 101.387L239.667 103.012L240 104.659L240.333 106.328L240.667 108.016L241 109.722L241.333 111.444L241.667 113.182L242 114.932L242.333 116.695L242.667 118.467L243 120.248L243.333 122.036L243.667 123.83L244 125.627L244.333 127.427L35 128Z" stroke="#1D2688" stroke-width="2"/>
    <path d="M2 62L2.33333 63.7997L2.66667 65.5978L3 67.3927L3.33333 69.1827L3.66667 70.9662L4 72.7417L4.33333 74.5075L4.66667 76.2621L5 78.0038L5.33333 79.7312L5.66667 81.4425L6 83.1364L6.33333 84.8113L6.66667 86.4656L7 88.0979L7.33333 89.7067L7.66667 91.2906L8 92.8481L8.33333 94.3779L8.66667 95.8785L9 97.3486L9.33333 98.787L9.66667 100.192L10 101.563L10.3333 102.898L10.6667 104.197L11 105.457L11.3333 106.679L11.6667 107.86L12 109L12.3333 110.097L12.6667 111.151L13 112.162L13.3333 113.126L13.6667 114.045L14 114.917L14.3333 115.742L14.6667 116.518L15 117.245L15.3333 117.922L15.6667 118.549L16 119.125L16.3333 119.65L16.6667 120.123L17 120.543L17.3333 120.911L17.6667 121.226L18 121.487L18.3333 121.695L18.6667 121.85L19 121.95L19.3333 121.996L19.6667 121.989L20 121.927L20.3333 121.812L20.6667 121.643L21 121.42L21.3333 121.143L21.6667 120.813L22 120.431L22.3333 119.996L22.6667 119.508L23 118.969L23.3333 118.379L23.6667 117.738L24 117.046L24.3333 116.305L24.6667 115.516L25 114.678L25.3333 113.793L25.6667 112.861L26 111.883L26.3333 110.86L26.6667 109.794L27 108.684L27.3333 107.533L27.6667 106.34L28 105.108L28.3333 103.837L28.6667 102.528L29 101.182L29.3333 99.8018L29.6667 98.3872L30 96.9398L30.3333 95.461L30.6667 93.952L31 92.4144L31.3333 90.8493L31.6667 89.2583L32 87.6427L32.3333 86.0041L32.6667 84.3439L33 82.6636L33.3333 80.9646L33.6667 79.2486L34 77.5171L34.3333 75.7716L34.6667 74.0138L35 72.2451L35.3333 70.4672L35.6667 68.6816L36 66.8901L36.3333 65.0941L36.6667 63.2954L37 61.4955L37.3333 59.6961L37.6667 57.8987L38 56.105L38.3333 54.3167L38.6667 52.5352L39 50.7623L39.3333 48.9995L39.6667 47.2483L40 45.5105L40.3333 43.7875L40.6667 42.0808L41 40.3921L41.3333 38.7229L41.6667 37.0746L42 35.4487L42.3333 33.8468L42.6667 32.2701L43 30.7202L43.3333 29.1985L43.6667 27.7063L44 26.2449L44.3333 24.8157L44.6667 23.42L45 22.059L45.3333 20.734L45.6667 19.4461L46 18.1965L46.3333 16.9863L46.6667 15.8166L47 14.6884L47.3333 13.6029L47.6667 12.5609L48 11.5634L48.3333 10.6113L48.6667 9.70541L49 8.8466L49.3333 8.03563L49.6667 7.27322L50 6.56006L50.3333 5.8968L50.6667 5.28402L51 4.72229L51.3333 4.2121L51.6667 3.75391L52 3.34815L52.3333 2.99516L52.6667 2.69528L53 2.44877L53.3333 2.25584L53.6667 2.11669L54 2.03142L54.3333 2.00013L54.6667 2.02282L55 2.0995L55.3333 2.23008L55.6667 2.41445L56 2.65244L56.3333 2.94384L56.6667 3.28839L57 3.68577L57.3333 4.13563L57.6667 4.63757L58 5.19113L58.3333 5.79581L58.6667 6.45107L59 7.15633L59.3333 7.91093L59.6667 8.71422L60 9.56546L60.3333 10.4639L60.6667 11.4087L61 12.399L61.3333 13.434L61.6667 14.5127L62 15.6341L62.3333 16.7972L62.6667 18.001L63 19.2445L63.3333 20.5263L63.6667 21.8456L64 23.2009L64.3333 24.5912L64.6667 26.0151L65 27.4714L65.3333 28.9588L65.6667 30.4759L66 32.0214L66.3333 33.5939L66.6667 35.192L67 36.8141L67.3333 38.4589L67.6667 40.125L68 41.8107L68.3333 43.5145L68.6667 45.235L69 46.9706L69.3333 48.7197L69.6667 50.4808L70 52.2522L70.3333 54.0324L70.6667 55.8198L71 57.6128L71.3333 59.4096L71.6667 61.2089L72 63.0088L72.3333 64.8078L72.6667 66.6043L73 68.3967L73.3333 70.1833L73.6667 71.9625L74 73.7327L74.3333 75.4924L74.6667 77.24L75 78.9739L75.3333 80.6924L75.6667 82.3942L76 84.0776L76.3333 85.7411L76.6667 87.3833L77 89.0026L77.3333 90.5976L77.6667 92.1669L78 93.709L78.3333 95.2226L78.6667 96.7063L79 98.1588L79.3333 99.5787L79.6667 100.965L80 102.316L80.3333 103.631L80.6667 104.908L81 106.147L81.3333 107.346L81.6667 108.504L82 109.62L82.3333 110.693L82.6667 111.723L83 112.708L83.3333 113.647L83.6667 114.54L84 115.385L84.3333 116.183L84.6667 116.932L85 117.631L85.3333 118.28L85.6667 118.878L86 119.426L86.3333 119.921L86.6667 120.365L87 120.756L87.3333 121.094L87.6667 121.379L88 121.611L88.3333 121.788L88.6667 121.913L89 121.983L89.3333 121.999L89.6667 121.961L90 121.869L90.3333 121.724L90.6667 121.524L91 121.271L91.3333 120.965L91.6667 120.605L92 120.193L92.3333 119.729L92.6667 119.212L93 118.644L93.3333 118.026L93.6667 117.356L94 116.637L94.3333 115.869L94.6667 115.052L95 114.187L95.3333 113.276L95.6667 112.318L96 111.315L96.3333 110.268L96.6667 109.177L97 108.044L97.3333 106.869L97.6667 105.654L98 104.4L98.3333 103.108L98.6667 101.778L99 100.413L99.3333 99.013L99.6667 97.5799L100 96.1147L100.333 94.6189L100.667 93.0936L101 91.5405L101.333 89.9607L101.667 88.3557L102 86.7271L102.333 85.0761L102.667 83.4045L103 81.7135L103.333 80.0048L103.667 78.2799L104 76.5404L104.333 74.7878L104.667 73.0237L105 71.2496L105.333 69.4672L105.667 67.6781L106 65.8839L106.333 64.0862L106.667 62.2866L107 60.4868L107.333 58.6883L107.667 56.8928L108 55.1019L108.333 53.3172L108.667 51.5403L109 49.7729L109.333 48.0164L109.667 46.2725L110 44.5428L110.333 42.8288L110.667 41.132L111 39.4541L111.333 37.7964L111.667 36.1605L112 34.5478L112.333 32.9598L112.667 31.398L113 29.8638L113.333 28.3584L113.667 26.8833L114 25.4398L114.333 24.0293L114.667 22.6529L115 21.3119L115.333 20.0075L115.667 18.7409L116 17.5132L116.333 16.3256L116.667 15.1791L117 14.0747L117.333 13.0134L117.667 11.9963L118 11.0241L118.333 10.0978L118.667 9.21821L119 8.38612L119.333 7.60228L119.667 6.8674L120 6.18213L120.333 5.54709L120.667 4.96286L121 4.42995L121.333 3.94886L121.667 3.52L122 3.14378L122.333 2.82052L122.667 2.55052L123 2.33402L123.333 2.17122L123.667 2.06225L124 2.00723L124.333 2.0062L124.667 2.05915L125 2.16605L125.333 2.3268L125.667 2.54125L126 2.8092L126.333 3.13043L126.667 3.50463L127 3.93147L127.333 4.41058L127.667 4.94151L128 5.52378L128.333 6.15689L128.667 6.84024L129 7.57324L129.333 8.35522L129.667 9.18547L130 10.0633L130.333 10.9878L130.667 11.9582L131 12.9737L131.333 14.0333L131.667 15.136L132 16.2809L132.333 17.467L132.667 18.6932L133 19.9583L133.333 21.2612L133.667 22.6008L134 23.9759L134.333 25.3852L134.667 26.8275L135 28.3014L135.333 29.8056L135.667 31.3388L136 32.8996L136.333 34.4865L136.667 36.0983L137 37.7333L137.333 39.3902L137.667 41.0674L138 42.7635L138.333 44.4769L138.667 46.206L139 47.9494L139.333 49.7054L139.667 51.4725L140 53.249L140.333 55.0335L140.667 56.8242L141 58.6195L141.333 60.4179L141.667 62.2177L142 64.0173L142.333 65.8151L142.667 67.6095L143 69.3988L143.333 71.1815L143.667 72.9559L144 74.7204L144.333 76.4735L144.667 78.2136L145 79.9391L145.333 81.6484L145.667 83.3401L146 85.0125L146.333 86.6643L146.667 88.2938L147 89.8997L147.333 91.4804L147.667 93.0347L148 94.561L148.333 96.058L148.667 97.5244L149 98.9588L149.333 100.36L149.667 101.726L150 103.057L150.333 104.351L150.667 105.607L151 106.824L151.333 108L151.667 109.135L152 110.227L152.333 111.276L152.667 112.281L153 113.24L153.333 114.153L153.667 115.02L154 115.838L154.333 116.609L154.667 117.33L155 118.001L155.333 118.622L155.667 119.192L156 119.71L156.333 120.177L156.667 120.591L157 120.952L157.333 121.26L157.667 121.515L158 121.717L158.333 121.865L158.667 121.959L159 121.998L159.333 121.984L159.667 121.916L160 121.794L160.333 121.618L160.667 121.389L161 121.106L161.333 120.77L161.667 120.381L162 119.939L162.333 119.446L162.667 118.9L163 118.304L163.333 117.657L163.667 116.959L164 116.212L164.333 115.417L164.667 114.573L165 113.682L165.333 112.745L165.667 111.762L166 110.734L166.333 109.662L166.667 108.547L167 107.391L167.333 106.193L167.667 104.956L168 103.68L168.333 102.367L168.667 101.017L169 99.6324L169.333 98.2138L169.667 96.7625L170 95.28L170.333 93.7675L170.667 92.2265L171 90.6582L171.333 89.0641L171.667 87.4457L172 85.8044L172.333 84.1416L172.667 82.459L173 80.7579L173.333 79.0399L173.667 77.3067L174 75.5596L174.333 73.8003L174.667 72.0304L175 70.2515L175.333 68.4652L175.667 66.673L176 64.8766L176.333 63.0777L176.667 61.2778L177 59.4785L177.333 57.6815L177.667 55.8884L178 54.1007L178.333 52.3202L178.667 50.5484L179 48.7869L179.333 47.0373L179.667 45.3012L180 43.5801L180.333 41.8756L180.667 40.1891L181 38.5223L181.333 36.8767L181.667 35.2536L182 33.6546L182.333 32.0812L182.667 30.5346L183 29.0164L183.333 27.5278L183.667 26.0703L184 24.6451L184.333 23.2535L184.667 21.8968L185 20.5762L185.333 19.2928L185.667 18.0479L186 16.8426L186.333 15.6779L186.667 14.5548L187 13.4745L187.333 12.4378L187.667 11.4458L188 10.4992L188.333 9.59899L188.667 8.74593L189 7.9408L189.333 7.18431L189.667 6.47716L190 5.81997L190.333 5.21334L190.667 4.65781L191 4.15389L191.333 3.70203L191.667 3.30263L192 2.95605L192.333 2.66261L192.667 2.42257L193 2.23615L193.333 2.1035L193.667 2.02477L194 2L194.333 2.02923L194.667 2.11243L195 2.24952L195.333 2.44039L195.667 2.68486L196 2.9827L196.333 3.33366L196.667 3.73741L197 4.1936L197.333 4.7018L197.667 5.26157L198 5.87241L198.333 6.53375L198.667 7.24501L199 8.00554L199.333 8.81467L199.667 9.67166L200 10.5757L200.333 11.5261L200.667 12.5219L201 13.5622L201.333 14.6461L201.667 15.7726L202 16.9407L202.333 18.1494L202.667 19.3975L203 20.684L203.333 22.0076L203.667 23.3673L204 24.7617L204.333 26.1896L204.667 27.6497L205 29.1408L205.333 30.6614L205.667 32.2103L206 33.7859L206.333 35.3869L206.667 37.0119L207 38.6594L207.333 40.3279L207.667 42.0159L208 43.7218L208.333 45.4442L208.667 47.1815L209 48.9322L209.333 50.6946L209.667 52.4672L210 54.2483L210.333 56.0365L210.667 57.83L211 59.6272L211.333 61.4266L2 62Z" stroke="#1D2688" stroke-width="2"/>
 </symbol>

  <symbol id="figure-8" viewBox="0 0 320 343" fill="none">
    <rect x="40.3433" y="257.63" width="82" height="82" transform="rotate(-91.6796 40.3433 257.63)" stroke="#EE8D03" stroke-width="2"/>
    <rect x="86.5894" y="238.054" width="82" height="82" transform="rotate(-91.6796 86.5894 238.054)" stroke="#EE8D03" stroke-width="2"/>
    <rect x="137.375" y="213.054" width="82" height="82" transform="rotate(-91.6796 137.375 213.054)" stroke="#EE8D03" stroke-width="2"/>
    <rect x="183.945" y="194.855" width="82" height="82" transform="rotate(-91.6796 183.945 194.855)" stroke="#EE8D03" stroke-width="2"/>
    <path d="M251.044 146.002L261.318 127.479L246.722 142.829L259.767 126.141L242.95 139.019L258.445 124.577L239.82 134.666L257.384 122.826L237.41 129.877L256.61 120.93L235.779 124.77L256.141 118.936L234.966 119.47L255.991 116.894L234.993 114.108L256.162 114.853L235.858 108.817L256.65 112.864L237.54 103.726L257.443 110.976L239.998 98.9614L258.521 109.235L243.171 94.6395L259.859 107.684L246.981 90.8672L261.423 106.362L251.334 87.7374L263.175 105.301L256.123 85.3271L265.07 104.527L261.231 83.6957L267.064 104.058L266.53 82.8833L269.107 103.908L271.892 82.91L271.147 104.079L277.183 83.7751L273.136 104.567L282.274 85.4572L275.024 105.36L287.039 87.9151L276.765 106.439L291.361 91.088L278.316 107.776L295.133 94.898L279.638 109.34L298.263 99.2512L280.699 111.092L300.673 104.04L281.474 112.987L302.305 109.148L281.942 114.981L303.117 114.447L282.092 117.024L303.09 119.809L281.922 119.064L302.225 125.1L281.434 121.053L300.543 130.191L280.64 122.941L298.085 134.956L279.562 124.682L294.912 139.278L278.224 126.233L291.102 143.05L276.66 127.555L286.749 146.18L274.909 128.616L281.96 148.59L273.013 129.391L276.853 150.222L271.019 129.859L271.553 151.034L268.977 130.009L266.191 151.007L266.936 129.839L260.9 150.142L264.947 129.351L255.809 148.46L263.059 128.557L251.044 146.002Z" fill="white"/>
  </symbol>

  <symbol id="figure-9" viewBox="0 0 204 180" fill="none" >
    <path d="M108.68 97.5231L108.729 97.6236L108.778 97.7251L108.825 97.8276L108.872 97.931L108.917 98.0354L108.961 98.1408L109.004 98.2471L109.047 98.3543L109.088 98.4624L109.127 98.5714L109.166 98.6813L109.204 98.7921L109.24 98.9037L109.275 99.0163L109.309 99.1296L109.342 99.2438L109.373 99.3588L109.404 99.4746L109.433 99.5911L109.461 99.7085L109.487 99.8266L109.512 99.9455L109.536 100.065L109.559 100.185L109.58 100.306L109.6 100.428L109.619 100.551L109.636 100.674L109.652 100.797L109.666 100.922L109.679 101.047L109.691 101.172L109.701 101.298L109.71 101.425L109.717 101.552L109.723 101.68L109.728 101.808L109.731 101.937L109.732 102.066L109.733 102.196L109.731 102.326L109.728 102.457L109.724 102.588L109.718 102.72L109.71 102.851L109.701 102.984L109.691 103.116L109.679 103.249L109.665 103.382L109.65 103.516L109.633 103.65L109.614 103.784L109.594 103.918L109.573 104.053L109.549 104.187L109.525 104.322L109.498 104.457L109.47 104.593L109.44 104.728L109.409 104.864L109.376 104.999L109.342 105.135L109.305 105.27L109.267 105.406L109.228 105.542L109.187 105.678L109.144 105.813L109.099 105.949L109.053 106.085L109.005 106.22L108.956 106.355L108.904 106.491L108.851 106.626L108.797 106.761L108.741 106.896L108.683 107.03L108.623 107.165L108.562 107.299L108.498 107.433L108.434 107.566L108.367 107.699L108.299 107.832L108.229 107.965L108.158 108.097L108.085 108.229L108.01 108.36L107.933 108.491L107.855 108.622L107.775 108.752L107.693 108.881L107.61 109.01L107.525 109.139L107.438 109.267L107.35 109.394L107.26 109.521L107.168 109.647L107.075 109.773L106.979 109.898L106.883 110.022L106.784 110.145L106.684 110.268L106.583 110.39L106.479 110.511L106.374 110.632L106.268 110.751L106.16 110.87L106.05 110.988L105.938 111.105L105.825 111.222L105.711 111.337L105.594 111.451L105.476 111.565L105.357 111.677L105.236 111.789L105.113 111.899L104.989 112.009L104.864 112.117L104.737 112.224L104.608 112.331L104.478 112.436L104.346 112.54L104.212 112.643L104.078 112.744L103.941 112.845L103.804 112.944L103.665 113.042L103.524 113.139L103.382 113.235L103.238 113.329L103.094 113.422L102.947 113.514L102.8 113.604L102.65 113.693L102.5 113.78L102.348 113.867L102.195 113.951L102.041 114.035L101.885 114.116L101.728 114.197L101.569 114.276L101.41 114.353L101.249 114.429L101.086 114.503L100.923 114.576L100.758 114.647L100.593 114.717L100.426 114.785L100.257 114.851L100.088 114.916L99.9177 114.979L99.7461 115.041L99.5734 115.1L99.3997 115.158L99.2248 115.215L99.0489 115.269L98.872 115.322L98.694 115.373L98.5151 115.422L98.3351 115.47L98.1542 115.515L97.9724 115.559L97.7896 115.601L97.6059 115.641L97.4213 115.68L97.2358 115.716L97.0495 115.75L96.8624 115.783L96.6744 115.814L96.4857 115.842L96.2962 115.869L96.1059 115.894L95.9149 115.916L95.7232 115.937L95.5308 115.956L95.3377 115.973L95.144 115.988L94.9496 116L94.7546 116.011L94.5591 116.02L94.363 116.026L94.1663 116.031L93.9691 116.033L93.7714 116.033L93.5733 116.032L93.3747 116.028L93.1757 116.022L92.9762 116.013L92.7764 116.003L92.5762 115.991L92.3757 115.976L92.1748 115.959L91.9737 115.94L91.7723 115.919L91.5706 115.896L91.3687 115.87L91.1667 115.842L90.9644 115.812L90.762 115.78L90.5595 115.746L90.3569 115.709L90.1542 115.67L89.9514 115.629L89.7486 115.586L89.5458 115.54L89.3431 115.492L89.1404 115.442L88.9377 115.39L88.7352 115.335L88.5327 115.278L88.3305 115.219L88.1283 115.157L87.9264 115.094L87.7247 115.028L87.5233 114.959L87.3221 114.889L87.1213 114.816L86.9207 114.741L86.7205 114.663L86.5207 114.584L86.3213 114.502L86.1223 114.417L85.9237 114.331L85.7257 114.242L85.5281 114.151L85.3311 114.057L85.1346 113.961L84.9388 113.863L84.7435 113.763L84.5488 113.661L84.3549 113.556L84.1616 113.449L83.969 113.339L83.7772 113.228L83.5861 113.114L83.3958 112.998L83.2063 112.879L83.0177 112.759L82.8299 112.636L82.6431 112.511L82.4571 112.383L82.2721 112.254L82.0881 112.122L81.9051 111.988L81.7231 111.852L81.5422 111.713L81.3623 111.573L81.1835 111.43L81.0059 111.285L80.8294 111.138L80.6541 110.989L80.48 110.837L80.3071 110.684L80.1355 110.528L79.9651 
    110.37L79.7961 110.21L79.6284 110.048L79.462 109.884L79.2971 109.718L79.1335 109.55L78.9714 109.38L78.8107 109.207L78.6515 109.033L78.4938 108.857L78.3376 108.678L78.183 108.498L78.03 108.316L77.8785 108.131L77.7287 107.945L77.5806 107.757L77.4341 107.567L77.2893 107.375L77.1463 107.181L77.0049 106.985L76.8654 106.787L76.7276 106.588L76.5917 106.386L76.4576 106.183L76.3253 105.978L76.1949 105.771L76.0665 105.563L75.9399 105.353L75.8153 105.141L75.6927 104.927L75.5721 104.712L75.4535 104.494L75.3369 104.276L75.2224 104.055L75.1099 103.833L74.9996 103.61L74.8913 103.385L74.7852 103.158L74.6813 102.93L74.5796 102.7L74.48 102.469L74.3827 102.236L74.2876 102.002L74.1947 101.766L74.1042 101.529L74.0159 101.291L73.93 101.051L73.8464 100.81L73.7651 100.568L73.6862 100.324L73.6097 100.079L73.5356 99.8326L73.464 99.5852L73.3947 99.3365L73.328 99.0866L73.2637 98.8356L73.2019 98.5835L73.1425 98.3302L73.0858 98.0759L73.0315 97.8205L72.9798 97.5641L72.9307 97.3067L72.8842 97.0483L72.8402 96.7889L72.7989 96.5286L72.7602 96.2675L72.7241 96.0054L72.6907 95.7425L72.66 95.4788L72.6319 95.2143L72.6066 94.949L72.5839 94.683L72.5639 94.4163L72.5467 94.1489L72.5323 93.8808L72.5205 93.6122L72.5116 93.3429L72.5054 93.073L72.502 92.8026L72.5014 92.5317L72.5036 92.2604L72.5086 91.9885L72.5165 91.7163L72.5271 91.4436L72.5407 91.1706L72.557 90.8972L72.5762 90.6235L72.5983 90.3496L72.6233 90.0754L72.6511 89.801L72.6819 89.5264L72.7155 89.2516L72.752 88.9768L72.7915 88.7018L72.8338 88.4268L72.8791 88.1517L72.9272 87.8766L72.9783 87.6016L73.0324 87.3266L73.0894 87.0517L73.1493 86.7769L73.2121 86.5023L73.2779 86.2279L73.3466 85.9536L73.4183 85.6797L73.493 85.406L73.5706 85.1326L73.6511 84.8595L73.7346 84.5869L73.8211 84.3146L73.9105 84.0428L74.0028 83.7714L74.0982 83.5006L74.1964 83.2303L74.2976 82.9605L74.4018 82.6913L74.5089 82.4228L74.619 82.155L74.732 81.8878L74.848 81.6213L74.9669 81.3557L75.0887 81.0908L75.2135 80.8267L75.3412 80.5635L75.4718 80.3011L75.6053 80.0397L75.7417 79.7793L75.8811 79.5198L76.0233 79.2613L76.1685 79.0039L76.3165 78.7476L76.4674 78.4924L76.6211 78.2383L76.7778 77.9854L76.9373 77.7337L77.0996 77.4832L77.2648 77.234L77.4328 76.9862L77.6036 76.7396L77.7773 76.4944L77.9537 76.2507L78.1329 76.0083L78.3149 75.7674L78.4997 75.528L78.6872 75.2901L78.8775 75.0538L79.0705 74.8191L79.2662 74.586L79.4646 74.3545L79.6657 74.1247L79.8695 73.8966L80.076 73.6703L80.2851 73.4457L80.4968 73.2229L80.7112 73.002L80.9281 72.7829L81.1477 72.5657L81.3698 72.3504L81.5945 72.1371L81.8217 71.9258L82.0514 71.7164L82.2836 71.5091L82.5183 71.3039L82.7555 71.1008L82.9952 70.8998L83.2372 70.701L83.4817 70.5043L83.7286 70.3098L83.9778 70.1176L84.2294 69.9277L84.4833 69.7401L84.7396 69.5547L84.9981 69.3718L85.2589 69.1912L85.5219 69.013L85.7872 68.8372L86.0546 68.6639L86.3243 68.4931L86.5961 68.3248L86.87 68.159L87.146 67.9958L87.4241 67.8352L87.7043 67.6772L87.9865 67.5219L88.2708 67.3692L88.557 67.2192L88.8451 67.0719L89.1353 66.9273L89.4273 66.7855L89.7212 66.6465L90.0169 66.5103L90.3145 66.377L90.6139 66.2465L90.9151 66.1188L91.218 65.9941L91.5226 65.8723L91.8289 65.7534L92.1369 65.6375L92.4465 65.5246L92.7578 65.4147L93.0706 65.3078L93.3849 65.204L93.7008 65.1033L94.0181 65.0056L94.3369 64.911L94.6571 64.8196L94.9788 64.7313L95.3018 64.6462L95.6261 64.5643L95.9517 64.4856L96.2786 64.4101L96.6067 64.3378L96.936 64.2688L97.2665 64.2031L97.5982 64.1407L97.931 64.0815L98.2648 64.0257L98.5996 63.9732L98.9355 63.9241L99.2724 63.8784L99.6102 63.836L99.9489 63.797L100.288 63.7614L100.629 63.7293L100.97 63.7006L101.312 63.6753L101.655 63.6535L101.998 63.6352L102.342 63.6204L102.687 63.6091L103.032 63.6012L103.378 63.5969L103.724 63.5961L104.071 63.5989L104.419 63.6052L104.766 63.6151L105.114 63.6285L105.463 63.6455L105.812 63.6661L106.161 63.6903L106.51 63.7181L106.859 63.7495L107.209 63.7845L107.559 63.8231L107.908 63.8654L108.258 63.9113L108.608 63.9608L108.958 64.014L109.307 64.0708L109.657 64.1312L110.007 64.1953L110.356 64.2631L110.705 64.3345L111.054 64.4095L111.402 64.4883L111.75 64.5707L112.098 64.6567L112.445 64.7464L112.792 64.8398L113.139 64.9369L113.485 65.0376L113.83 65.142L114.175 65.25L114.519 65.3617L114.862 65.4771L115.205 65.5961L115.546 65.7188L115.887 65.8451L116.228 65.9751L116.567 66.1087L116.905 66.2459L117.243 66.3868L117.579 66.5313L117.915 66.6794L118.249 66.8311L118.582 66.9865L118.914 67.1454L119.245 67.3079L119.575 67.474L119.903 67.6437L120.231 67.817L120.556 67.9938L120.881 68.1741L121.204 68.358L121.525 68.5455L121.845 68.7364L122.163 68.9309L122.48 69.1288L122.796 69.3302L123.109 69.5351L123.421 69.7435L123.731 69.9553L124.04 70.1705L124.346 70.3891L124.651 70.6112L124.954 70.8366L125.255 71.0654L125.554 71.2975L125.851 71.533L126.146 71.7718L126.439 72.0139L126.73 72.2593L127.019 72.508L127.305 72.7599L127.589 73.0151L127.871 73.2735L128.151 73.535L128.429 73.7998L128.704 74.0676L128.977 74.3387L129.247 74.6128L129.515 74.89L129.78 75.1703L130.043 75.4537L130.303 75.74L130.561 76.0294L130.816 76.3218L131.069 76.6171L131.318 76.9153L131.565 77.2164L131.81 77.5205L132.051 77.8273L132.29 78.137L132.525 78.4496L132.758 78.7648L132.988 79.0829L133.215 79.4037L133.439 79.7271L133.66 80.0533L133.878 80.382L134.093 80.7134L134.304 81.0474L134.513 81.3839L134.718 81.723L134.921 82.0645L135.119 82.4086L135.315 82.755L135.508 83.1039L135.697 83.4551L135.882 83.8087L136.065 84.1646L136.244 84.5227L136.419 84.8831L136.591 85.2457L136.76 85.6105L136.925 85.9775L137.087 86.3465L137.245 86.7177L137.399 87.0908L137.55 87.466L137.697 87.8432L137.84 88.2223L137.98 88.6033L138.116 88.9861L138.249 89.3708L138.377 89.7573L138.502 90.1456L138.623 90.5355L138.74 90.9272L138.854 91.3205L138.963 91.7154L139.069 92.1119L139.171 92.5099L139.268 92.9094L139.362 93.3104L139.452 93.7127L139.538 94.1165L139.62 94.5216L139.698 94.928L139.772 95.3356L139.841 95.7445L139.907 96.1545L139.969 96.5657L140.026 96.978L140.08 97.3913L140.129 97.8056L140.174 98.2209L140.215 98.6372L140.252 99.0543L140.284 99.4723L140.313 99.891L140.337 100.311L140.357 100.731L140.372 101.152L140.384 101.573L140.391 101.996L140.394 102.418L140.392 102.841L140.386 103.265L140.376 103.689L140.362 104.114L140.343 104.538L140.32 104.964L140.293 105.389L140.261 105.814L140.225 106.24L140.185 106.666L140.14 107.092L140.091 107.517L140.037 107.943L139.979 108.369L139.917 108.795L139.85 109.22L139.779 109.645L139.704 110.07L139.624 110.495L139.54 110.919L139.451 111.343L139.358 111.767L139.261 112.19L139.159 112.613L139.053 113.034L138.942 113.456L138.827 113.877L138.707 114.296L138.584 114.716L138.455 115.134L138.323 115.552L138.186 115.968L138.045 116.384L137.899 116.799L137.749 117.213L137.594 117.625L137.436 118.037L137.273 118.447L137.105 118.856L136.933 119.264L136.757 119.671L136.577 120.076L136.392 120.48L136.203 120.882L136.01 121.283L135.812 121.682L135.61 122.08L135.404 122.476L135.194 122.871L134.98 123.264L134.761 123.655L134.538 124.044L134.311 124.431L134.08 124.817L133.844 125.2L133.605 125.582L133.361 125.962L133.113 126.339L132.861 126.714L132.605 127.088L132.345 127.459L132.081 127.827L131.813 128.194L131.541 128.558L131.265 128.92L130.985 129.279L130.702 129.636L130.414 129.99L130.122 130.342L129.827 130.691L129.527 131.038L129.224 131.382L128.917 131.723L128.606 132.061L128.292 132.397L127.974 132.73L127.652 133.06L127.326 133.387L126.997 133.711L126.664 134.032L126.327 134.35L125.987 134.665L125.644 134.977L125.297 135.285L124.946 135.591L124.592 135.893L124.235 136.192L123.874 136.487L123.51 136.78L123.142 137.068L122.772 137.354L122.398 137.636L122.02 137.914L121.64 138.189L121.256 138.461L120.869 138.728L120.479 138.992L120.086 139.253L119.691 139.509L119.292 139.762L118.89 140.012L118.485 140.257L118.077 140.498L117.666 140.736L117.253 140.97L116.837 141.199L116.418 141.425L115.996 141.647L115.572 141.865L115.145 142.078L114.715 142.288L114.283 142.493L113.849 142.694L113.412 142.891L112.972 143.084L112.531 143.272L112.086 143.457L111.64 143.637L111.191 143.812L110.74 143.983L110.287 144.15L109.832 144.312L109.375 144.47L108.915 144.624L108.454 144.773L107.99 144.917L107.525 145.057L107.058 145.192L106.589 145.323L106.118 145.449L105.646 145.571L105.172 145.688L104.696 145.8L104.219 145.907L103.74 146.01L103.259 146.108L102.777 146.201L102.294 146.289L101.81 146.373L101.324 146.452L100.836 146.526L100.348 146.595L99.8584 146.659L99.3677 146.718L98.8759 146.773L98.3831 146.822L97.8893 146.867L97.3946 146.906L96.8991 146.941L96.4027 146.971L95.9055 146.995L95.4077 147.015L94.9091 147.03L94.41 147.039L93.9102 147.044L93.41 147.044L92.9092 147.038L92.4081 147.027L91.9066 147.012L91.4048 146.991L90.9027 146.965L90.4004 146.934L89.898 146.898L89.3954 146.857L88.8928 146.811L88.3902 146.759L87.8877 146.703L87.3852 146.641L86.8829 146.575L86.3808 146.503L85.879 146.426L85.3775 146.343L84.8763 146.256L84.3756 146.163L83.8753 146.066L83.3756 145.963L82.8764 145.855L82.3779 145.742L81.88 145.624L81.3829 145.5L80.8866 145.372L80.3911 145.238L79.8965 145.1L79.4029 144.956L78.9102 144.807L78.4186 144.652L77.9282 144.493L77.4388 144.329L76.9507 144.16L76.4639 143.985L75.9784 143.805L75.4942 143.621L75.0115 143.431L74.5303 143.236L74.0506 143.036L73.5724 142.832L73.0959 142.622L72.6211 142.407L72.1481 142.187L71.6768 141.962L71.2074 141.733L70.7398 141.498L70.2743 141.258L69.8107 141.014L69.3492 140.764L68.8898 140.51L68.4325 140.25L67.9774 139.986L67.5247 139.717L67.0742 139.444L66.6261 139.165L66.1804 138.882L65.7371 138.594L65.2964 138.301L64.8582 138.004L64.4227 137.701L63.9898 137.395L63.5596 137.083L63.1322 136.767L62.7076 136.446L62.2859 136.121L61.8671 135.791L61.4512 135.457L61.0384 135.118L60.6286 134.775L60.2219 134.427L59.8184 134.075L59.4181 133.718L59.021 133.357L58.6272 132.992L58.2368 132.622L57.8497 132.249L57.4661 131.871L57.086 131.488L56.7093 131.102L56.3363 130.712L55.9669 130.317L55.6011 129.918L55.2391 129.515L54.8808 129.109L54.5263 
    128.698L54.1756 128.283L53.8288 127.865L53.486 127.442L53.1471 127.016L52.8122 126.586L52.4814 126.152L52.1546 125.715L51.832 125.274L51.5136 124.829L51.1994 124.38L50.8894 123.928L50.5837 123.473L50.2824 123.014L49.9855 122.552L49.6929 122.086L49.4048 121.617L49.1212 121.144L48.8422 120.669L48.5676 120.19L48.2977 119.708L48.0324 119.222L47.7718 118.734L47.5159 118.243L47.2648 117.748L47.0184 117.251L46.7768 116.751L46.5401 116.248L46.3082 115.742L46.0812 115.233L45.8592 114.722L45.6422 114.208L45.4302 113.691L45.2232 113.172L45.0212 112.65L44.8244 112.126L44.6327 111.599L44.4461 111.07L44.2647 110.539L44.0886 110.005L43.9176 109.469L43.7519 108.931L43.5916 108.391L43.4365 107.849L43.2868 107.304L43.1424 106.758L43.0034 106.21L42.8699 105.66L42.7417 105.108L42.6191 104.555L42.5019 104L42.3902 103.443L42.284 102.884L42.1834 102.324L42.0884 101.763L41.9989 101.2L41.9151 100.636L41.8368 100.07L41.7642 99.5033L41.6973 98.9353L41.636 98.3662L41.5805 97.796L41.5306 97.2247L41.4864 96.6525L41.448 96.0793L41.4153 95.5053L41.3884 94.9305L41.3673 94.355L41.3519 93.7788L41.3424 93.202L41.3387 92.6245L41.3407 92.0466L41.3486 91.4683L41.3624 90.8895L41.382 90.3105L41.4074 89.7311L41.4387 89.1516L41.4759 88.5718L41.519 87.992L41.5679 87.4122L41.6227 86.8324L41.6834 86.2527L41.75 85.6731L41.8225 85.0937L41.9009 84.5146L41.9852 83.9358L42.0754 83.3574L42.1715 82.7795L42.2735 82.202L42.3815 81.6252L42.4953 81.0489L42.615 80.4733L42.7406 79.8985L42.8721 79.3245L43.0095 78.7514L43.1528 78.1792L43.3019 77.608L43.457 77.0378L43.6179 76.4688L43.7846 75.9009L43.9573 75.3342L44.1358 74.7689L44.3201 74.2049L44.5102 73.6423L44.7062 73.0812L44.908 72.5216L45.1155 71.9636L45.3289 71.4072L45.548 70.8526L45.7729 70.2998L46.0036 69.7487L46.24 69.1996L46.4821 68.6524L46.7299 68.1073L46.9833 67.5642L47.2425 67.0232L47.5073 66.4845L47.7778 65.9479L48.0538 65.4137L48.3355 64.8819L48.6228 64.3525L48.9156 63.8255L49.2139 63.3011L49.5177 62.7793L49.8271 62.2602L50.1419 61.7438L50.4622 61.2301L50.7879 60.7193L51.119 60.2114L51.4554 59.7064L51.7972 59.2044L52.1444 58.7055L52.4968 58.2096L52.8545 57.717L53.2174 57.2276L53.5855 56.7414L53.9589 56.2586L54.3373 55.7792L54.7209 55.3033L55.1096 54.8308L55.5033 54.3619L55.9021 53.8966L56.3058 53.4349L56.7145 52.977L57.1282 52.5229L57.5467 52.0725L57.9701 51.6261L58.3983 51.1835L58.8312 50.745L59.269 50.3105L59.7114 49.88L60.1585 49.4537L60.6102 49.0316L61.0666 48.6137L61.5275 48.2001L61.9929 47.7908L62.4627 47.3859L62.937 46.9854L63.4157 46.5894L63.8988 46.1979L64.3861 45.811L64.8777 45.4287L65.3736 45.0511L65.8736 44.6782L66.3777 44.31L66.8859 43.9467L67.3982 43.5882L67.9144 43.2345L68.4346 42.8859L68.9587 42.5422L69.4867 42.2035L70.0184 41.8699L70.554 41.5414L71.0932 41.218L71.636 40.8998L72.1825 40.5869L72.7326 40.2793L73.2861 39.9769L73.8431 39.6799L74.4035 39.3883L74.9672 39.1021L75.5343 38.8214L76.1046 38.5462L76.6781 38.2765L77.2547 38.0124L77.8344 37.7539L78.4171 37.5011L79.0028 37.2539L79.5914 37.0125L80.1829 36.7768L80.7772 36.5469L81.3743 36.3228L81.974 36.1046L82.5764 35.8922L83.1813 35.6858L83.7888 35.4853L84.3987 35.2907L85.011 35.1022L85.6257 34.9197L86.2427 34.7432L86.8619 34.5729L87.4832 34.4086L88.1067 34.2505L88.7322 34.0985L89.3596 33.9527L89.9891 33.8132L90.6203 33.6798L91.2534 33.5528L91.8882 33.432L92.5246 33.3175L93.1627 33.2094L93.8023 33.1075L94.4435 33.0121L95.086 32.923L95.7299 32.8404L96.3751 32.7641L97.0215 32.6944L97.6691 32.631L98.3177 32.5742L98.9675 32.5238L99.6182 32.4799L100.27 32.4426L100.922 32.4117L101.575 32.3875L102.229 32.3698L102.884 32.3586L103.539 32.3541L104.195 32.3561L104.851 32.3647L105.507 32.38L106.164 32.4018L106.821 32.4303L107.478 32.4654L108.136 32.5072L108.793 32.5556L109.45 32.6106L110.108 32.6723L110.765 32.7407L111.422 32.8157L112.078 32.8974L112.734 32.9858L113.39 33.0808L114.045 33.1825L114.7 33.2908L115.354 33.4059L116.008 33.5276L116.66 33.6559L117.312 33.7909L117.963 33.9326L118.613 34.0809L119.262 34.2358L119.91 34.3974L120.556 34.5656L121.201 34.7405L121.846 34.9219L122.488 35.11L123.129 35.3047L123.769 35.5059L124.407 35.7137L125.044 35.9281L125.678 36.1491L126.311 36.3766L126.943 36.6106L127.572 36.8511L128.199 37.0981L128.824 37.3516L129.447 37.6116L130.068 37.878L130.687 38.1509L131.303 38.4301L131.917 38.7158L132.528 39.0078L133.137 39.3062L133.743 39.6109L134.347 39.9219L134.948 40.2392L135.546 40.5628L136.142 40.8926L136.734 41.2286L137.323 41.5708L137.91 41.9192L138.493 42.2737L139.073 42.6343L139.65 43.001L140.224 43.3738L140.794 43.7525L141.361 44.1373L141.924 44.528L142.484 44.9247L143.04 45.3273L143.593 45.7357L144.141 46.15L144.686 46.57L145.227 46.9959L145.765 47.4274L146.298 47.8647L146.827 48.3076L147.352 48.7561L147.873 49.2103L148.39 49.6699L148.902 50.1351L149.41 50.6057L149.914 51.0818L150.413 51.5632L150.908 52.05L151.398 52.5421L151.883 53.0395L152.364 53.542L152.84 54.0498L153.312 54.5626L153.778 55.0806L154.24 55.6035L154.696 56.1315L155.148 56.6644L155.595 57.2022L156.036 57.7449L156.472 58.2924L156.903 58.8446L157.329 59.4015L157.75 59.963L158.165 60.5292L158.574 61.0999L158.979 61.6751L159.377 62.2548L159.77 62.8388L160.158 63.4272L160.54 64.0199L160.916 64.6167L161.286 65.2178L161.651 65.823L162.01 66.4323L162.362 67.0455L162.709 67.6627L163.05 68.2838L163.385 68.9087L163.714 69.5375L164.037 70.1699L164.353 70.806L164.664 71.4456L164.968 72.0889L165.266 72.7356L165.557 73.3857L165.842 74.0391L166.121 74.6959L166.394 75.3559L166.66 76.0191L166.919 76.6853L167.172 77.3546L167.418 78.0269L167.658 78.7021L167.891 79.3801L168.118 80.0609L168.338 80.7445L168.551 81.4306L168.757 82.1194L168.956 82.8107L169.149 83.5044L169.335 84.2005L169.514 84.899L169.686 85.5996L169.851 86.3025L170.009 87.0075L170.16 87.7145L170.304 88.4235L170.441 89.1343L170.571 89.847L170.694 90.5615L170.81 91.2777L170.919 91.9955L171.02 92.7148L171.115 93.4356L171.202 94.1578L171.282 94.8814L171.355 95.6062L171.42 96.3322L171.478 97.0594L171.529 97.7875L171.573 98.5167L171.609 99.2467L171.639 99.9776L171.66 100.709L171.675 101.442L171.682 102.174L171.681 102.908L171.674 103.642L171.659 104.376L171.636 105.111L171.606 105.846L171.569 106.581L171.525 107.316L171.472 108.051L171.413 108.786L171.346 109.521L171.272 110.255L171.19 110.99L171.101 111.724L171.004 112.457L170.9 113.191L170.788 113.923L170.669 114.655L170.543 115.386L170.409 116.116L170.268 116.846L170.119 117.574L169.963 118.301L169.8 119.028L169.629 119.753L169.451 120.477L169.265 121.199L169.072 121.92L168.871 122.64L168.664 123.357L168.449 124.074L168.226 124.788L167.996 125.501L167.759 126.212L167.515 126.921L167.263 127.628L167.004 128.333L166.738 129.036L166.465 129.736L166.184 130.434L165.897 131.13L165.602 131.823L165.3 132.514L164.99 133.202L164.674 133.888L164.351 134.57L164.02 135.25L163.683 135.927L163.338 136.601L162.987 137.272L162.628 137.94L162.263 138.604L161.891 139.266L161.512 139.924L161.126 140.578L160.733 141.229L160.333 141.877L159.927 142.521L159.514 143.161L159.094 143.797L158.668 144.43L158.235 145.059L157.795 145.683L157.349 146.304L156.897 146.921L156.438 147.533L155.972 148.141L155.5 148.745L155.022 149.345L154.537 149.94L154.046 150.53L153.549 151.116L153.046 151.698L152.537 152.274L152.021 152.846L151.5 153.413L150.972 153.975L150.439 154.532L149.899 155.084L149.354 155.631L148.803 156.173L148.246 156.71L147.683 157.241L147.115 157.767L146.541 158.288L145.962 158.803L145.377 159.312L144.786 159.816L144.19 160.315L143.589 160.808L142.982 161.295L142.371 161.776L141.754 162.251L141.132 162.72L140.504 163.184L139.872 163.641L139.235 164.093L138.593 164.538L137.946 164.977L137.294 165.41L136.637 165.836L135.976 166.256L135.311 166.67L134.64 167.077L133.965 167.478L133.286 167.872L132.603 168.26L131.915 168.641L131.223 169.015L130.526 169.382L129.826 169.743L129.122 170.097L128.413 170.444L127.701 170.784L126.985 171.118L126.265 171.444L125.541 171.763L124.814 172.075L124.083 172.38L123.349 172.678L122.612 172.968L121.871 173.252L121.126 173.528L120.379 173.797L119.628 174.058L118.875 174.312L118.118 174.559L117.358 174.798L116.596 175.029L115.831 175.253L115.063 175.47L114.292 175.679L113.519 175.88L112.744 176.074L111.966 176.26L111.186 176.438L110.403 176.609L109.619 176.772L108.832 176.927L108.043 177.074L107.253 177.213L106.46 177.345L105.666 177.468L104.87 177.584L104.073 177.692L103.274 177.792L102.473 177.884L101.671 177.968L100.868 178.043L100.063 178.111L99.2578 178.171L98.4512 178.223L97.6436 178.266L96.8351 178.302L96.0257 178.33L95.2157 178.349L94.405 178.36L93.5937 178.363L92.7819 178.358L91.9697 178.345L91.1572 178.324L90.3445 178.294L89.5316 178.256L88.7186 178.211L87.9056 178.157L87.0927 178.094L86.28 178.024L85.4675 177.945L84.6553 177.858L83.8436 177.763L83.0324 177.66L82.2217 177.548L81.4118 177.429L80.6025 177.301L79.7941 177.165L78.9867 177.02L78.1802 176.868L77.3748 176.707L76.5705 176.538L75.7676 176.361L74.9659 176.176L74.1657 175.983L73.3669 175.781L72.5698 175.572L71.7743 175.354L70.9805 175.128L70.1886 174.894L69.3985 174.652L68.6105 174.402L67.8246 174.144L67.0408 173.878L66.2592 173.603L65.48 173.321L64.7032 173.031L63.9288 172.733L63.1571 172.427L62.3879 172.113L61.6216 171.791L60.858 171.461L60.0973 171.123L59.3396 170.778L58.5849 170.425L57.8334 170.064L57.0851 169.695L56.34 169.318L55.5984 168.934L54.8602 168.542L54.1255 168.143L53.3944 167.736L52.6671 167.321L51.9435 166.899L51.2237 166.47L50.5079 166.032L49.796 165.588L49.0883 165.136L48.3847 164.677L47.6853 164.21L46.9902 163.736L46.2995 163.255L45.6133 162.767L44.9315 162.271L44.2544 161.769L43.582 161.259L42.9143 160.743L42.2515 160.219L41.5936 159.688L40.9406 159.151L40.2927 158.607L39.6498 158.055L39.0122 157.498L38.3798 156.933L37.7528 156.362L37.1312 155.784L36.515 155.2L35.9043 154.609L35.2993 154.011L34.6999 153.408L34.1063 152.798L33.5185 152.181L32.9366 151.559L32.3606 150.93L31.7906 150.295L31.2266 149.654L30.6689 149.007L30.1173 148.354L29.5719 147.695L29.0329 147.031L28.5003 146.36L27.9741 145.684L27.4544 145.003L26.9413 144.315L26.4348 143.623L25.9351 142.924L25.442 142.221L24.9558 141.512L24.4764 140.797L24.0039 140.078L23.5384 139.353L23.08 138.624L22.6286 137.889L22.1843 137.15L21.7473 136.405L21.3174 135.656L20.8949 134.902L20.4797 134.144L20.072 133.381L19.6716 132.613L19.2788 131.841L18.8935 131.065L18.5158 130.284L18.1457 129.499L17.7833 128.711L17.4287 127.918L17.0818 127.121L16.7427 126.32L16.4115 125.515L16.0882 124.707L15.7729 123.894L15.4655 123.079L15.1662 122.26L14.8749 121.437L14.5918 120.611L14.3168 119.782L14.0499 118.949L13.7913 118.114L13.541 117.275L13.2989 116.433L13.0651 115.589L12.8397 114.742L12.6227 113.892L12.4141 113.039L12.214 112.184L12.0223 111.327L11.8392 110.467L11.6645 109.605L11.4985 108.74L11.341 107.874L11.1922 107.005L11.052 106.135L10.9204 105.263L10.7976 104.389L10.6834 103.513L10.578 102.636L10.4813 101.757L10.3935 100.876L10.3144 99.9948L10.2441 99.1119L10.1826 98.2279L10.13 97.3428L10.0862 96.4567L10.0513 95.5697L10.0253 94.682L10.0082 93.7935L10 92.9044L10.0007 92.0147L10.0104 91.1246L10.0289 90.2342L10.0565 89.3434L10.093 88.4525L10.1384 87.5615L10.1928 86.6706L10.2562 85.7797L10.3286 84.8889L10.4099 83.9985L10.5002 83.1084L10.5995 82.2188L10.7078 81.3297L10.825 80.4413L10.9513 79.5536L11.0865 78.6667L11.2306 77.7807L11.3838 76.8957L11.5458 76.0118L11.7169 75.1291L11.8969 74.2477L12.0858 73.3676L12.2837 72.4889L12.4904 71.6118L12.7061 70.7364L12.9307 69.8627L13.1642 68.9907L13.4065 68.1207L13.6577 67.2527L13.9177 66.3868L14.1865 65.523L14.4642 64.6615L14.7506 63.8024L15.0458 62.9457L15.3497 62.0915L15.6624 61.24L15.9837 60.3912L16.3138 59.5451L16.6525 58.702L16.9998 57.8618L17.3557 57.0247L17.7203 56.1908L18.0933 55.3601L18.4749 54.5327L18.865 53.7088L19.2635 52.8884L19.6705 52.0715L20.0859 51.2583L20.5096 50.4489L20.9417 49.6434L21.382 48.8418L21.8307 48.0442L22.2875 47.2507L22.7526 46.4614L23.2258 45.6763L23.7071 44.8957L24.1965 44.1195L24.6939 43.3478L25.1993 42.5807L25.7126 41.8183L26.2339 41.0607L26.763 40.3079L27.2999 39.5601L27.8446 38.8173L28.397 38.0796L28.9571 37.3471L29.5248 36.6199L30.1001 35.898L30.6829 35.1815L31.2732 34.4705L31.8709 33.765L32.476 33.0653L33.0884 32.3712L33.7081 31.683L34.3349 31.0006L34.969 30.3243L35.6101 29.6539L36.2583 28.9896L36.9134 28.3316L37.5755 27.6797L38.2444 27.0342L38.9202 26.3951L39.6026 25.7625L40.2918 25.1364L40.9876 24.5169L41.6899 23.9041L42.3987 23.2981L43.114 22.6988L43.8356 22.1065L44.5634 21.5211L45.2976 20.9427L46.0379 20.3714L46.7842 19.8073L47.5366 19.2504L48.295 18.7008L49.0592 18.1585L49.8292 17.6236L50.605 17.0961L51.3864 16.5763L52.1735 16.064L52.966 15.5593L53.764 15.0624L54.5674 14.5732L55.376 14.0918L56.1899 13.6184L57.0089 13.1529L57.833 12.6953L58.662 12.2458L59.496 11.8045L60.3348 11.3712L61.1784 10.9462L62.0266 10.5295L62.8794 10.121L63.7367 9.72093L64.5984 9.32925L65.4645 8.94604L66.3348 8.57133L67.2093 8.20517L68.0879 7.84762L68.9705 7.49871L69.8571 7.15849L70.7474 6.827L71.6415 6.50428L72.5393 6.19038L73.4406 5.88535L74.3455 5.5892L75.2537 5.302L76.1652 5.02377L77.08 4.75456L77.9979 4.49439L78.9188 4.24332L79.8427 4.00136L80.7695 3.76855L81.699 3.54494L82.6312 3.33054L83.5661 3.1254L84.5034 2.92954L85.4431 2.74298L86.3851 2.56577L87.3294 2.39793L88.2757 2.23948L89.2241 2.09044L90.1745 1.95086L91.1267 1.82074L92.0806 1.70011L93.0363 1.589L93.9934 1.48742L94.9521 1.3954L95.9121 1.31295L96.8734 1.24009L97.8358 1.17684L98.7994 1.12322L99.7639 1.07924L100.729 1.04491L101.696 1.02026L102.662 1.00528L103.63 1L104.598 1.00442L105.566 1.01856L106.535 1.04241L107.504 1.076L108.473 1.11932L109.442 1.17238L110.411 1.23519L111.38 1.30774L112.349 1.39005L113.317 1.48212L114.285 1.58394L115.252 1.69551L116.218 1.81684L117.184 1.94791L118.149 2.08874L119.112 2.23931L120.075 2.39961L121.037 2.56965L121.997 2.74941L122.956 2.93889L123.914 3.13807L124.87 3.34696L125.824 3.56552L126.777 3.79376L127.727 4.03166L128.676 4.27921L129.623 4.53639L130.567 4.80318L131.51 5.07957L132.45 5.36553L133.387 5.66106L134.322 5.96613L135.254 6.28071L136.184 6.60479L137.111 6.93835L138.035 7.28135L138.956 7.63378L139.874 7.9956L140.788 8.3668L141.699 8.74733L142.607 9.13719L143.511 9.53632L144.412 9.94471L145.309 10.3623L146.203 10.7891L147.092 11.2251L147.977 11.6701L148.859 12.1243L149.736 12.5875L150.609 13.0597L151.478 13.5409L152.342 14.031L153.202 14.53L154.057 15.0378L154.907 15.5545L155.753 16.0799L156.593 16.614L157.429 17.1568L158.26 17.7083L159.085 18.2683L159.905 18.8368L160.72 19.4138L161.53 19.9993L162.334 20.5931L163.132 21.1953L163.925 21.8057L164.711 22.4244L165.493 23.0513L166.268 23.6862L167.037 24.3292L167.8 24.9803L168.557 25.6392L169.307 26.3061L170.051 26.9807L170.789 27.6632L171.52 28.3533L172.245 29.0511L172.963 29.7565L173.674 30.4694L174.379 31.1897L175.076 31.9174L175.766 32.6524L176.45 33.3947L177.126 34.1442L177.795 34.9008L178.457 35.6644L179.111 36.435L179.758 37.2125L180.398 37.9969L181.03 38.788L181.654 39.5858L182.27 40.3902L182.879 41.2012L183.48 42.0186L184.073 42.8424L184.658 43.6725L185.235 44.5088L185.803 45.3513L186.364 46.1999L186.916 47.0545L187.46 47.9149L187.995 48.7813L188.523 49.6533L189.041 50.5311L189.551 51.4144L190.052 52.3032L190.545 53.1975L191.029 54.097L191.504 55.0019L191.97 55.9118L192.428 56.8269L192.876 57.7469L193.315 58.6719L193.745 59.6017L194.167 60.5361L194.578 61.4752L194.981 62.4189L195.374 63.367L195.758 64.3194L196.133 65.2762L196.498 66.2371L196.854 67.202L197.2 68.171L197.537 69.1439L197.864 70.1205L198.181 71.1009L198.489 72.0849L198.787 73.0723L199.075 74.0632L199.354 75.0575L199.622 76.0549L199.881 77.0555L200.129 78.0591L200.368 79.0656L200.597 80.075L200.816 81.087L201.024 82.1017L201.223 83.119L201.412 84.1387L201.59 85.1607L201.758 86.1849L201.916 87.2113L202.064 88.2397L202.201 89.27L202.329 90.3021L202.446 91.336L202.552 92.3714L202.648 93.4084L202.734 94.4468L202.81 95.4865L202.875 96.5274L108.68 97.5231Z" stroke="#D73B30" stroke-width="2"/>
    <path d="M4.81347 43.5L23 12L41.1865 43.5H4.81347Z" stroke="#EE8D03" stroke-width="2"/>
  </symbol>

  <symbol id="figure-10" viewBox="0 0 267 267" fill="none">
    <circle cx="125.5" cy="97.5" r="75.5" fill="#1D2688"/>
    <path d="M82.3587 170.44L97.399 97.1033L129.363 228.738L172.02 104.31L68.3333 211.728L196.672 122.742L159.32 215.475L132.476 86.2132L36.7191 179.157L112.556 36.0792L201.245 185.513L54.4095 183.448L158.675 13.3416" stroke="#EE8D03" stroke-width="2"/>
  </symbol>
</svg>
