<svg viewBox="0 0 308 550" fill="none" xmlns="http://www.w3.org/2000/svg">
    <path d="M2.14648 111C5.33748 111 206.712 111 307 111" stroke="#D73B30" stroke-width="2" stroke-dasharray="2 2"/>
    <path d="M1 359V1H306.427V359L285.798 378L306.427 395V548.5H1V395L22.7753 378L1 359Z" stroke="#D73B30" stroke-width="2"/>
    <path d="M37.1016 378H270.326" stroke="#D73B30" stroke-width="2" stroke-dasharray="2 2"/>
    <g clip-path="url(#clip0)">
    <path d="M61.3608 442.071H58.7441V493.892H61.3608V442.071Z" fill="#D73B30"/>
    <path d="M54.7339 442.071H53.4258V493.892H54.7339V442.071Z" fill="#D73B30"/>
    <path d="M69.338 442.071H68.0293V493.892H69.338V442.071Z" fill="#D73B30"/>
    <path d="M66.6798 442.071H65.3711V493.892H66.6798V442.071Z" fill="#D73B30"/>
    <path d="M44.1398 442.071H42.7891V493.892H44.1398V442.071Z" fill="#D73B30"/>
    <path d="M48.1054 442.071H46.7969V493.892H48.1054V442.071Z" fill="#D73B30"/>
    <path d="M41.4796 442.071H38.8203V493.929H41.4796V442.071Z" fill="#D73B30"/>
    <path d="M71.9982 442.071H70.6895V493.892H71.9982V442.071Z" fill="#D73B30"/>
    <path d="M99.8564 442.071H97.1973V493.892H99.8564V442.071Z" fill="#D73B30"/>
    <path d="M107.835 442.071H103.867V493.892H107.835V442.071Z" fill="#D73B30"/>
    <path d="M110.493 442.071H109.143V493.892H110.493V442.071Z" fill="#D73B30"/>
    <path d="M114.46 442.071H111.801V493.929H114.46V442.071Z" fill="#D73B30"/>
    <path d="M90.5694 442.071H87.9102V493.892H90.5694V442.071Z" fill="#D73B30"/>
    <path d="M95.8878 442.071H93.2285V493.892H95.8878V442.071Z" fill="#D73B30"/>
    <path d="M85.2529 442.071H82.5938V493.892H85.2529V442.071Z" fill="#D73B30"/>
    <path d="M78.6244 442.071H75.9648V493.892H78.6244V442.071Z" fill="#D73B30"/>
    </g>
    <g clip-path="url(#clip1)">
    <path d="M137.001 442.071H134.385V493.892H137.001V442.071Z" fill="#D73B30"/>
    <path d="M130.375 442.071H129.066V493.892H130.375V442.071Z" fill="#D73B30"/>
    <path d="M144.979 442.071H143.67V493.892H144.979V442.071Z" fill="#D73B30"/>
    <path d="M142.32 442.071H141.012V493.892H142.32V442.071Z" fill="#D73B30"/>
    <path d="M119.78 442.071H118.43V493.892H119.78V442.071Z" fill="#D73B30"/>
    <path d="M123.746 442.071H122.438V493.892H123.746V442.071Z" fill="#D73B30"/>
    <path d="M117.12 442.071H114.461V493.929H117.12V442.071Z" fill="#D73B30"/>
    <path d="M147.639 442.071H146.33V493.892H147.639V442.071Z" fill="#D73B30"/>
    <path d="M175.497 442.071H172.838V493.892H175.497V442.071Z" fill="#D73B30"/>
    <path d="M183.475 442.071H179.508V493.892H183.475V442.071Z" fill="#D73B30"/>
    <path d="M186.134 442.071H184.783V493.892H186.134V442.071Z" fill="#D73B30"/>
    <path d="M190.101 442.071H187.441V493.929H190.101V442.071Z" fill="#D73B30"/>
    <path d="M166.21 442.071H163.551V493.892H166.21V442.071Z" fill="#D73B30"/>
    <path d="M171.528 442.071H168.869V493.892H171.528V442.071Z" fill="#D73B30"/>
    <path d="M160.893 442.071H158.234V493.892H160.893V442.071Z" fill="#D73B30"/>
    <path d="M154.265 442.071H151.605V493.892H154.265V442.071Z" fill="#D73B30"/>
    </g>
    <g clip-path="url(#clip2)">
    <path d="M214.933 442.071H212.316V493.892H214.933V442.071Z" fill="#D73B30"/>
    <path d="M208.306 442.071H206.998V493.892H208.306V442.071Z" fill="#D73B30"/>
    <path d="M222.91 442.071H221.602V493.892H222.91V442.071Z" fill="#D73B30"/>
    <path d="M220.252 442.071H218.943V493.892H220.252V442.071Z" fill="#D73B30"/>
    <path d="M197.712 442.071H196.361V493.892H197.712V442.071Z" fill="#D73B30"/>
    <path d="M201.678 442.071H200.369V493.892H201.678V442.071Z" fill="#D73B30"/>
    <path d="M195.052 442.071H192.393V493.929H195.052V442.071Z" fill="#D73B30"/>
    <path d="M225.57 442.071H224.262V493.892H225.57V442.071Z" fill="#D73B30"/>
    <path d="M253.429 442.071H250.77V493.892H253.429V442.071Z" fill="#D73B30"/>
    <path d="M261.407 442.071H257.439V493.892H261.407V442.071Z" fill="#D73B30"/>
    <path d="M264.065 442.071H262.715V493.892H264.065V442.071Z" fill="#D73B30"/>
    <path d="M268.032 442.071H265.373V493.929H268.032V442.071Z" fill="#D73B30"/>
    <path d="M244.142 442.071H241.482V493.892H244.142V442.071Z" fill="#D73B30"/>
    <path d="M249.46 442.071H246.801V493.892H249.46V442.071Z" fill="#D73B30"/>
    <path d="M238.825 442.071H236.166V493.892H238.825V442.071Z" fill="#D73B30"/>
    <path d="M232.197 442.071H229.537V493.892H232.197V442.071Z" fill="#D73B30"/>
    </g>
    <path d="M39.5098 432.828V436.86H44.1418V437.088H39.5098V441H39.2698V432.6H44.6818V432.828H39.5098ZM51.3823 437.892H45.8623C45.8623 438.452 45.9863 438.956 46.2343 439.404C46.4823 439.844 46.8223 440.188 47.2543 440.436C47.6943 440.684 48.1863 440.808 48.7303 440.808C49.1543 440.808 49.5503 440.728 49.9183 440.568C50.2943 440.4 50.6023 440.16 50.8423 439.848L51.0103 440.016C50.7383 440.344 50.4023 440.596 50.0023 440.772C49.6023 440.948 49.1783 441.036 48.7303 441.036C48.1383 441.036 47.6063 440.904 47.1343 440.64C46.6703 440.368 46.3023 439.992 46.0303 439.512C45.7663 439.032 45.6343 438.492 45.6343 437.892C45.6343 437.292 45.7583 436.756 46.0063 436.284C46.2543 435.804 46.5943 435.432 47.0263 435.168C47.4663 434.896 47.9583 434.76 48.5023 434.76C49.0383 434.76 49.5263 434.892 49.9663 435.156C50.4063 435.42 50.7503 435.784 50.9983 436.248C51.2543 436.712 51.3823 437.24 51.3823 437.832V437.892ZM48.5023 434.988C48.0223 434.988 47.5863 435.104 47.1943 435.336C46.8023 435.568 46.4863 435.888 46.2463 436.296C46.0143 436.704 45.8863 437.16 45.8623 437.664H51.1543C51.1303 437.16 50.9983 436.704 50.7583 436.296C50.5183 435.888 50.2023 435.568 49.8103 435.336C49.4183 435.104 48.9823 434.988 48.5023 434.988ZM58.4253 437.892H52.9053C52.9053 438.452 53.0293 438.956 53.2773 439.404C53.5253 439.844 53.8653 440.188 54.2973 440.436C54.7373 440.684 55.2293 440.808 55.7733 440.808C56.1973 440.808 56.5933 440.728 56.9613 440.568C57.3373 440.4 57.6453 440.16 57.8853 439.848L58.0533 440.016C57.7813 440.344 57.4453 440.596 57.0453 440.772C56.6453 440.948 56.2213 441.036 55.7733 441.036C55.1813 441.036 54.6493 440.904 54.1773 440.64C53.7133 440.368 53.3453 439.992 53.0733 439.512C52.8093 439.032 52.6773 438.492 52.6773 437.892C52.6773 437.292 52.8013 436.756 53.0493 436.284C53.2973 435.804 53.6373 435.432 54.0693 435.168C54.5093 434.896 55.0013 434.76 55.5453 434.76C56.0813 434.76 56.5693 434.892 57.0093 435.156C57.4493 435.42 57.7933 435.784 58.0413 436.248C58.2973 436.712 58.4253 437.24 58.4253 437.832V437.892ZM55.5453 434.988C55.0653 434.988 54.6293 435.104 54.2373 435.336C53.8453 435.568 53.5293 435.888 53.2893 436.296C53.0573 436.704 52.9293 437.16 52.9053 437.664H58.1973C58.1733 437.16 58.0413 436.704 57.8013 436.296C57.5613 435.888 57.2453 435.568 56.8533 435.336C56.4613 435.104 56.0253 434.988 55.5453 434.988ZM60.4523 432.096H60.6923V441H60.4523V432.096ZM68.0963 434.796L65.2403 441H65.0003L62.1443 434.796H62.4203L65.1203 440.724L67.8203 434.796H68.0963ZM71.6502 441.036C71.0822 441.036 70.5662 440.904 70.1022 440.64C69.6462 440.368 69.2862 439.992 69.0222 439.512C68.7662 439.032 68.6382 438.492 68.6382 437.892C68.6382 437.292 68.7662 436.756 69.0222 436.284C69.2862 435.804 69.6462 435.432 70.1022 435.168C70.5662 434.896 71.0822 434.76 71.6502 434.76C72.2182 434.76 72.7302 434.896 73.1862 435.168C73.6502 435.432 74.0102 435.804 74.2662 436.284C74.5302 436.756 74.6622 437.292 74.6622 437.892C74.6622 438.492 74.5302 439.032 74.2662 439.512C74.0102 439.992 73.6502 440.368 73.1862 440.64C72.7302 440.904 72.2182 441.036 71.6502 441.036ZM71.6502 440.808C72.1702 440.808 72.6422 440.684 73.0662 440.436C73.4902 440.188 73.8222 439.844 74.0622 439.404C74.3022 438.956 74.4222 438.452 74.4222 437.892C74.4222 437.332 74.3022 436.832 74.0622 436.392C73.8222 435.944 73.4902 435.6 73.0662 435.36C72.6422 435.112 72.1702 434.988 71.6502 434.988C71.1302 434.988 70.6582 435.112 70.2342 435.36C69.8102 435.6 69.4782 435.944 69.2382 436.392C68.9982 436.832 68.8782 437.332 68.8782 437.892C68.8782 438.452 68.9982 438.956 69.2382 439.404C69.4782 439.844 69.8102 440.188 70.2342 440.436C70.6582 440.684 71.1302 440.808 71.6502 440.808ZM76.6945 434.796H76.9345V441H76.6945V434.796ZM76.8145 433.08C76.7265 433.08 76.6505 433.048 76.5865 432.984C76.5305 432.92 76.5025 432.848 76.5025 432.768C76.5025 432.68 76.5305 432.608 76.5865 432.552C76.6505 432.488 76.7265 432.456 76.8145 432.456C76.8945 432.456 76.9665 432.488 77.0305 432.552C77.0945 432.608 77.1265 432.68 77.1265 432.768C77.1265 432.848 77.0945 432.92 77.0305 432.984C76.9665 433.048 76.8945 433.08 76.8145 433.08ZM82.0105 441.036C81.4265 441.036 80.9025 440.904 80.4385 440.64C79.9745 440.368 79.6105 439.996 79.3465 439.524C79.0905 439.044 78.9625 438.5 78.9625 437.892C78.9625 437.284 79.0905 436.744 79.3465 436.272C79.6105 435.792 79.9745 435.42 80.4385 435.156C80.9025 434.892 81.4265 434.76 82.0105 434.76C82.4665 434.76 82.8865 434.848 83.2705 435.024C83.6625 435.192 83.9865 435.44 84.2425 435.768L84.0745 435.948C83.8425 435.628 83.5465 435.388 83.1865 435.228C82.8265 435.068 82.4345 434.988 82.0105 434.988C81.4745 434.988 80.9905 435.112 80.5585 435.36C80.1345 435.6 79.8025 435.944 79.5625 436.392C79.3225 436.832 79.2025 437.332 79.2025 437.892C79.2025 438.46 79.3225 438.964 79.5625 439.404C79.8025 439.844 80.1345 440.188 80.5585 440.436C80.9905 440.684 81.4745 440.808 82.0105 440.808C82.4345 440.808 82.8265 440.728 83.1865 440.568C83.5465 440.408 83.8425 440.168 84.0745 439.848L84.2425 440.028C83.9865 440.356 83.6625 440.608 83.2705 440.784C82.8865 440.952 82.4665 441.036 82.0105 441.036ZM91.1323 437.892H85.6123C85.6123 438.452 85.7363 438.956 85.9843 439.404C86.2323 439.844 86.5723 440.188 87.0043 440.436C87.4443 440.684 87.9363 440.808 88.4803 440.808C88.9043 440.808 89.3003 440.728 89.6683 440.568C90.0443 440.4 90.3523 440.16 90.5923 439.848L90.7603 440.016C90.4883 440.344 90.1523 440.596 89.7523 440.772C89.3523 440.948 88.9283 441.036 88.4803 441.036C87.8883 441.036 87.3563 440.904 86.8843 440.64C86.4203 440.368 86.0523 439.992 85.7803 439.512C85.5163 439.032 85.3843 438.492 85.3843 437.892C85.3843 437.292 85.5083 436.756 85.7563 436.284C86.0043 435.804 86.3443 435.432 86.7763 435.168C87.2163 434.896 87.7083 434.76 88.2523 434.76C88.7883 434.76 89.2763 434.892 89.7163 435.156C90.1563 435.42 90.5003 435.784 90.7483 436.248C91.0043 436.712 91.1323 437.24 91.1323 437.832V437.892ZM88.2523 434.988C87.7723 434.988 87.3363 435.104 86.9443 435.336C86.5523 435.568 86.2363 435.888 85.9963 436.296C85.7643 436.704 85.6363 437.16 85.6123 437.664H90.9043C90.8803 437.16 90.7483 436.704 90.5083 436.296C90.2683 435.888 89.9523 435.568 89.5603 435.336C89.1683 435.104 88.7323 434.988 88.2523 434.988ZM38.7658 456.036C38.6858 456.036 38.6138 456.004 38.5498 455.94C38.4858 455.876 38.4538 455.804 38.4538 455.724C38.4538 455.636 38.4858 455.564 38.5498 455.508C38.6138 455.444 38.6858 455.412 38.7658 455.412C38.8538 455.412 38.9258 455.444 38.9818 455.508C39.0458 455.564 39.0778 455.636 39.0778 455.724C39.0778 455.804 39.0458 455.876 38.9818 455.94C38.9258 456.004 38.8538 456.036 38.7658 456.036Z" fill="#D73B30"/>
    <path d="M237.256 101L235.108 98.204L232.96 101H232.276L234.76 97.772L232.408 94.736H233.092L235.108 97.34L237.124 94.736H237.796L235.444 97.772L237.964 101H237.256ZM243.479 101L241.331 98.204L239.183 101H238.499L240.983 97.772L238.631 94.736H239.315L241.331 97.34L243.347 94.736H244.019L241.667 97.772L244.187 101H243.479ZM248.247 90.896H248.799L244.839 102.2H244.286L248.247 90.896ZM252.865 101L250.717 98.204L248.569 101H247.885L250.369 97.772L248.017 94.736H248.701L250.717 97.34L252.733 94.736H253.405L251.053 97.772L253.573 101H252.865ZM259.088 101L256.94 98.204L254.792 101H254.108L256.592 97.772L254.24 94.736H254.924L256.94 97.34L258.956 94.736H259.628L257.276 97.772L259.796 101H259.088ZM263.856 90.896H264.408L260.448 102.2H259.896L263.856 90.896ZM268.475 101L266.327 98.204L264.179 101H263.495L265.979 97.772L263.627 94.736H264.311L266.327 97.34L268.343 94.736H269.015L266.663 97.772L269.183 101H268.475ZM274.697 101L272.549 98.204L270.401 101H269.717L272.201 97.772L269.849 94.736H270.533L272.549 97.34L274.565 94.736H275.237L272.885 97.772L275.405 101H274.697ZM280.92 101L278.772 98.204L276.624 101H275.94L278.424 97.772L276.072 94.736H276.756L278.772 97.34L280.788 94.736H281.46L279.108 97.772L281.628 101H280.92ZM287.143 101L284.995 98.204L282.847 101H282.163L284.647 97.772L282.295 94.736H282.979L284.995 97.34L287.011 94.736H287.683L285.331 97.772L287.851 101H287.143Z" fill="#8E8E8E"/>
    <defs>
    <clipPath id="clip0">
    <rect width="75.6404" height="66" fill="white" transform="translate(38.8203 435)"/>
    </clipPath>
    <clipPath id="clip1">
    <rect width="75.6404" height="66" fill="white" transform="translate(114.461 435)"/>
    </clipPath>
    <clipPath id="clip2">
    <rect width="75.6404" height="66" fill="white" transform="translate(192.393 435)"/>
    </clipPath>
    </defs>
</svg>
